<?xml version="1.0" encoding="utf-8"?>
<svg xmlns="http://www.w3.org/2000/svg"
     xmlns:xlink="http://www.w3.org/1999/xlink" width="600" height="600" >

    <defs>
    <style type="text/css"><![CDATA[

    line {
        stroke-width: 1px;
        stroke: #888;
    }

    ]]></style>
    </defs>
    
<line x1="40.0" y1="40" x2="40.0" y2="560"/>
<line x1="40" y1="40.0" x2="560" y2="40.0"/>
<line x1="40.0" y1="40" x2="40.0" y2="560"/>
<line x1="40" y1="40.0" x2="560" y2="40.0"/>
<line x1="40.0" y1="40" x2="40.0" y2="560"/>
<line x1="40" y1="40.0" x2="560" y2="40.0"/>
<line x1="40.0" y1="40" x2="40.0" y2="560"/>
<line x1="40" y1="40.0" x2="560" y2="40.0"/>
<line x1="40.0" y1="40" x2="40.0" y2="560"/>
<line x1="40" y1="40.0" x2="560" y2="40.0"/>
<line x1="40.0" y1="40" x2="40.0" y2="560"/>
<line x1="40" y1="40.0" x2="560" y2="40.0"/>
<line x1="40.0" y1="40" x2="40.0" y2="560"/>
<line x1="40" y1="40.0" x2="560" y2="40.0"/>
<line x1="40.0" y1="40" x2="40.0" y2="560"/>
<line x1="40" y1="40.0" x2="560" y2="40.0"/>
<line x1="40.0" y1="40" x2="40.0" y2="560"/>
<line x1="40" y1="40.0" x2="560" y2="40.0"/>
<line x1="40.0" y1="40" x2="40.0" y2="560"/>
<line x1="40" y1="40.0" x2="560" y2="40.0"/>
<line x1="40.0" y1="40" x2="40.0" y2="560"/>
<line x1="40" y1="40.0" x2="560" y2="40.0"/>
<text x="66.0" y="580" text-anchor="middle" dominant-baseline="central">A</text>
<text x="20" y="534.0" text-anchor="middle" dominant-baseline="central">1</text>
<line x1="92.0" y1="40" x2="92.0" y2="560"/>
<line x1="40" y1="92.0" x2="560" y2="92.0"/>
<line x1="92.0" y1="40" x2="92.0" y2="560"/>
<line x1="40" y1="92.0" x2="560" y2="92.0"/>
<line x1="92.0" y1="40" x2="92.0" y2="560"/>
<line x1="40" y1="92.0" x2="560" y2="92.0"/>
<line x1="92.0" y1="40" x2="92.0" y2="560"/>
<line x1="40" y1="92.0" x2="560" y2="92.0"/>
<line x1="92.0" y1="40" x2="92.0" y2="560"/>
<line x1="40" y1="92.0" x2="560" y2="92.0"/>
<line x1="92.0" y1="40" x2="92.0" y2="560"/>
<line x1="40" y1="92.0" x2="560" y2="92.0"/>
<line x1="92.0" y1="40" x2="92.0" y2="560"/>
<line x1="40" y1="92.0" x2="560" y2="92.0"/>
<line x1="92.0" y1="40" x2="92.0" y2="560"/>
<line x1="40" y1="92.0" x2="560" y2="92.0"/>
<line x1="92.0" y1="40" x2="92.0" y2="560"/>
<line x1="40" y1="92.0" x2="560" y2="92.0"/>
<line x1="92.0" y1="40" x2="92.0" y2="560"/>
<line x1="40" y1="92.0" x2="560" y2="92.0"/>
<line x1="92.0" y1="40" x2="92.0" y2="560"/>
<line x1="40" y1="92.0" x2="560" y2="92.0"/>
<text x="118.0" y="580" text-anchor="middle" dominant-baseline="central">B</text>
<text x="20" y="482.0" text-anchor="middle" dominant-baseline="central">2</text>
<line x1="144.0" y1="40" x2="144.0" y2="560"/>
<line x1="40" y1="144.0" x2="560" y2="144.0"/>
<line x1="144.0" y1="40" x2="144.0" y2="560"/>
<line x1="40" y1="144.0" x2="560" y2="144.0"/>
<line x1="144.0" y1="40" x2="144.0" y2="560"/>
<line x1="40" y1="144.0" x2="560" y2="144.0"/>
<line x1="144.0" y1="40" x2="144.0" y2="560"/>
<line x1="40" y1="144.0" x2="560" y2="144.0"/>
<line x1="144.0" y1="40" x2="144.0" y2="560"/>
<line x1="40" y1="144.0" x2="560" y2="144.0"/>
<line x1="144.0" y1="40" x2="144.0" y2="560"/>
<line x1="40" y1="144.0" x2="560" y2="144.0"/>
<line x1="144.0" y1="40" x2="144.0" y2="560"/>
<line x1="40" y1="144.0" x2="560" y2="144.0"/>
<line x1="144.0" y1="40" x2="144.0" y2="560"/>
<line x1="40" y1="144.0" x2="560" y2="144.0"/>
<line x1="144.0" y1="40" x2="144.0" y2="560"/>
<line x1="40" y1="144.0" x2="560" y2="144.0"/>
<line x1="144.0" y1="40" x2="144.0" y2="560"/>
<line x1="40" y1="144.0" x2="560" y2="144.0"/>
<line x1="144.0" y1="40" x2="144.0" y2="560"/>
<line x1="40" y1="144.0" x2="560" y2="144.0"/>
<text x="170.0" y="580" text-anchor="middle" dominant-baseline="central">C</text>
<text x="20" y="430.0" text-anchor="middle" dominant-baseline="central">3</text>
<line x1="196.0" y1="40" x2="196.0" y2="560"/>
<line x1="40" y1="196.0" x2="560" y2="196.0"/>
<line x1="196.0" y1="40" x2="196.0" y2="560"/>
<line x1="40" y1="196.0" x2="560" y2="196.0"/>
<line x1="196.0" y1="40" x2="196.0" y2="560"/>
<line x1="40" y1="196.0" x2="560" y2="196.0"/>
<line x1="196.0" y1="40" x2="196.0" y2="560"/>
<line x1="40" y1="196.0" x2="560" y2="196.0"/>
<line x1="196.0" y1="40" x2="196.0" y2="560"/>
<line x1="40" y1="196.0" x2="560" y2="196.0"/>
<line x1="196.0" y1="40" x2="196.0" y2="560"/>
<line x1="40" y1="196.0" x2="560" y2="196.0"/>
<line x1="196.0" y1="40" x2="196.0" y2="560"/>
<line x1="40" y1="196.0" x2="560" y2="196.0"/>
<line x1="196.0" y1="40" x2="196.0" y2="560"/>
<line x1="40" y1="196.0" x2="560" y2="196.0"/>
<line x1="196.0" y1="40" x2="196.0" y2="560"/>
<line x1="40" y1="196.0" x2="560" y2="196.0"/>
<line x1="196.0" y1="40" x2="196.0" y2="560"/>
<line x1="40" y1="196.0" x2="560" y2="196.0"/>
<line x1="196.0" y1="40" x2="196.0" y2="560"/>
<line x1="40" y1="196.0" x2="560" y2="196.0"/>
<text x="222.0" y="580" text-anchor="middle" dominant-baseline="central">D</text>
<text x="20" y="378.0" text-anchor="middle" dominant-baseline="central">4</text>
<line x1="248.0" y1="40" x2="248.0" y2="560"/>
<line x1="40" y1="248.0" x2="560" y2="248.0"/>
<line x1="248.0" y1="40" x2="248.0" y2="560"/>
<line x1="40" y1="248.0" x2="560" y2="248.0"/>
<line x1="248.0" y1="40" x2="248.0" y2="560"/>
<line x1="40" y1="248.0" x2="560" y2="248.0"/>
<line x1="248.0" y1="40" x2="248.0" y2="560"/>
<line x1="40" y1="248.0" x2="560" y2="248.0"/>
<line x1="248.0" y1="40" x2="248.0" y2="560"/>
<line x1="40" y1="248.0" x2="560" y2="248.0"/>
<line x1="248.0" y1="40" x2="248.0" y2="560"/>
<line x1="40" y1="248.0" x2="560" y2="248.0"/>
<line x1="248.0" y1="40" x2="248.0" y2="560"/>
<line x1="40" y1="248.0" x2="560" y2="248.0"/>
<line x1="248.0" y1="40" x2="248.0" y2="560"/>
<line x1="40" y1="248.0" x2="560" y2="248.0"/>
<line x1="248.0" y1="40" x2="248.0" y2="560"/>
<line x1="40" y1="248.0" x2="560" y2="248.0"/>
<line x1="248.0" y1="40" x2="248.0" y2="560"/>
<line x1="40" y1="248.0" x2="560" y2="248.0"/>
<line x1="248.0" y1="40" x2="248.0" y2="560"/>
<line x1="40" y1="248.0" x2="560" y2="248.0"/>
<text x="274.0" y="580" text-anchor="middle" dominant-baseline="central">E</text>
<text x="20" y="326.0" text-anchor="middle" dominant-baseline="central">5</text>
<line x1="300.0" y1="40" x2="300.0" y2="560"/>
<line x1="40" y1="300.0" x2="560" y2="300.0"/>
<line x1="300.0" y1="40" x2="300.0" y2="560"/>
<line x1="40" y1="300.0" x2="560" y2="300.0"/>
<line x1="300.0" y1="40" x2="300.0" y2="560"/>
<line x1="40" y1="300.0" x2="560" y2="300.0"/>
<line x1="300.0" y1="40" x2="300.0" y2="560"/>
<line x1="40" y1="300.0" x2="560" y2="300.0"/>
<line x1="300.0" y1="40" x2="300.0" y2="560"/>
<line x1="40" y1="300.0" x2="560" y2="300.0"/>
<line x1="300.0" y1="40" x2="300.0" y2="560"/>
<line x1="40" y1="300.0" x2="560" y2="300.0"/>
<line x1="300.0" y1="40" x2="300.0" y2="560"/>
<line x1="40" y1="300.0" x2="560" y2="300.0"/>
<line x1="300.0" y1="40" x2="300.0" y2="560"/>
<line x1="40" y1="300.0" x2="560" y2="300.0"/>
<line x1="300.0" y1="40" x2="300.0" y2="560"/>
<line x1="40" y1="300.0" x2="560" y2="300.0"/>
<line x1="300.0" y1="40" x2="300.0" y2="560"/>
<line x1="40" y1="300.0" x2="560" y2="300.0"/>
<line x1="300.0" y1="40" x2="300.0" y2="560"/>
<line x1="40" y1="300.0" x2="560" y2="300.0"/>
<text x="326.0" y="580" text-anchor="middle" dominant-baseline="central">F</text>
<text x="20" y="274.0" text-anchor="middle" dominant-baseline="central">6</text>
<line x1="352.0" y1="40" x2="352.0" y2="560"/>
<line x1="40" y1="352.0" x2="560" y2="352.0"/>
<line x1="352.0" y1="40" x2="352.0" y2="560"/>
<line x1="40" y1="352.0" x2="560" y2="352.0"/>
<line x1="352.0" y1="40" x2="352.0" y2="560"/>
<line x1="40" y1="352.0" x2="560" y2="352.0"/>
<line x1="352.0" y1="40" x2="352.0" y2="560"/>
<line x1="40" y1="352.0" x2="560" y2="352.0"/>
<line x1="352.0" y1="40" x2="352.0" y2="560"/>
<line x1="40" y1="352.0" x2="560" y2="352.0"/>
<line x1="352.0" y1="40" x2="352.0" y2="560"/>
<line x1="40" y1="352.0" x2="560" y2="352.0"/>
<line x1="352.0" y1="40" x2="352.0" y2="560"/>
<line x1="40" y1="352.0" x2="560" y2="352.0"/>
<line x1="352.0" y1="40" x2="352.0" y2="560"/>
<line x1="40" y1="352.0" x2="560" y2="352.0"/>
<line x1="352.0" y1="40" x2="352.0" y2="560"/>
<line x1="40" y1="352.0" x2="560" y2="352.0"/>
<line x1="352.0" y1="40" x2="352.0" y2="560"/>
<line x1="40" y1="352.0" x2="560" y2="352.0"/>
<line x1="352.0" y1="40" x2="352.0" y2="560"/>
<line x1="40" y1="352.0" x2="560" y2="352.0"/>
<text x="378.0" y="580" text-anchor="middle" dominant-baseline="central">G</text>
<text x="20" y="222.0" text-anchor="middle" dominant-baseline="central">7</text>
<line x1="404.0" y1="40" x2="404.0" y2="560"/>
<line x1="40" y1="404.0" x2="560" y2="404.0"/>
<line x1="404.0" y1="40" x2="404.0" y2="560"/>
<line x1="40" y1="404.0" x2="560" y2="404.0"/>
<line x1="404.0" y1="40" x2="404.0" y2="560"/>
<line x1="40" y1="404.0" x2="560" y2="404.0"/>
<line x1="404.0" y1="40" x2="404.0" y2="560"/>
<line x1="40" y1="404.0" x2="560" y2="404.0"/>
<line x1="404.0" y1="40" x2="404.0" y2="560"/>
<line x1="40" y1="404.0" x2="560" y2="404.0"/>
<line x1="404.0" y1="40" x2="404.0" y2="560"/>
<line x1="40" y1="404.0" x2="560" y2="404.0"/>
<line x1="404.0" y1="40" x2="404.0" y2="560"/>
<line x1="40" y1="404.0" x2="560" y2="404.0"/>
<line x1="404.0" y1="40" x2="404.0" y2="560"/>
<line x1="40" y1="404.0" x2="560" y2="404.0"/>
<line x1="404.0" y1="40" x2="404.0" y2="560"/>
<line x1="40" y1="404.0" x2="560" y2="404.0"/>
<line x1="404.0" y1="40" x2="404.0" y2="560"/>
<line x1="40" y1="404.0" x2="560" y2="404.0"/>
<line x1="404.0" y1="40" x2="404.0" y2="560"/>
<line x1="40" y1="404.0" x2="560" y2="404.0"/>
<text x="430.0" y="580" text-anchor="middle" dominant-baseline="central">H</text>
<text x="20" y="170.0" text-anchor="middle" dominant-baseline="central">8</text>
<line x1="456.0" y1="40" x2="456.0" y2="560"/>
<line x1="40" y1="456.0" x2="560" y2="456.0"/>
<line x1="456.0" y1="40" x2="456.0" y2="560"/>
<line x1="40" y1="456.0" x2="560" y2="456.0"/>
<line x1="456.0" y1="40" x2="456.0" y2="560"/>
<line x1="40" y1="456.0" x2="560" y2="456.0"/>
<line x1="456.0" y1="40" x2="456.0" y2="560"/>
<line x1="40" y1="456.0" x2="560" y2="456.0"/>
<line x1="456.0" y1="40" x2="456.0" y2="560"/>
<line x1="40" y1="456.0" x2="560" y2="456.0"/>
<line x1="456.0" y1="40" x2="456.0" y2="560"/>
<line x1="40" y1="456.0" x2="560" y2="456.0"/>
<line x1="456.0" y1="40" x2="456.0" y2="560"/>
<line x1="40" y1="456.0" x2="560" y2="456.0"/>
<line x1="456.0" y1="40" x2="456.0" y2="560"/>
<line x1="40" y1="456.0" x2="560" y2="456.0"/>
<line x1="456.0" y1="40" x2="456.0" y2="560"/>
<line x1="40" y1="456.0" x2="560" y2="456.0"/>
<line x1="456.0" y1="40" x2="456.0" y2="560"/>
<line x1="40" y1="456.0" x2="560" y2="456.0"/>
<line x1="456.0" y1="40" x2="456.0" y2="560"/>
<line x1="40" y1="456.0" x2="560" y2="456.0"/>
<text x="482.0" y="580" text-anchor="middle" dominant-baseline="central">I</text>
<text x="20" y="118.0" text-anchor="middle" dominant-baseline="central">9</text>
<line x1="508.0" y1="40" x2="508.0" y2="560"/>
<line x1="40" y1="508.0" x2="560" y2="508.0"/>
<line x1="508.0" y1="40" x2="508.0" y2="560"/>
<line x1="40" y1="508.0" x2="560" y2="508.0"/>
<line x1="508.0" y1="40" x2="508.0" y2="560"/>
<line x1="40" y1="508.0" x2="560" y2="508.0"/>
<line x1="508.0" y1="40" x2="508.0" y2="560"/>
<line x1="40" y1="508.0" x2="560" y2="508.0"/>
<line x1="508.0" y1="40" x2="508.0" y2="560"/>
<line x1="40" y1="508.0" x2="560" y2="508.0"/>
<line x1="508.0" y1="40" x2="508.0" y2="560"/>
<line x1="40" y1="508.0" x2="560" y2="508.0"/>
<line x1="508.0" y1="40" x2="508.0" y2="560"/>
<line x1="40" y1="508.0" x2="560" y2="508.0"/>
<line x1="508.0" y1="40" x2="508.0" y2="560"/>
<line x1="40" y1="508.0" x2="560" y2="508.0"/>
<line x1="508.0" y1="40" x2="508.0" y2="560"/>
<line x1="40" y1="508.0" x2="560" y2="508.0"/>
<line x1="508.0" y1="40" x2="508.0" y2="560"/>
<line x1="40" y1="508.0" x2="560" y2="508.0"/>
<line x1="508.0" y1="40" x2="508.0" y2="560"/>
<line x1="40" y1="508.0" x2="560" y2="508.0"/>
<text x="534.0" y="580" text-anchor="middle" dominant-baseline="central">J</text>
<text x="20" y="66.0" text-anchor="middle" dominant-baseline="central">10</text>
<line x1="560.0" y1="40" x2="560.0" y2="560"/>
<line x1="40" y1="560.0" x2="560" y2="560.0"/>
<line x1="560.0" y1="40" x2="560.0" y2="560"/>
<line x1="40" y1="560.0" x2="560" y2="560.0"/>
<line x1="560.0" y1="40" x2="560.0" y2="560"/>
<line x1="40" y1="560.0" x2="560" y2="560.0"/>
<line x1="560.0" y1="40" x2="560.0" y2="560"/>
<line x1="40" y1="560.0" x2="560" y2="560.0"/>
<line x1="560.0" y1="40" x2="560.0" y2="560"/>
<line x1="40" y1="560.0" x2="560" y2="560.0"/>
<line x1="560.0" y1="40" x2="560.0" y2="560"/>
<line x1="40" y1="560.0" x2="560" y2="560.0"/>
<line x1="560.0" y1="40" x2="560.0" y2="560"/>
<line x1="40" y1="560.0" x2="560" y2="560.0"/>
<line x1="560.0" y1="40" x2="560.0" y2="560"/>
<line x1="40" y1="560.0" x2="560" y2="560.0"/>
<line x1="560.0" y1="40" x2="560.0" y2="560"/>
<line x1="40" y1="560.0" x2="560" y2="560.0"/>
<line x1="560.0" y1="40" x2="560.0" y2="560"/>
<line x1="40" y1="560.0" x2="560" y2="560.0"/>
<line x1="560.0" y1="40" x2="560.0" y2="560"/>
<line x1="40" y1="560.0" x2="560" y2="560.0"/>
</svg>
