<?xml version="1.0" encoding="utf-8"?>
<svg xmlns="http://www.w3.org/2000/svg"
     xmlns:xlink="http://www.w3.org/1999/xlink" width="600" height="600" >

    <defs>
    <style type="text/css"><![CDATA[

    line {
        stroke-width: 1px;
        stroke: #888;
    }

    ]]></style>
    </defs>
    
<line x1="40.0" y1="40" x2="40.0" y2="560"/>
<line x1="40" y1="40.0" x2="560" y2="40.0"/>
<line x1="40.0" y1="40" x2="40.0" y2="560"/>
<line x1="40" y1="40.0" x2="560" y2="40.0"/>
<line x1="40.0" y1="40" x2="40.0" y2="560"/>
<line x1="40" y1="40.0" x2="560" y2="40.0"/>
<line x1="40.0" y1="40" x2="40.0" y2="560"/>
<line x1="40" y1="40.0" x2="560" y2="40.0"/>
<line x1="40.0" y1="40" x2="40.0" y2="560"/>
<line x1="40" y1="40.0" x2="560" y2="40.0"/>
<line x1="40.0" y1="40" x2="40.0" y2="560"/>
<line x1="40" y1="40.0" x2="560" y2="40.0"/>
<line x1="40.0" y1="40" x2="40.0" y2="560"/>
<line x1="40" y1="40.0" x2="560" y2="40.0"/>
<line x1="40.0" y1="40" x2="40.0" y2="560"/>
<line x1="40" y1="40.0" x2="560" y2="40.0"/>
<line x1="40.0" y1="40" x2="40.0" y2="560"/>
<line x1="40" y1="40.0" x2="560" y2="40.0"/>
<line x1="40.0" y1="40" x2="40.0" y2="560"/>
<line x1="40" y1="40.0" x2="560" y2="40.0"/>
<line x1="40.0" y1="40" x2="40.0" y2="560"/>
<line x1="40" y1="40.0" x2="560" y2="40.0"/>
<line x1="40.0" y1="40" x2="40.0" y2="560"/>
<line x1="40" y1="40.0" x2="560" y2="40.0"/>
<line x1="40.0" y1="40" x2="40.0" y2="560"/>
<line x1="40" y1="40.0" x2="560" y2="40.0"/>
<line x1="40.0" y1="40" x2="40.0" y2="560"/>
<line x1="40" y1="40.0" x2="560" y2="40.0"/>
<line x1="40.0" y1="40" x2="40.0" y2="560"/>
<line x1="40" y1="40.0" x2="560" y2="40.0"/>
<line x1="40.0" y1="40" x2="40.0" y2="560"/>
<line x1="40" y1="40.0" x2="560" y2="40.0"/>
<line x1="40.0" y1="40" x2="40.0" y2="560"/>
<line x1="40" y1="40.0" x2="560" y2="40.0"/>
<line x1="40.0" y1="40" x2="40.0" y2="560"/>
<line x1="40" y1="40.0" x2="560" y2="40.0"/>
<line x1="40.0" y1="40" x2="40.0" y2="560"/>
<line x1="40" y1="40.0" x2="560" y2="40.0"/>
<line x1="40.0" y1="40" x2="40.0" y2="560"/>
<line x1="40" y1="40.0" x2="560" y2="40.0"/>
<line x1="40.0" y1="40" x2="40.0" y2="560"/>
<line x1="40" y1="40.0" x2="560" y2="40.0"/>
<text x="53.0" y="580" text-anchor="middle" dominant-baseline="central">A</text>
<text x="20" y="547.0" text-anchor="middle" dominant-baseline="central">1</text>
<line x1="66.0" y1="40" x2="66.0" y2="560"/>
<line x1="40" y1="66.0" x2="560" y2="66.0"/>
<line x1="66.0" y1="40" x2="66.0" y2="560"/>
<line x1="40" y1="66.0" x2="560" y2="66.0"/>
<line x1="66.0" y1="40" x2="66.0" y2="560"/>
<line x1="40" y1="66.0" x2="560" y2="66.0"/>
<line x1="66.0" y1="40" x2="66.0" y2="560"/>
<line x1="40" y1="66.0" x2="560" y2="66.0"/>
<line x1="66.0" y1="40" x2="66.0" y2="560"/>
<line x1="40" y1="66.0" x2="560" y2="66.0"/>
<line x1="66.0" y1="40" x2="66.0" y2="560"/>
<line x1="40" y1="66.0" x2="560" y2="66.0"/>
<line x1="66.0" y1="40" x2="66.0" y2="560"/>
<line x1="40" y1="66.0" x2="560" y2="66.0"/>
<line x1="66.0" y1="40" x2="66.0" y2="560"/>
<line x1="40" y1="66.0" x2="560" y2="66.0"/>
<line x1="66.0" y1="40" x2="66.0" y2="560"/>
<line x1="40" y1="66.0" x2="560" y2="66.0"/>
<line x1="66.0" y1="40" x2="66.0" y2="560"/>
<line x1="40" y1="66.0" x2="560" y2="66.0"/>
<line x1="66.0" y1="40" x2="66.0" y2="560"/>
<line x1="40" y1="66.0" x2="560" y2="66.0"/>
<line x1="66.0" y1="40" x2="66.0" y2="560"/>
<line x1="40" y1="66.0" x2="560" y2="66.0"/>
<line x1="66.0" y1="40" x2="66.0" y2="560"/>
<line x1="40" y1="66.0" x2="560" y2="66.0"/>
<line x1="66.0" y1="40" x2="66.0" y2="560"/>
<line x1="40" y1="66.0" x2="560" y2="66.0"/>
<line x1="66.0" y1="40" x2="66.0" y2="560"/>
<line x1="40" y1="66.0" x2="560" y2="66.0"/>
<line x1="66.0" y1="40" x2="66.0" y2="560"/>
<line x1="40" y1="66.0" x2="560" y2="66.0"/>
<line x1="66.0" y1="40" x2="66.0" y2="560"/>
<line x1="40" y1="66.0" x2="560" y2="66.0"/>
<line x1="66.0" y1="40" x2="66.0" y2="560"/>
<line x1="40" y1="66.0" x2="560" y2="66.0"/>
<line x1="66.0" y1="40" x2="66.0" y2="560"/>
<line x1="40" y1="66.0" x2="560" y2="66.0"/>
<line x1="66.0" y1="40" x2="66.0" y2="560"/>
<line x1="40" y1="66.0" x2="560" y2="66.0"/>
<line x1="66.0" y1="40" x2="66.0" y2="560"/>
<line x1="40" y1="66.0" x2="560" y2="66.0"/>
<text x="79.0" y="580" text-anchor="middle" dominant-baseline="central">B</text>
<text x="20" y="521.0" text-anchor="middle" dominant-baseline="central">2</text>
<line x1="92.0" y1="40" x2="92.0" y2="560"/>
<line x1="40" y1="92.0" x2="560" y2="92.0"/>
<line x1="92.0" y1="40" x2="92.0" y2="560"/>
<line x1="40" y1="92.0" x2="560" y2="92.0"/>
<line x1="92.0" y1="40" x2="92.0" y2="560"/>
<line x1="40" y1="92.0" x2="560" y2="92.0"/>
<line x1="92.0" y1="40" x2="92.0" y2="560"/>
<line x1="40" y1="92.0" x2="560" y2="92.0"/>
<line x1="92.0" y1="40" x2="92.0" y2="560"/>
<line x1="40" y1="92.0" x2="560" y2="92.0"/>
<line x1="92.0" y1="40" x2="92.0" y2="560"/>
<line x1="40" y1="92.0" x2="560" y2="92.0"/>
<line x1="92.0" y1="40" x2="92.0" y2="560"/>
<line x1="40" y1="92.0" x2="560" y2="92.0"/>
<line x1="92.0" y1="40" x2="92.0" y2="560"/>
<line x1="40" y1="92.0" x2="560" y2="92.0"/>
<line x1="92.0" y1="40" x2="92.0" y2="560"/>
<line x1="40" y1="92.0" x2="560" y2="92.0"/>
<line x1="92.0" y1="40" x2="92.0" y2="560"/>
<line x1="40" y1="92.0" x2="560" y2="92.0"/>
<line x1="92.0" y1="40" x2="92.0" y2="560"/>
<line x1="40" y1="92.0" x2="560" y2="92.0"/>
<line x1="92.0" y1="40" x2="92.0" y2="560"/>
<line x1="40" y1="92.0" x2="560" y2="92.0"/>
<line x1="92.0" y1="40" x2="92.0" y2="560"/>
<line x1="40" y1="92.0" x2="560" y2="92.0"/>
<line x1="92.0" y1="40" x2="92.0" y2="560"/>
<line x1="40" y1="92.0" x2="560" y2="92.0"/>
<line x1="92.0" y1="40" x2="92.0" y2="560"/>
<line x1="40" y1="92.0" x2="560" y2="92.0"/>
<line x1="92.0" y1="40" x2="92.0" y2="560"/>
<line x1="40" y1="92.0" x2="560" y2="92.0"/>
<line x1="92.0" y1="40" x2="92.0" y2="560"/>
<line x1="40" y1="92.0" x2="560" y2="92.0"/>
<line x1="92.0" y1="40" x2="92.0" y2="560"/>
<line x1="40" y1="92.0" x2="560" y2="92.0"/>
<line x1="92.0" y1="40" x2="92.0" y2="560"/>
<line x1="40" y1="92.0" x2="560" y2="92.0"/>
<line x1="92.0" y1="40" x2="92.0" y2="560"/>
<line x1="40" y1="92.0" x2="560" y2="92.0"/>
<line x1="92.0" y1="40" x2="92.0" y2="560"/>
<line x1="40" y1="92.0" x2="560" y2="92.0"/>
<text x="105.0" y="580" text-anchor="middle" dominant-baseline="central">C</text>
<text x="20" y="495.0" text-anchor="middle" dominant-baseline="central">3</text>
<line x1="118.0" y1="40" x2="118.0" y2="560"/>
<line x1="40" y1="118.0" x2="560" y2="118.0"/>
<line x1="118.0" y1="40" x2="118.0" y2="560"/>
<line x1="40" y1="118.0" x2="560" y2="118.0"/>
<line x1="118.0" y1="40" x2="118.0" y2="560"/>
<line x1="40" y1="118.0" x2="560" y2="118.0"/>
<line x1="118.0" y1="40" x2="118.0" y2="560"/>
<line x1="40" y1="118.0" x2="560" y2="118.0"/>
<line x1="118.0" y1="40" x2="118.0" y2="560"/>
<line x1="40" y1="118.0" x2="560" y2="118.0"/>
<line x1="118.0" y1="40" x2="118.0" y2="560"/>
<line x1="40" y1="118.0" x2="560" y2="118.0"/>
<line x1="118.0" y1="40" x2="118.0" y2="560"/>
<line x1="40" y1="118.0" x2="560" y2="118.0"/>
<line x1="118.0" y1="40" x2="118.0" y2="560"/>
<line x1="40" y1="118.0" x2="560" y2="118.0"/>
<line x1="118.0" y1="40" x2="118.0" y2="560"/>
<line x1="40" y1="118.0" x2="560" y2="118.0"/>
<line x1="118.0" y1="40" x2="118.0" y2="560"/>
<line x1="40" y1="118.0" x2="560" y2="118.0"/>
<line x1="118.0" y1="40" x2="118.0" y2="560"/>
<line x1="40" y1="118.0" x2="560" y2="118.0"/>
<line x1="118.0" y1="40" x2="118.0" y2="560"/>
<line x1="40" y1="118.0" x2="560" y2="118.0"/>
<line x1="118.0" y1="40" x2="118.0" y2="560"/>
<line x1="40" y1="118.0" x2="560" y2="118.0"/>
<line x1="118.0" y1="40" x2="118.0" y2="560"/>
<line x1="40" y1="118.0" x2="560" y2="118.0"/>
<line x1="118.0" y1="40" x2="118.0" y2="560"/>
<line x1="40" y1="118.0" x2="560" y2="118.0"/>
<line x1="118.0" y1="40" x2="118.0" y2="560"/>
<line x1="40" y1="118.0" x2="560" y2="118.0"/>
<line x1="118.0" y1="40" x2="118.0" y2="560"/>
<line x1="40" y1="118.0" x2="560" y2="118.0"/>
<line x1="118.0" y1="40" x2="118.0" y2="560"/>
<line x1="40" y1="118.0" x2="560" y2="118.0"/>
<line x1="118.0" y1="40" x2="118.0" y2="560"/>
<line x1="40" y1="118.0" x2="560" y2="118.0"/>
<line x1="118.0" y1="40" x2="118.0" y2="560"/>
<line x1="40" y1="118.0" x2="560" y2="118.0"/>
<line x1="118.0" y1="40" x2="118.0" y2="560"/>
<line x1="40" y1="118.0" x2="560" y2="118.0"/>
<text x="131.0" y="580" text-anchor="middle" dominant-baseline="central">D</text>
<text x="20" y="469.0" text-anchor="middle" dominant-baseline="central">4</text>
<line x1="144.0" y1="40" x2="144.0" y2="560"/>
<line x1="40" y1="144.0" x2="560" y2="144.0"/>
<line x1="144.0" y1="40" x2="144.0" y2="560"/>
<line x1="40" y1="144.0" x2="560" y2="144.0"/>
<line x1="144.0" y1="40" x2="144.0" y2="560"/>
<line x1="40" y1="144.0" x2="560" y2="144.0"/>
<line x1="144.0" y1="40" x2="144.0" y2="560"/>
<line x1="40" y1="144.0" x2="560" y2="144.0"/>
<line x1="144.0" y1="40" x2="144.0" y2="560"/>
<line x1="40" y1="144.0" x2="560" y2="144.0"/>
<line x1="144.0" y1="40" x2="144.0" y2="560"/>
<line x1="40" y1="144.0" x2="560" y2="144.0"/>
<line x1="144.0" y1="40" x2="144.0" y2="560"/>
<line x1="40" y1="144.0" x2="560" y2="144.0"/>
<line x1="144.0" y1="40" x2="144.0" y2="560"/>
<line x1="40" y1="144.0" x2="560" y2="144.0"/>
<line x1="144.0" y1="40" x2="144.0" y2="560"/>
<line x1="40" y1="144.0" x2="560" y2="144.0"/>
<line x1="144.0" y1="40" x2="144.0" y2="560"/>
<line x1="40" y1="144.0" x2="560" y2="144.0"/>
<line x1="144.0" y1="40" x2="144.0" y2="560"/>
<line x1="40" y1="144.0" x2="560" y2="144.0"/>
<line x1="144.0" y1="40" x2="144.0" y2="560"/>
<line x1="40" y1="144.0" x2="560" y2="144.0"/>
<line x1="144.0" y1="40" x2="144.0" y2="560"/>
<line x1="40" y1="144.0" x2="560" y2="144.0"/>
<line x1="144.0" y1="40" x2="144.0" y2="560"/>
<line x1="40" y1="144.0" x2="560" y2="144.0"/>
<line x1="144.0" y1="40" x2="144.0" y2="560"/>
<line x1="40" y1="144.0" x2="560" y2="144.0"/>
<line x1="144.0" y1="40" x2="144.0" y2="560"/>
<line x1="40" y1="144.0" x2="560" y2="144.0"/>
<line x1="144.0" y1="40" x2="144.0" y2="560"/>
<line x1="40" y1="144.0" x2="560" y2="144.0"/>
<line x1="144.0" y1="40" x2="144.0" y2="560"/>
<line x1="40" y1="144.0" x2="560" y2="144.0"/>
<line x1="144.0" y1="40" x2="144.0" y2="560"/>
<line x1="40" y1="144.0" x2="560" y2="144.0"/>
<line x1="144.0" y1="40" x2="144.0" y2="560"/>
<line x1="40" y1="144.0" x2="560" y2="144.0"/>
<line x1="144.0" y1="40" x2="144.0" y2="560"/>
<line x1="40" y1="144.0" x2="560" y2="144.0"/>
<text x="157.0" y="580" text-anchor="middle" dominant-baseline="central">E</text>
<text x="20" y="443.0" text-anchor="middle" dominant-baseline="central">5</text>
<line x1="170.0" y1="40" x2="170.0" y2="560"/>
<line x1="40" y1="170.0" x2="560" y2="170.0"/>
<line x1="170.0" y1="40" x2="170.0" y2="560"/>
<line x1="40" y1="170.0" x2="560" y2="170.0"/>
<line x1="170.0" y1="40" x2="170.0" y2="560"/>
<line x1="40" y1="170.0" x2="560" y2="170.0"/>
<line x1="170.0" y1="40" x2="170.0" y2="560"/>
<line x1="40" y1="170.0" x2="560" y2="170.0"/>
<line x1="170.0" y1="40" x2="170.0" y2="560"/>
<line x1="40" y1="170.0" x2="560" y2="170.0"/>
<line x1="170.0" y1="40" x2="170.0" y2="560"/>
<line x1="40" y1="170.0" x2="560" y2="170.0"/>
<line x1="170.0" y1="40" x2="170.0" y2="560"/>
<line x1="40" y1="170.0" x2="560" y2="170.0"/>
<line x1="170.0" y1="40" x2="170.0" y2="560"/>
<line x1="40" y1="170.0" x2="560" y2="170.0"/>
<line x1="170.0" y1="40" x2="170.0" y2="560"/>
<line x1="40" y1="170.0" x2="560" y2="170.0"/>
<line x1="170.0" y1="40" x2="170.0" y2="560"/>
<line x1="40" y1="170.0" x2="560" y2="170.0"/>
<line x1="170.0" y1="40" x2="170.0" y2="560"/>
<line x1="40" y1="170.0" x2="560" y2="170.0"/>
<line x1="170.0" y1="40" x2="170.0" y2="560"/>
<line x1="40" y1="170.0" x2="560" y2="170.0"/>
<line x1="170.0" y1="40" x2="170.0" y2="560"/>
<line x1="40" y1="170.0" x2="560" y2="170.0"/>
<line x1="170.0" y1="40" x2="170.0" y2="560"/>
<line x1="40" y1="170.0" x2="560" y2="170.0"/>
<line x1="170.0" y1="40" x2="170.0" y2="560"/>
<line x1="40" y1="170.0" x2="560" y2="170.0"/>
<line x1="170.0" y1="40" x2="170.0" y2="560"/>
<line x1="40" y1="170.0" x2="560" y2="170.0"/>
<line x1="170.0" y1="40" x2="170.0" y2="560"/>
<line x1="40" y1="170.0" x2="560" y2="170.0"/>
<line x1="170.0" y1="40" x2="170.0" y2="560"/>
<line x1="40" y1="170.0" x2="560" y2="170.0"/>
<line x1="170.0" y1="40" x2="170.0" y2="560"/>
<line x1="40" y1="170.0" x2="560" y2="170.0"/>
<line x1="170.0" y1="40" x2="170.0" y2="560"/>
<line x1="40" y1="170.0" x2="560" y2="170.0"/>
<line x1="170.0" y1="40" x2="170.0" y2="560"/>
<line x1="40" y1="170.0" x2="560" y2="170.0"/>
<text x="183.0" y="580" text-anchor="middle" dominant-baseline="central">F</text>
<text x="20" y="417.0" text-anchor="middle" dominant-baseline="central">6</text>
<line x1="196.0" y1="40" x2="196.0" y2="560"/>
<line x1="40" y1="196.0" x2="560" y2="196.0"/>
<line x1="196.0" y1="40" x2="196.0" y2="560"/>
<line x1="40" y1="196.0" x2="560" y2="196.0"/>
<line x1="196.0" y1="40" x2="196.0" y2="560"/>
<line x1="40" y1="196.0" x2="560" y2="196.0"/>
<line x1="196.0" y1="40" x2="196.0" y2="560"/>
<line x1="40" y1="196.0" x2="560" y2="196.0"/>
<line x1="196.0" y1="40" x2="196.0" y2="560"/>
<line x1="40" y1="196.0" x2="560" y2="196.0"/>
<line x1="196.0" y1="40" x2="196.0" y2="560"/>
<line x1="40" y1="196.0" x2="560" y2="196.0"/>
<line x1="196.0" y1="40" x2="196.0" y2="560"/>
<line x1="40" y1="196.0" x2="560" y2="196.0"/>
<line x1="196.0" y1="40" x2="196.0" y2="560"/>
<line x1="40" y1="196.0" x2="560" y2="196.0"/>
<line x1="196.0" y1="40" x2="196.0" y2="560"/>
<line x1="40" y1="196.0" x2="560" y2="196.0"/>
<line x1="196.0" y1="40" x2="196.0" y2="560"/>
<line x1="40" y1="196.0" x2="560" y2="196.0"/>
<line x1="196.0" y1="40" x2="196.0" y2="560"/>
<line x1="40" y1="196.0" x2="560" y2="196.0"/>
<line x1="196.0" y1="40" x2="196.0" y2="560"/>
<line x1="40" y1="196.0" x2="560" y2="196.0"/>
<line x1="196.0" y1="40" x2="196.0" y2="560"/>
<line x1="40" y1="196.0" x2="560" y2="196.0"/>
<line x1="196.0" y1="40" x2="196.0" y2="560"/>
<line x1="40" y1="196.0" x2="560" y2="196.0"/>
<line x1="196.0" y1="40" x2="196.0" y2="560"/>
<line x1="40" y1="196.0" x2="560" y2="196.0"/>
<line x1="196.0" y1="40" x2="196.0" y2="560"/>
<line x1="40" y1="196.0" x2="560" y2="196.0"/>
<line x1="196.0" y1="40" x2="196.0" y2="560"/>
<line x1="40" y1="196.0" x2="560" y2="196.0"/>
<line x1="196.0" y1="40" x2="196.0" y2="560"/>
<line x1="40" y1="196.0" x2="560" y2="196.0"/>
<line x1="196.0" y1="40" x2="196.0" y2="560"/>
<line x1="40" y1="196.0" x2="560" y2="196.0"/>
<line x1="196.0" y1="40" x2="196.0" y2="560"/>
<line x1="40" y1="196.0" x2="560" y2="196.0"/>
<line x1="196.0" y1="40" x2="196.0" y2="560"/>
<line x1="40" y1="196.0" x2="560" y2="196.0"/>
<text x="209.0" y="580" text-anchor="middle" dominant-baseline="central">G</text>
<text x="20" y="391.0" text-anchor="middle" dominant-baseline="central">7</text>
<line x1="222.0" y1="40" x2="222.0" y2="560"/>
<line x1="40" y1="222.0" x2="560" y2="222.0"/>
<line x1="222.0" y1="40" x2="222.0" y2="560"/>
<line x1="40" y1="222.0" x2="560" y2="222.0"/>
<line x1="222.0" y1="40" x2="222.0" y2="560"/>
<line x1="40" y1="222.0" x2="560" y2="222.0"/>
<line x1="222.0" y1="40" x2="222.0" y2="560"/>
<line x1="40" y1="222.0" x2="560" y2="222.0"/>
<line x1="222.0" y1="40" x2="222.0" y2="560"/>
<line x1="40" y1="222.0" x2="560" y2="222.0"/>
<line x1="222.0" y1="40" x2="222.0" y2="560"/>
<line x1="40" y1="222.0" x2="560" y2="222.0"/>
<line x1="222.0" y1="40" x2="222.0" y2="560"/>
<line x1="40" y1="222.0" x2="560" y2="222.0"/>
<line x1="222.0" y1="40" x2="222.0" y2="560"/>
<line x1="40" y1="222.0" x2="560" y2="222.0"/>
<line x1="222.0" y1="40" x2="222.0" y2="560"/>
<line x1="40" y1="222.0" x2="560" y2="222.0"/>
<line x1="222.0" y1="40" x2="222.0" y2="560"/>
<line x1="40" y1="222.0" x2="560" y2="222.0"/>
<line x1="222.0" y1="40" x2="222.0" y2="560"/>
<line x1="40" y1="222.0" x2="560" y2="222.0"/>
<line x1="222.0" y1="40" x2="222.0" y2="560"/>
<line x1="40" y1="222.0" x2="560" y2="222.0"/>
<line x1="222.0" y1="40" x2="222.0" y2="560"/>
<line x1="40" y1="222.0" x2="560" y2="222.0"/>
<line x1="222.0" y1="40" x2="222.0" y2="560"/>
<line x1="40" y1="222.0" x2="560" y2="222.0"/>
<line x1="222.0" y1="40" x2="222.0" y2="560"/>
<line x1="40" y1="222.0" x2="560" y2="222.0"/>
<line x1="222.0" y1="40" x2="222.0" y2="560"/>
<line x1="40" y1="222.0" x2="560" y2="222.0"/>
<line x1="222.0" y1="40" x2="222.0" y2="560"/>
<line x1="40" y1="222.0" x2="560" y2="222.0"/>
<line x1="222.0" y1="40" x2="222.0" y2="560"/>
<line x1="40" y1="222.0" x2="560" y2="222.0"/>
<line x1="222.0" y1="40" x2="222.0" y2="560"/>
<line x1="40" y1="222.0" x2="560" y2="222.0"/>
<line x1="222.0" y1="40" x2="222.0" y2="560"/>
<line x1="40" y1="222.0" x2="560" y2="222.0"/>
<line x1="222.0" y1="40" x2="222.0" y2="560"/>
<line x1="40" y1="222.0" x2="560" y2="222.0"/>
<text x="235.0" y="580" text-anchor="middle" dominant-baseline="central">H</text>
<text x="20" y="365.0" text-anchor="middle" dominant-baseline="central">8</text>
<line x1="248.0" y1="40" x2="248.0" y2="560"/>
<line x1="40" y1="248.0" x2="560" y2="248.0"/>
<line x1="248.0" y1="40" x2="248.0" y2="560"/>
<line x1="40" y1="248.0" x2="560" y2="248.0"/>
<line x1="248.0" y1="40" x2="248.0" y2="560"/>
<line x1="40" y1="248.0" x2="560" y2="248.0"/>
<line x1="248.0" y1="40" x2="248.0" y2="560"/>
<line x1="40" y1="248.0" x2="560" y2="248.0"/>
<line x1="248.0" y1="40" x2="248.0" y2="560"/>
<line x1="40" y1="248.0" x2="560" y2="248.0"/>
<line x1="248.0" y1="40" x2="248.0" y2="560"/>
<line x1="40" y1="248.0" x2="560" y2="248.0"/>
<line x1="248.0" y1="40" x2="248.0" y2="560"/>
<line x1="40" y1="248.0" x2="560" y2="248.0"/>
<line x1="248.0" y1="40" x2="248.0" y2="560"/>
<line x1="40" y1="248.0" x2="560" y2="248.0"/>
<line x1="248.0" y1="40" x2="248.0" y2="560"/>
<line x1="40" y1="248.0" x2="560" y2="248.0"/>
<line x1="248.0" y1="40" x2="248.0" y2="560"/>
<line x1="40" y1="248.0" x2="560" y2="248.0"/>
<line x1="248.0" y1="40" x2="248.0" y2="560"/>
<line x1="40" y1="248.0" x2="560" y2="248.0"/>
<line x1="248.0" y1="40" x2="248.0" y2="560"/>
<line x1="40" y1="248.0" x2="560" y2="248.0"/>
<line x1="248.0" y1="40" x2="248.0" y2="560"/>
<line x1="40" y1="248.0" x2="560" y2="248.0"/>
<line x1="248.0" y1="40" x2="248.0" y2="560"/>
<line x1="40" y1="248.0" x2="560" y2="248.0"/>
<line x1="248.0" y1="40" x2="248.0" y2="560"/>
<line x1="40" y1="248.0" x2="560" y2="248.0"/>
<line x1="248.0" y1="40" x2="248.0" y2="560"/>
<line x1="40" y1="248.0" x2="560" y2="248.0"/>
<line x1="248.0" y1="40" x2="248.0" y2="560"/>
<line x1="40" y1="248.0" x2="560" y2="248.0"/>
<line x1="248.0" y1="40" x2="248.0" y2="560"/>
<line x1="40" y1="248.0" x2="560" y2="248.0"/>
<line x1="248.0" y1="40" x2="248.0" y2="560"/>
<line x1="40" y1="248.0" x2="560" y2="248.0"/>
<line x1="248.0" y1="40" x2="248.0" y2="560"/>
<line x1="40" y1="248.0" x2="560" y2="248.0"/>
<line x1="248.0" y1="40" x2="248.0" y2="560"/>
<line x1="40" y1="248.0" x2="560" y2="248.0"/>
<text x="261.0" y="580" text-anchor="middle" dominant-baseline="central">I</text>
<text x="20" y="339.0" text-anchor="middle" dominant-baseline="central">9</text>
<line x1="274.0" y1="40" x2="274.0" y2="560"/>
<line x1="40" y1="274.0" x2="560" y2="274.0"/>
<line x1="274.0" y1="40" x2="274.0" y2="560"/>
<line x1="40" y1="274.0" x2="560" y2="274.0"/>
<line x1="274.0" y1="40" x2="274.0" y2="560"/>
<line x1="40" y1="274.0" x2="560" y2="274.0"/>
<line x1="274.0" y1="40" x2="274.0" y2="560"/>
<line x1="40" y1="274.0" x2="560" y2="274.0"/>
<line x1="274.0" y1="40" x2="274.0" y2="560"/>
<line x1="40" y1="274.0" x2="560" y2="274.0"/>
<line x1="274.0" y1="40" x2="274.0" y2="560"/>
<line x1="40" y1="274.0" x2="560" y2="274.0"/>
<line x1="274.0" y1="40" x2="274.0" y2="560"/>
<line x1="40" y1="274.0" x2="560" y2="274.0"/>
<line x1="274.0" y1="40" x2="274.0" y2="560"/>
<line x1="40" y1="274.0" x2="560" y2="274.0"/>
<line x1="274.0" y1="40" x2="274.0" y2="560"/>
<line x1="40" y1="274.0" x2="560" y2="274.0"/>
<line x1="274.0" y1="40" x2="274.0" y2="560"/>
<line x1="40" y1="274.0" x2="560" y2="274.0"/>
<line x1="274.0" y1="40" x2="274.0" y2="560"/>
<line x1="40" y1="274.0" x2="560" y2="274.0"/>
<line x1="274.0" y1="40" x2="274.0" y2="560"/>
<line x1="40" y1="274.0" x2="560" y2="274.0"/>
<line x1="274.0" y1="40" x2="274.0" y2="560"/>
<line x1="40" y1="274.0" x2="560" y2="274.0"/>
<line x1="274.0" y1="40" x2="274.0" y2="560"/>
<line x1="40" y1="274.0" x2="560" y2="274.0"/>
<line x1="274.0" y1="40" x2="274.0" y2="560"/>
<line x1="40" y1="274.0" x2="560" y2="274.0"/>
<line x1="274.0" y1="40" x2="274.0" y2="560"/>
<line x1="40" y1="274.0" x2="560" y2="274.0"/>
<line x1="274.0" y1="40" x2="274.0" y2="560"/>
<line x1="40" y1="274.0" x2="560" y2="274.0"/>
<line x1="274.0" y1="40" x2="274.0" y2="560"/>
<line x1="40" y1="274.0" x2="560" y2="274.0"/>
<line x1="274.0" y1="40" x2="274.0" y2="560"/>
<line x1="40" y1="274.0" x2="560" y2="274.0"/>
<line x1="274.0" y1="40" x2="274.0" y2="560"/>
<line x1="40" y1="274.0" x2="560" y2="274.0"/>
<line x1="274.0" y1="40" x2="274.0" y2="560"/>
<line x1="40" y1="274.0" x2="560" y2="274.0"/>
<text x="287.0" y="580" text-anchor="middle" dominant-baseline="central">J</text>
<text x="20" y="313.0" text-anchor="middle" dominant-baseline="central">10</text>
<line x1="300.0" y1="40" x2="300.0" y2="560"/>
<line x1="40" y1="300.0" x2="560" y2="300.0"/>
<line x1="300.0" y1="40" x2="300.0" y2="560"/>
<line x1="40" y1="300.0" x2="560" y2="300.0"/>
<line x1="300.0" y1="40" x2="300.0" y2="560"/>
<line x1="40" y1="300.0" x2="560" y2="300.0"/>
<line x1="300.0" y1="40" x2="300.0" y2="560"/>
<line x1="40" y1="300.0" x2="560" y2="300.0"/>
<line x1="300.0" y1="40" x2="300.0" y2="560"/>
<line x1="40" y1="300.0" x2="560" y2="300.0"/>
<line x1="300.0" y1="40" x2="300.0" y2="560"/>
<line x1="40" y1="300.0" x2="560" y2="300.0"/>
<line x1="300.0" y1="40" x2="300.0" y2="560"/>
<line x1="40" y1="300.0" x2="560" y2="300.0"/>
<line x1="300.0" y1="40" x2="300.0" y2="560"/>
<line x1="40" y1="300.0" x2="560" y2="300.0"/>
<line x1="300.0" y1="40" x2="300.0" y2="560"/>
<line x1="40" y1="300.0" x2="560" y2="300.0"/>
<line x1="300.0" y1="40" x2="300.0" y2="560"/>
<line x1="40" y1="300.0" x2="560" y2="300.0"/>
<line x1="300.0" y1="40" x2="300.0" y2="560"/>
<line x1="40" y1="300.0" x2="560" y2="300.0"/>
<line x1="300.0" y1="40" x2="300.0" y2="560"/>
<line x1="40" y1="300.0" x2="560" y2="300.0"/>
<line x1="300.0" y1="40" x2="300.0" y2="560"/>
<line x1="40" y1="300.0" x2="560" y2="300.0"/>
<line x1="300.0" y1="40" x2="300.0" y2="560"/>
<line x1="40" y1="300.0" x2="560" y2="300.0"/>
<line x1="300.0" y1="40" x2="300.0" y2="560"/>
<line x1="40" y1="300.0" x2="560" y2="300.0"/>
<line x1="300.0" y1="40" x2="300.0" y2="560"/>
<line x1="40" y1="300.0" x2="560" y2="300.0"/>
<line x1="300.0" y1="40" x2="300.0" y2="560"/>
<line x1="40" y1="300.0" x2="560" y2="300.0"/>
<line x1="300.0" y1="40" x2="300.0" y2="560"/>
<line x1="40" y1="300.0" x2="560" y2="300.0"/>
<line x1="300.0" y1="40" x2="300.0" y2="560"/>
<line x1="40" y1="300.0" x2="560" y2="300.0"/>
<line x1="300.0" y1="40" x2="300.0" y2="560"/>
<line x1="40" y1="300.0" x2="560" y2="300.0"/>
<line x1="300.0" y1="40" x2="300.0" y2="560"/>
<line x1="40" y1="300.0" x2="560" y2="300.0"/>
<text x="313.0" y="580" text-anchor="middle" dominant-baseline="central">K</text>
<text x="20" y="287.0" text-anchor="middle" dominant-baseline="central">11</text>
<line x1="326.0" y1="40" x2="326.0" y2="560"/>
<line x1="40" y1="326.0" x2="560" y2="326.0"/>
<line x1="326.0" y1="40" x2="326.0" y2="560"/>
<line x1="40" y1="326.0" x2="560" y2="326.0"/>
<line x1="326.0" y1="40" x2="326.0" y2="560"/>
<line x1="40" y1="326.0" x2="560" y2="326.0"/>
<line x1="326.0" y1="40" x2="326.0" y2="560"/>
<line x1="40" y1="326.0" x2="560" y2="326.0"/>
<line x1="326.0" y1="40" x2="326.0" y2="560"/>
<line x1="40" y1="326.0" x2="560" y2="326.0"/>
<line x1="326.0" y1="40" x2="326.0" y2="560"/>
<line x1="40" y1="326.0" x2="560" y2="326.0"/>
<line x1="326.0" y1="40" x2="326.0" y2="560"/>
<line x1="40" y1="326.0" x2="560" y2="326.0"/>
<line x1="326.0" y1="40" x2="326.0" y2="560"/>
<line x1="40" y1="326.0" x2="560" y2="326.0"/>
<line x1="326.0" y1="40" x2="326.0" y2="560"/>
<line x1="40" y1="326.0" x2="560" y2="326.0"/>
<line x1="326.0" y1="40" x2="326.0" y2="560"/>
<line x1="40" y1="326.0" x2="560" y2="326.0"/>
<line x1="326.0" y1="40" x2="326.0" y2="560"/>
<line x1="40" y1="326.0" x2="560" y2="326.0"/>
<line x1="326.0" y1="40" x2="326.0" y2="560"/>
<line x1="40" y1="326.0" x2="560" y2="326.0"/>
<line x1="326.0" y1="40" x2="326.0" y2="560"/>
<line x1="40" y1="326.0" x2="560" y2="326.0"/>
<line x1="326.0" y1="40" x2="326.0" y2="560"/>
<line x1="40" y1="326.0" x2="560" y2="326.0"/>
<line x1="326.0" y1="40" x2="326.0" y2="560"/>
<line x1="40" y1="326.0" x2="560" y2="326.0"/>
<line x1="326.0" y1="40" x2="326.0" y2="560"/>
<line x1="40" y1="326.0" x2="560" y2="326.0"/>
<line x1="326.0" y1="40" x2="326.0" y2="560"/>
<line x1="40" y1="326.0" x2="560" y2="326.0"/>
<line x1="326.0" y1="40" x2="326.0" y2="560"/>
<line x1="40" y1="326.0" x2="560" y2="326.0"/>
<line x1="326.0" y1="40" x2="326.0" y2="560"/>
<line x1="40" y1="326.0" x2="560" y2="326.0"/>
<line x1="326.0" y1="40" x2="326.0" y2="560"/>
<line x1="40" y1="326.0" x2="560" y2="326.0"/>
<line x1="326.0" y1="40" x2="326.0" y2="560"/>
<line x1="40" y1="326.0" x2="560" y2="326.0"/>
<text x="339.0" y="580" text-anchor="middle" dominant-baseline="central">L</text>
<text x="20" y="261.0" text-anchor="middle" dominant-baseline="central">12</text>
<line x1="352.0" y1="40" x2="352.0" y2="560"/>
<line x1="40" y1="352.0" x2="560" y2="352.0"/>
<line x1="352.0" y1="40" x2="352.0" y2="560"/>
<line x1="40" y1="352.0" x2="560" y2="352.0"/>
<line x1="352.0" y1="40" x2="352.0" y2="560"/>
<line x1="40" y1="352.0" x2="560" y2="352.0"/>
<line x1="352.0" y1="40" x2="352.0" y2="560"/>
<line x1="40" y1="352.0" x2="560" y2="352.0"/>
<line x1="352.0" y1="40" x2="352.0" y2="560"/>
<line x1="40" y1="352.0" x2="560" y2="352.0"/>
<line x1="352.0" y1="40" x2="352.0" y2="560"/>
<line x1="40" y1="352.0" x2="560" y2="352.0"/>
<line x1="352.0" y1="40" x2="352.0" y2="560"/>
<line x1="40" y1="352.0" x2="560" y2="352.0"/>
<line x1="352.0" y1="40" x2="352.0" y2="560"/>
<line x1="40" y1="352.0" x2="560" y2="352.0"/>
<line x1="352.0" y1="40" x2="352.0" y2="560"/>
<line x1="40" y1="352.0" x2="560" y2="352.0"/>
<line x1="352.0" y1="40" x2="352.0" y2="560"/>
<line x1="40" y1="352.0" x2="560" y2="352.0"/>
<line x1="352.0" y1="40" x2="352.0" y2="560"/>
<line x1="40" y1="352.0" x2="560" y2="352.0"/>
<line x1="352.0" y1="40" x2="352.0" y2="560"/>
<line x1="40" y1="352.0" x2="560" y2="352.0"/>
<line x1="352.0" y1="40" x2="352.0" y2="560"/>
<line x1="40" y1="352.0" x2="560" y2="352.0"/>
<line x1="352.0" y1="40" x2="352.0" y2="560"/>
<line x1="40" y1="352.0" x2="560" y2="352.0"/>
<line x1="352.0" y1="40" x2="352.0" y2="560"/>
<line x1="40" y1="352.0" x2="560" y2="352.0"/>
<line x1="352.0" y1="40" x2="352.0" y2="560"/>
<line x1="40" y1="352.0" x2="560" y2="352.0"/>
<line x1="352.0" y1="40" x2="352.0" y2="560"/>
<line x1="40" y1="352.0" x2="560" y2="352.0"/>
<line x1="352.0" y1="40" x2="352.0" y2="560"/>
<line x1="40" y1="352.0" x2="560" y2="352.0"/>
<line x1="352.0" y1="40" x2="352.0" y2="560"/>
<line x1="40" y1="352.0" x2="560" y2="352.0"/>
<line x1="352.0" y1="40" x2="352.0" y2="560"/>
<line x1="40" y1="352.0" x2="560" y2="352.0"/>
<line x1="352.0" y1="40" x2="352.0" y2="560"/>
<line x1="40" y1="352.0" x2="560" y2="352.0"/>
<text x="365.0" y="580" text-anchor="middle" dominant-baseline="central">M</text>
<text x="20" y="235.0" text-anchor="middle" dominant-baseline="central">13</text>
<line x1="378.0" y1="40" x2="378.0" y2="560"/>
<line x1="40" y1="378.0" x2="560" y2="378.0"/>
<line x1="378.0" y1="40" x2="378.0" y2="560"/>
<line x1="40" y1="378.0" x2="560" y2="378.0"/>
<line x1="378.0" y1="40" x2="378.0" y2="560"/>
<line x1="40" y1="378.0" x2="560" y2="378.0"/>
<line x1="378.0" y1="40" x2="378.0" y2="560"/>
<line x1="40" y1="378.0" x2="560" y2="378.0"/>
<line x1="378.0" y1="40" x2="378.0" y2="560"/>
<line x1="40" y1="378.0" x2="560" y2="378.0"/>
<line x1="378.0" y1="40" x2="378.0" y2="560"/>
<line x1="40" y1="378.0" x2="560" y2="378.0"/>
<line x1="378.0" y1="40" x2="378.0" y2="560"/>
<line x1="40" y1="378.0" x2="560" y2="378.0"/>
<line x1="378.0" y1="40" x2="378.0" y2="560"/>
<line x1="40" y1="378.0" x2="560" y2="378.0"/>
<line x1="378.0" y1="40" x2="378.0" y2="560"/>
<line x1="40" y1="378.0" x2="560" y2="378.0"/>
<line x1="378.0" y1="40" x2="378.0" y2="560"/>
<line x1="40" y1="378.0" x2="560" y2="378.0"/>
<line x1="378.0" y1="40" x2="378.0" y2="560"/>
<line x1="40" y1="378.0" x2="560" y2="378.0"/>
<line x1="378.0" y1="40" x2="378.0" y2="560"/>
<line x1="40" y1="378.0" x2="560" y2="378.0"/>
<line x1="378.0" y1="40" x2="378.0" y2="560"/>
<line x1="40" y1="378.0" x2="560" y2="378.0"/>
<line x1="378.0" y1="40" x2="378.0" y2="560"/>
<line x1="40" y1="378.0" x2="560" y2="378.0"/>
<line x1="378.0" y1="40" x2="378.0" y2="560"/>
<line x1="40" y1="378.0" x2="560" y2="378.0"/>
<line x1="378.0" y1="40" x2="378.0" y2="560"/>
<line x1="40" y1="378.0" x2="560" y2="378.0"/>
<line x1="378.0" y1="40" x2="378.0" y2="560"/>
<line x1="40" y1="378.0" x2="560" y2="378.0"/>
<line x1="378.0" y1="40" x2="378.0" y2="560"/>
<line x1="40" y1="378.0" x2="560" y2="378.0"/>
<line x1="378.0" y1="40" x2="378.0" y2="560"/>
<line x1="40" y1="378.0" x2="560" y2="378.0"/>
<line x1="378.0" y1="40" x2="378.0" y2="560"/>
<line x1="40" y1="378.0" x2="560" y2="378.0"/>
<line x1="378.0" y1="40" x2="378.0" y2="560"/>
<line x1="40" y1="378.0" x2="560" y2="378.0"/>
<text x="391.0" y="580" text-anchor="middle" dominant-baseline="central">N</text>
<text x="20" y="209.0" text-anchor="middle" dominant-baseline="central">14</text>
<line x1="404.0" y1="40" x2="404.0" y2="560"/>
<line x1="40" y1="404.0" x2="560" y2="404.0"/>
<line x1="404.0" y1="40" x2="404.0" y2="560"/>
<line x1="40" y1="404.0" x2="560" y2="404.0"/>
<line x1="404.0" y1="40" x2="404.0" y2="560"/>
<line x1="40" y1="404.0" x2="560" y2="404.0"/>
<line x1="404.0" y1="40" x2="404.0" y2="560"/>
<line x1="40" y1="404.0" x2="560" y2="404.0"/>
<line x1="404.0" y1="40" x2="404.0" y2="560"/>
<line x1="40" y1="404.0" x2="560" y2="404.0"/>
<line x1="404.0" y1="40" x2="404.0" y2="560"/>
<line x1="40" y1="404.0" x2="560" y2="404.0"/>
<line x1="404.0" y1="40" x2="404.0" y2="560"/>
<line x1="40" y1="404.0" x2="560" y2="404.0"/>
<line x1="404.0" y1="40" x2="404.0" y2="560"/>
<line x1="40" y1="404.0" x2="560" y2="404.0"/>
<line x1="404.0" y1="40" x2="404.0" y2="560"/>
<line x1="40" y1="404.0" x2="560" y2="404.0"/>
<line x1="404.0" y1="40" x2="404.0" y2="560"/>
<line x1="40" y1="404.0" x2="560" y2="404.0"/>
<line x1="404.0" y1="40" x2="404.0" y2="560"/>
<line x1="40" y1="404.0" x2="560" y2="404.0"/>
<line x1="404.0" y1="40" x2="404.0" y2="560"/>
<line x1="40" y1="404.0" x2="560" y2="404.0"/>
<line x1="404.0" y1="40" x2="404.0" y2="560"/>
<line x1="40" y1="404.0" x2="560" y2="404.0"/>
<line x1="404.0" y1="40" x2="404.0" y2="560"/>
<line x1="40" y1="404.0" x2="560" y2="404.0"/>
<line x1="404.0" y1="40" x2="404.0" y2="560"/>
<line x1="40" y1="404.0" x2="560" y2="404.0"/>
<line x1="404.0" y1="40" x2="404.0" y2="560"/>
<line x1="40" y1="404.0" x2="560" y2="404.0"/>
<line x1="404.0" y1="40" x2="404.0" y2="560"/>
<line x1="40" y1="404.0" x2="560" y2="404.0"/>
<line x1="404.0" y1="40" x2="404.0" y2="560"/>
<line x1="40" y1="404.0" x2="560" y2="404.0"/>
<line x1="404.0" y1="40" x2="404.0" y2="560"/>
<line x1="40" y1="404.0" x2="560" y2="404.0"/>
<line x1="404.0" y1="40" x2="404.0" y2="560"/>
<line x1="40" y1="404.0" x2="560" y2="404.0"/>
<line x1="404.0" y1="40" x2="404.0" y2="560"/>
<line x1="40" y1="404.0" x2="560" y2="404.0"/>
<text x="417.0" y="580" text-anchor="middle" dominant-baseline="central">O</text>
<text x="20" y="183.0" text-anchor="middle" dominant-baseline="central">15</text>
<line x1="430.0" y1="40" x2="430.0" y2="560"/>
<line x1="40" y1="430.0" x2="560" y2="430.0"/>
<line x1="430.0" y1="40" x2="430.0" y2="560"/>
<line x1="40" y1="430.0" x2="560" y2="430.0"/>
<line x1="430.0" y1="40" x2="430.0" y2="560"/>
<line x1="40" y1="430.0" x2="560" y2="430.0"/>
<line x1="430.0" y1="40" x2="430.0" y2="560"/>
<line x1="40" y1="430.0" x2="560" y2="430.0"/>
<line x1="430.0" y1="40" x2="430.0" y2="560"/>
<line x1="40" y1="430.0" x2="560" y2="430.0"/>
<line x1="430.0" y1="40" x2="430.0" y2="560"/>
<line x1="40" y1="430.0" x2="560" y2="430.0"/>
<line x1="430.0" y1="40" x2="430.0" y2="560"/>
<line x1="40" y1="430.0" x2="560" y2="430.0"/>
<line x1="430.0" y1="40" x2="430.0" y2="560"/>
<line x1="40" y1="430.0" x2="560" y2="430.0"/>
<line x1="430.0" y1="40" x2="430.0" y2="560"/>
<line x1="40" y1="430.0" x2="560" y2="430.0"/>
<line x1="430.0" y1="40" x2="430.0" y2="560"/>
<line x1="40" y1="430.0" x2="560" y2="430.0"/>
<line x1="430.0" y1="40" x2="430.0" y2="560"/>
<line x1="40" y1="430.0" x2="560" y2="430.0"/>
<line x1="430.0" y1="40" x2="430.0" y2="560"/>
<line x1="40" y1="430.0" x2="560" y2="430.0"/>
<line x1="430.0" y1="40" x2="430.0" y2="560"/>
<line x1="40" y1="430.0" x2="560" y2="430.0"/>
<line x1="430.0" y1="40" x2="430.0" y2="560"/>
<line x1="40" y1="430.0" x2="560" y2="430.0"/>
<line x1="430.0" y1="40" x2="430.0" y2="560"/>
<line x1="40" y1="430.0" x2="560" y2="430.0"/>
<line x1="430.0" y1="40" x2="430.0" y2="560"/>
<line x1="40" y1="430.0" x2="560" y2="430.0"/>
<line x1="430.0" y1="40" x2="430.0" y2="560"/>
<line x1="40" y1="430.0" x2="560" y2="430.0"/>
<line x1="430.0" y1="40" x2="430.0" y2="560"/>
<line x1="40" y1="430.0" x2="560" y2="430.0"/>
<line x1="430.0" y1="40" x2="430.0" y2="560"/>
<line x1="40" y1="430.0" x2="560" y2="430.0"/>
<line x1="430.0" y1="40" x2="430.0" y2="560"/>
<line x1="40" y1="430.0" x2="560" y2="430.0"/>
<line x1="430.0" y1="40" x2="430.0" y2="560"/>
<line x1="40" y1="430.0" x2="560" y2="430.0"/>
<text x="443.0" y="580" text-anchor="middle" dominant-baseline="central">P</text>
<text x="20" y="157.0" text-anchor="middle" dominant-baseline="central">16</text>
<line x1="456.0" y1="40" x2="456.0" y2="560"/>
<line x1="40" y1="456.0" x2="560" y2="456.0"/>
<line x1="456.0" y1="40" x2="456.0" y2="560"/>
<line x1="40" y1="456.0" x2="560" y2="456.0"/>
<line x1="456.0" y1="40" x2="456.0" y2="560"/>
<line x1="40" y1="456.0" x2="560" y2="456.0"/>
<line x1="456.0" y1="40" x2="456.0" y2="560"/>
<line x1="40" y1="456.0" x2="560" y2="456.0"/>
<line x1="456.0" y1="40" x2="456.0" y2="560"/>
<line x1="40" y1="456.0" x2="560" y2="456.0"/>
<line x1="456.0" y1="40" x2="456.0" y2="560"/>
<line x1="40" y1="456.0" x2="560" y2="456.0"/>
<line x1="456.0" y1="40" x2="456.0" y2="560"/>
<line x1="40" y1="456.0" x2="560" y2="456.0"/>
<line x1="456.0" y1="40" x2="456.0" y2="560"/>
<line x1="40" y1="456.0" x2="560" y2="456.0"/>
<line x1="456.0" y1="40" x2="456.0" y2="560"/>
<line x1="40" y1="456.0" x2="560" y2="456.0"/>
<line x1="456.0" y1="40" x2="456.0" y2="560"/>
<line x1="40" y1="456.0" x2="560" y2="456.0"/>
<line x1="456.0" y1="40" x2="456.0" y2="560"/>
<line x1="40" y1="456.0" x2="560" y2="456.0"/>
<line x1="456.0" y1="40" x2="456.0" y2="560"/>
<line x1="40" y1="456.0" x2="560" y2="456.0"/>
<line x1="456.0" y1="40" x2="456.0" y2="560"/>
<line x1="40" y1="456.0" x2="560" y2="456.0"/>
<line x1="456.0" y1="40" x2="456.0" y2="560"/>
<line x1="40" y1="456.0" x2="560" y2="456.0"/>
<line x1="456.0" y1="40" x2="456.0" y2="560"/>
<line x1="40" y1="456.0" x2="560" y2="456.0"/>
<line x1="456.0" y1="40" x2="456.0" y2="560"/>
<line x1="40" y1="456.0" x2="560" y2="456.0"/>
<line x1="456.0" y1="40" x2="456.0" y2="560"/>
<line x1="40" y1="456.0" x2="560" y2="456.0"/>
<line x1="456.0" y1="40" x2="456.0" y2="560"/>
<line x1="40" y1="456.0" x2="560" y2="456.0"/>
<line x1="456.0" y1="40" x2="456.0" y2="560"/>
<line x1="40" y1="456.0" x2="560" y2="456.0"/>
<line x1="456.0" y1="40" x2="456.0" y2="560"/>
<line x1="40" y1="456.0" x2="560" y2="456.0"/>
<line x1="456.0" y1="40" x2="456.0" y2="560"/>
<line x1="40" y1="456.0" x2="560" y2="456.0"/>
<text x="469.0" y="580" text-anchor="middle" dominant-baseline="central">Q</text>
<text x="20" y="131.0" text-anchor="middle" dominant-baseline="central">17</text>
<line x1="482.0" y1="40" x2="482.0" y2="560"/>
<line x1="40" y1="482.0" x2="560" y2="482.0"/>
<line x1="482.0" y1="40" x2="482.0" y2="560"/>
<line x1="40" y1="482.0" x2="560" y2="482.0"/>
<line x1="482.0" y1="40" x2="482.0" y2="560"/>
<line x1="40" y1="482.0" x2="560" y2="482.0"/>
<line x1="482.0" y1="40" x2="482.0" y2="560"/>
<line x1="40" y1="482.0" x2="560" y2="482.0"/>
<line x1="482.0" y1="40" x2="482.0" y2="560"/>
<line x1="40" y1="482.0" x2="560" y2="482.0"/>
<line x1="482.0" y1="40" x2="482.0" y2="560"/>
<line x1="40" y1="482.0" x2="560" y2="482.0"/>
<line x1="482.0" y1="40" x2="482.0" y2="560"/>
<line x1="40" y1="482.0" x2="560" y2="482.0"/>
<line x1="482.0" y1="40" x2="482.0" y2="560"/>
<line x1="40" y1="482.0" x2="560" y2="482.0"/>
<line x1="482.0" y1="40" x2="482.0" y2="560"/>
<line x1="40" y1="482.0" x2="560" y2="482.0"/>
<line x1="482.0" y1="40" x2="482.0" y2="560"/>
<line x1="40" y1="482.0" x2="560" y2="482.0"/>
<line x1="482.0" y1="40" x2="482.0" y2="560"/>
<line x1="40" y1="482.0" x2="560" y2="482.0"/>
<line x1="482.0" y1="40" x2="482.0" y2="560"/>
<line x1="40" y1="482.0" x2="560" y2="482.0"/>
<line x1="482.0" y1="40" x2="482.0" y2="560"/>
<line x1="40" y1="482.0" x2="560" y2="482.0"/>
<line x1="482.0" y1="40" x2="482.0" y2="560"/>
<line x1="40" y1="482.0" x2="560" y2="482.0"/>
<line x1="482.0" y1="40" x2="482.0" y2="560"/>
<line x1="40" y1="482.0" x2="560" y2="482.0"/>
<line x1="482.0" y1="40" x2="482.0" y2="560"/>
<line x1="40" y1="482.0" x2="560" y2="482.0"/>
<line x1="482.0" y1="40" x2="482.0" y2="560"/>
<line x1="40" y1="482.0" x2="560" y2="482.0"/>
<line x1="482.0" y1="40" x2="482.0" y2="560"/>
<line x1="40" y1="482.0" x2="560" y2="482.0"/>
<line x1="482.0" y1="40" x2="482.0" y2="560"/>
<line x1="40" y1="482.0" x2="560" y2="482.0"/>
<line x1="482.0" y1="40" x2="482.0" y2="560"/>
<line x1="40" y1="482.0" x2="560" y2="482.0"/>
<line x1="482.0" y1="40" x2="482.0" y2="560"/>
<line x1="40" y1="482.0" x2="560" y2="482.0"/>
<text x="495.0" y="580" text-anchor="middle" dominant-baseline="central">R</text>
<text x="20" y="105.0" text-anchor="middle" dominant-baseline="central">18</text>
<line x1="508.0" y1="40" x2="508.0" y2="560"/>
<line x1="40" y1="508.0" x2="560" y2="508.0"/>
<line x1="508.0" y1="40" x2="508.0" y2="560"/>
<line x1="40" y1="508.0" x2="560" y2="508.0"/>
<line x1="508.0" y1="40" x2="508.0" y2="560"/>
<line x1="40" y1="508.0" x2="560" y2="508.0"/>
<line x1="508.0" y1="40" x2="508.0" y2="560"/>
<line x1="40" y1="508.0" x2="560" y2="508.0"/>
<line x1="508.0" y1="40" x2="508.0" y2="560"/>
<line x1="40" y1="508.0" x2="560" y2="508.0"/>
<line x1="508.0" y1="40" x2="508.0" y2="560"/>
<line x1="40" y1="508.0" x2="560" y2="508.0"/>
<line x1="508.0" y1="40" x2="508.0" y2="560"/>
<line x1="40" y1="508.0" x2="560" y2="508.0"/>
<line x1="508.0" y1="40" x2="508.0" y2="560"/>
<line x1="40" y1="508.0" x2="560" y2="508.0"/>
<line x1="508.0" y1="40" x2="508.0" y2="560"/>
<line x1="40" y1="508.0" x2="560" y2="508.0"/>
<line x1="508.0" y1="40" x2="508.0" y2="560"/>
<line x1="40" y1="508.0" x2="560" y2="508.0"/>
<line x1="508.0" y1="40" x2="508.0" y2="560"/>
<line x1="40" y1="508.0" x2="560" y2="508.0"/>
<line x1="508.0" y1="40" x2="508.0" y2="560"/>
<line x1="40" y1="508.0" x2="560" y2="508.0"/>
<line x1="508.0" y1="40" x2="508.0" y2="560"/>
<line x1="40" y1="508.0" x2="560" y2="508.0"/>
<line x1="508.0" y1="40" x2="508.0" y2="560"/>
<line x1="40" y1="508.0" x2="560" y2="508.0"/>
<line x1="508.0" y1="40" x2="508.0" y2="560"/>
<line x1="40" y1="508.0" x2="560" y2="508.0"/>
<line x1="508.0" y1="40" x2="508.0" y2="560"/>
<line x1="40" y1="508.0" x2="560" y2="508.0"/>
<line x1="508.0" y1="40" x2="508.0" y2="560"/>
<line x1="40" y1="508.0" x2="560" y2="508.0"/>
<line x1="508.0" y1="40" x2="508.0" y2="560"/>
<line x1="40" y1="508.0" x2="560" y2="508.0"/>
<line x1="508.0" y1="40" x2="508.0" y2="560"/>
<line x1="40" y1="508.0" x2="560" y2="508.0"/>
<line x1="508.0" y1="40" x2="508.0" y2="560"/>
<line x1="40" y1="508.0" x2="560" y2="508.0"/>
<line x1="508.0" y1="40" x2="508.0" y2="560"/>
<line x1="40" y1="508.0" x2="560" y2="508.0"/>
<text x="521.0" y="580" text-anchor="middle" dominant-baseline="central">S</text>
<text x="20" y="79.0" text-anchor="middle" dominant-baseline="central">19</text>
<line x1="534.0" y1="40" x2="534.0" y2="560"/>
<line x1="40" y1="534.0" x2="560" y2="534.0"/>
<line x1="534.0" y1="40" x2="534.0" y2="560"/>
<line x1="40" y1="534.0" x2="560" y2="534.0"/>
<line x1="534.0" y1="40" x2="534.0" y2="560"/>
<line x1="40" y1="534.0" x2="560" y2="534.0"/>
<line x1="534.0" y1="40" x2="534.0" y2="560"/>
<line x1="40" y1="534.0" x2="560" y2="534.0"/>
<line x1="534.0" y1="40" x2="534.0" y2="560"/>
<line x1="40" y1="534.0" x2="560" y2="534.0"/>
<line x1="534.0" y1="40" x2="534.0" y2="560"/>
<line x1="40" y1="534.0" x2="560" y2="534.0"/>
<line x1="534.0" y1="40" x2="534.0" y2="560"/>
<line x1="40" y1="534.0" x2="560" y2="534.0"/>
<line x1="534.0" y1="40" x2="534.0" y2="560"/>
<line x1="40" y1="534.0" x2="560" y2="534.0"/>
<line x1="534.0" y1="40" x2="534.0" y2="560"/>
<line x1="40" y1="534.0" x2="560" y2="534.0"/>
<line x1="534.0" y1="40" x2="534.0" y2="560"/>
<line x1="40" y1="534.0" x2="560" y2="534.0"/>
<line x1="534.0" y1="40" x2="534.0" y2="560"/>
<line x1="40" y1="534.0" x2="560" y2="534.0"/>
<line x1="534.0" y1="40" x2="534.0" y2="560"/>
<line x1="40" y1="534.0" x2="560" y2="534.0"/>
<line x1="534.0" y1="40" x2="534.0" y2="560"/>
<line x1="40" y1="534.0" x2="560" y2="534.0"/>
<line x1="534.0" y1="40" x2="534.0" y2="560"/>
<line x1="40" y1="534.0" x2="560" y2="534.0"/>
<line x1="534.0" y1="40" x2="534.0" y2="560"/>
<line x1="40" y1="534.0" x2="560" y2="534.0"/>
<line x1="534.0" y1="40" x2="534.0" y2="560"/>
<line x1="40" y1="534.0" x2="560" y2="534.0"/>
<line x1="534.0" y1="40" x2="534.0" y2="560"/>
<line x1="40" y1="534.0" x2="560" y2="534.0"/>
<line x1="534.0" y1="40" x2="534.0" y2="560"/>
<line x1="40" y1="534.0" x2="560" y2="534.0"/>
<line x1="534.0" y1="40" x2="534.0" y2="560"/>
<line x1="40" y1="534.0" x2="560" y2="534.0"/>
<line x1="534.0" y1="40" x2="534.0" y2="560"/>
<line x1="40" y1="534.0" x2="560" y2="534.0"/>
<line x1="534.0" y1="40" x2="534.0" y2="560"/>
<line x1="40" y1="534.0" x2="560" y2="534.0"/>
<text x="547.0" y="580" text-anchor="middle" dominant-baseline="central">T</text>
<text x="20" y="53.0" text-anchor="middle" dominant-baseline="central">20</text>
<line x1="560.0" y1="40" x2="560.0" y2="560"/>
<line x1="40" y1="560.0" x2="560" y2="560.0"/>
<line x1="560.0" y1="40" x2="560.0" y2="560"/>
<line x1="40" y1="560.0" x2="560" y2="560.0"/>
<line x1="560.0" y1="40" x2="560.0" y2="560"/>
<line x1="40" y1="560.0" x2="560" y2="560.0"/>
<line x1="560.0" y1="40" x2="560.0" y2="560"/>
<line x1="40" y1="560.0" x2="560" y2="560.0"/>
<line x1="560.0" y1="40" x2="560.0" y2="560"/>
<line x1="40" y1="560.0" x2="560" y2="560.0"/>
<line x1="560.0" y1="40" x2="560.0" y2="560"/>
<line x1="40" y1="560.0" x2="560" y2="560.0"/>
<line x1="560.0" y1="40" x2="560.0" y2="560"/>
<line x1="40" y1="560.0" x2="560" y2="560.0"/>
<line x1="560.0" y1="40" x2="560.0" y2="560"/>
<line x1="40" y1="560.0" x2="560" y2="560.0"/>
<line x1="560.0" y1="40" x2="560.0" y2="560"/>
<line x1="40" y1="560.0" x2="560" y2="560.0"/>
<line x1="560.0" y1="40" x2="560.0" y2="560"/>
<line x1="40" y1="560.0" x2="560" y2="560.0"/>
<line x1="560.0" y1="40" x2="560.0" y2="560"/>
<line x1="40" y1="560.0" x2="560" y2="560.0"/>
<line x1="560.0" y1="40" x2="560.0" y2="560"/>
<line x1="40" y1="560.0" x2="560" y2="560.0"/>
<line x1="560.0" y1="40" x2="560.0" y2="560"/>
<line x1="40" y1="560.0" x2="560" y2="560.0"/>
<line x1="560.0" y1="40" x2="560.0" y2="560"/>
<line x1="40" y1="560.0" x2="560" y2="560.0"/>
<line x1="560.0" y1="40" x2="560.0" y2="560"/>
<line x1="40" y1="560.0" x2="560" y2="560.0"/>
<line x1="560.0" y1="40" x2="560.0" y2="560"/>
<line x1="40" y1="560.0" x2="560" y2="560.0"/>
<line x1="560.0" y1="40" x2="560.0" y2="560"/>
<line x1="40" y1="560.0" x2="560" y2="560.0"/>
<line x1="560.0" y1="40" x2="560.0" y2="560"/>
<line x1="40" y1="560.0" x2="560" y2="560.0"/>
<line x1="560.0" y1="40" x2="560.0" y2="560"/>
<line x1="40" y1="560.0" x2="560" y2="560.0"/>
<line x1="560.0" y1="40" x2="560.0" y2="560"/>
<line x1="40" y1="560.0" x2="560" y2="560.0"/>
<line x1="560.0" y1="40" x2="560.0" y2="560"/>
<line x1="40" y1="560.0" x2="560" y2="560.0"/>
</svg>
