<?xml version="1.0" encoding="utf-8"?>
<svg xmlns="http://www.w3.org/2000/svg"
     xmlns:xlink="http://www.w3.org/1999/xlink" width="600" height="600" >

    <defs>
    <style type="text/css"><![CDATA[

    line {
        stroke-width: 1px;
        stroke: #888;
    }

    ]]></style>
    </defs>
    
<line x1="40.0" y1="40" x2="40.0" y2="560"/>
<line x1="40" y1="40.0" x2="560" y2="40.0"/>
<line x1="40.0" y1="40" x2="40.0" y2="560"/>
<line x1="40" y1="40.0" x2="560" y2="40.0"/>
<line x1="40.0" y1="40" x2="40.0" y2="560"/>
<line x1="40" y1="40.0" x2="560" y2="40.0"/>
<line x1="40.0" y1="40" x2="40.0" y2="560"/>
<line x1="40" y1="40.0" x2="560" y2="40.0"/>
<line x1="40.0" y1="40" x2="40.0" y2="560"/>
<line x1="40" y1="40.0" x2="560" y2="40.0"/>
<line x1="40.0" y1="40" x2="40.0" y2="560"/>
<line x1="40" y1="40.0" x2="560" y2="40.0"/>
<line x1="40.0" y1="40" x2="40.0" y2="560"/>
<line x1="40" y1="40.0" x2="560" y2="40.0"/>
<line x1="40.0" y1="40" x2="40.0" y2="560"/>
<line x1="40" y1="40.0" x2="560" y2="40.0"/>
<line x1="40.0" y1="40" x2="40.0" y2="560"/>
<line x1="40" y1="40.0" x2="560" y2="40.0"/>
<line x1="40.0" y1="40" x2="40.0" y2="560"/>
<line x1="40" y1="40.0" x2="560" y2="40.0"/>
<line x1="40.0" y1="40" x2="40.0" y2="560"/>
<line x1="40" y1="40.0" x2="560" y2="40.0"/>
<line x1="40.0" y1="40" x2="40.0" y2="560"/>
<line x1="40" y1="40.0" x2="560" y2="40.0"/>
<line x1="40.0" y1="40" x2="40.0" y2="560"/>
<line x1="40" y1="40.0" x2="560" y2="40.0"/>
<line x1="40.0" y1="40" x2="40.0" y2="560"/>
<line x1="40" y1="40.0" x2="560" y2="40.0"/>
<line x1="40.0" y1="40" x2="40.0" y2="560"/>
<line x1="40" y1="40.0" x2="560" y2="40.0"/>
<line x1="40.0" y1="40" x2="40.0" y2="560"/>
<line x1="40" y1="40.0" x2="560" y2="40.0"/>
<text x="57.33333333333333" y="580" text-anchor="middle" dominant-baseline="central">A</text>
<text x="20" y="542.6666666666666" text-anchor="middle" dominant-baseline="central">1</text>
<line x1="74.66666666666666" y1="40" x2="74.66666666666666" y2="560"/>
<line x1="40" y1="74.66666666666666" x2="560" y2="74.66666666666666"/>
<line x1="74.66666666666666" y1="40" x2="74.66666666666666" y2="560"/>
<line x1="40" y1="74.66666666666666" x2="560" y2="74.66666666666666"/>
<line x1="74.66666666666666" y1="40" x2="74.66666666666666" y2="560"/>
<line x1="40" y1="74.66666666666666" x2="560" y2="74.66666666666666"/>
<line x1="74.66666666666666" y1="40" x2="74.66666666666666" y2="560"/>
<line x1="40" y1="74.66666666666666" x2="560" y2="74.66666666666666"/>
<line x1="74.66666666666666" y1="40" x2="74.66666666666666" y2="560"/>
<line x1="40" y1="74.66666666666666" x2="560" y2="74.66666666666666"/>
<line x1="74.66666666666666" y1="40" x2="74.66666666666666" y2="560"/>
<line x1="40" y1="74.66666666666666" x2="560" y2="74.66666666666666"/>
<line x1="74.66666666666666" y1="40" x2="74.66666666666666" y2="560"/>
<line x1="40" y1="74.66666666666666" x2="560" y2="74.66666666666666"/>
<line x1="74.66666666666666" y1="40" x2="74.66666666666666" y2="560"/>
<line x1="40" y1="74.66666666666666" x2="560" y2="74.66666666666666"/>
<line x1="74.66666666666666" y1="40" x2="74.66666666666666" y2="560"/>
<line x1="40" y1="74.66666666666666" x2="560" y2="74.66666666666666"/>
<line x1="74.66666666666666" y1="40" x2="74.66666666666666" y2="560"/>
<line x1="40" y1="74.66666666666666" x2="560" y2="74.66666666666666"/>
<line x1="74.66666666666666" y1="40" x2="74.66666666666666" y2="560"/>
<line x1="40" y1="74.66666666666666" x2="560" y2="74.66666666666666"/>
<line x1="74.66666666666666" y1="40" x2="74.66666666666666" y2="560"/>
<line x1="40" y1="74.66666666666666" x2="560" y2="74.66666666666666"/>
<line x1="74.66666666666666" y1="40" x2="74.66666666666666" y2="560"/>
<line x1="40" y1="74.66666666666666" x2="560" y2="74.66666666666666"/>
<line x1="74.66666666666666" y1="40" x2="74.66666666666666" y2="560"/>
<line x1="40" y1="74.66666666666666" x2="560" y2="74.66666666666666"/>
<line x1="74.66666666666666" y1="40" x2="74.66666666666666" y2="560"/>
<line x1="40" y1="74.66666666666666" x2="560" y2="74.66666666666666"/>
<line x1="74.66666666666666" y1="40" x2="74.66666666666666" y2="560"/>
<line x1="40" y1="74.66666666666666" x2="560" y2="74.66666666666666"/>
<text x="92.0" y="580" text-anchor="middle" dominant-baseline="central">B</text>
<text x="20" y="508.0" text-anchor="middle" dominant-baseline="central">2</text>
<line x1="109.33333333333333" y1="40" x2="109.33333333333333" y2="560"/>
<line x1="40" y1="109.33333333333333" x2="560" y2="109.33333333333333"/>
<line x1="109.33333333333333" y1="40" x2="109.33333333333333" y2="560"/>
<line x1="40" y1="109.33333333333333" x2="560" y2="109.33333333333333"/>
<line x1="109.33333333333333" y1="40" x2="109.33333333333333" y2="560"/>
<line x1="40" y1="109.33333333333333" x2="560" y2="109.33333333333333"/>
<line x1="109.33333333333333" y1="40" x2="109.33333333333333" y2="560"/>
<line x1="40" y1="109.33333333333333" x2="560" y2="109.33333333333333"/>
<line x1="109.33333333333333" y1="40" x2="109.33333333333333" y2="560"/>
<line x1="40" y1="109.33333333333333" x2="560" y2="109.33333333333333"/>
<line x1="109.33333333333333" y1="40" x2="109.33333333333333" y2="560"/>
<line x1="40" y1="109.33333333333333" x2="560" y2="109.33333333333333"/>
<line x1="109.33333333333333" y1="40" x2="109.33333333333333" y2="560"/>
<line x1="40" y1="109.33333333333333" x2="560" y2="109.33333333333333"/>
<line x1="109.33333333333333" y1="40" x2="109.33333333333333" y2="560"/>
<line x1="40" y1="109.33333333333333" x2="560" y2="109.33333333333333"/>
<line x1="109.33333333333333" y1="40" x2="109.33333333333333" y2="560"/>
<line x1="40" y1="109.33333333333333" x2="560" y2="109.33333333333333"/>
<line x1="109.33333333333333" y1="40" x2="109.33333333333333" y2="560"/>
<line x1="40" y1="109.33333333333333" x2="560" y2="109.33333333333333"/>
<line x1="109.33333333333333" y1="40" x2="109.33333333333333" y2="560"/>
<line x1="40" y1="109.33333333333333" x2="560" y2="109.33333333333333"/>
<line x1="109.33333333333333" y1="40" x2="109.33333333333333" y2="560"/>
<line x1="40" y1="109.33333333333333" x2="560" y2="109.33333333333333"/>
<line x1="109.33333333333333" y1="40" x2="109.33333333333333" y2="560"/>
<line x1="40" y1="109.33333333333333" x2="560" y2="109.33333333333333"/>
<line x1="109.33333333333333" y1="40" x2="109.33333333333333" y2="560"/>
<line x1="40" y1="109.33333333333333" x2="560" y2="109.33333333333333"/>
<line x1="109.33333333333333" y1="40" x2="109.33333333333333" y2="560"/>
<line x1="40" y1="109.33333333333333" x2="560" y2="109.33333333333333"/>
<line x1="109.33333333333333" y1="40" x2="109.33333333333333" y2="560"/>
<line x1="40" y1="109.33333333333333" x2="560" y2="109.33333333333333"/>
<text x="126.66666666666666" y="580" text-anchor="middle" dominant-baseline="central">C</text>
<text x="20" y="473.33333333333337" text-anchor="middle" dominant-baseline="central">3</text>
<line x1="144.0" y1="40" x2="144.0" y2="560"/>
<line x1="40" y1="144.0" x2="560" y2="144.0"/>
<line x1="144.0" y1="40" x2="144.0" y2="560"/>
<line x1="40" y1="144.0" x2="560" y2="144.0"/>
<line x1="144.0" y1="40" x2="144.0" y2="560"/>
<line x1="40" y1="144.0" x2="560" y2="144.0"/>
<line x1="144.0" y1="40" x2="144.0" y2="560"/>
<line x1="40" y1="144.0" x2="560" y2="144.0"/>
<line x1="144.0" y1="40" x2="144.0" y2="560"/>
<line x1="40" y1="144.0" x2="560" y2="144.0"/>
<line x1="144.0" y1="40" x2="144.0" y2="560"/>
<line x1="40" y1="144.0" x2="560" y2="144.0"/>
<line x1="144.0" y1="40" x2="144.0" y2="560"/>
<line x1="40" y1="144.0" x2="560" y2="144.0"/>
<line x1="144.0" y1="40" x2="144.0" y2="560"/>
<line x1="40" y1="144.0" x2="560" y2="144.0"/>
<line x1="144.0" y1="40" x2="144.0" y2="560"/>
<line x1="40" y1="144.0" x2="560" y2="144.0"/>
<line x1="144.0" y1="40" x2="144.0" y2="560"/>
<line x1="40" y1="144.0" x2="560" y2="144.0"/>
<line x1="144.0" y1="40" x2="144.0" y2="560"/>
<line x1="40" y1="144.0" x2="560" y2="144.0"/>
<line x1="144.0" y1="40" x2="144.0" y2="560"/>
<line x1="40" y1="144.0" x2="560" y2="144.0"/>
<line x1="144.0" y1="40" x2="144.0" y2="560"/>
<line x1="40" y1="144.0" x2="560" y2="144.0"/>
<line x1="144.0" y1="40" x2="144.0" y2="560"/>
<line x1="40" y1="144.0" x2="560" y2="144.0"/>
<line x1="144.0" y1="40" x2="144.0" y2="560"/>
<line x1="40" y1="144.0" x2="560" y2="144.0"/>
<line x1="144.0" y1="40" x2="144.0" y2="560"/>
<line x1="40" y1="144.0" x2="560" y2="144.0"/>
<text x="161.33333333333331" y="580" text-anchor="middle" dominant-baseline="central">D</text>
<text x="20" y="438.6666666666667" text-anchor="middle" dominant-baseline="central">4</text>
<line x1="178.66666666666666" y1="40" x2="178.66666666666666" y2="560"/>
<line x1="40" y1="178.66666666666666" x2="560" y2="178.66666666666666"/>
<line x1="178.66666666666666" y1="40" x2="178.66666666666666" y2="560"/>
<line x1="40" y1="178.66666666666666" x2="560" y2="178.66666666666666"/>
<line x1="178.66666666666666" y1="40" x2="178.66666666666666" y2="560"/>
<line x1="40" y1="178.66666666666666" x2="560" y2="178.66666666666666"/>
<line x1="178.66666666666666" y1="40" x2="178.66666666666666" y2="560"/>
<line x1="40" y1="178.66666666666666" x2="560" y2="178.66666666666666"/>
<line x1="178.66666666666666" y1="40" x2="178.66666666666666" y2="560"/>
<line x1="40" y1="178.66666666666666" x2="560" y2="178.66666666666666"/>
<line x1="178.66666666666666" y1="40" x2="178.66666666666666" y2="560"/>
<line x1="40" y1="178.66666666666666" x2="560" y2="178.66666666666666"/>
<line x1="178.66666666666666" y1="40" x2="178.66666666666666" y2="560"/>
<line x1="40" y1="178.66666666666666" x2="560" y2="178.66666666666666"/>
<line x1="178.66666666666666" y1="40" x2="178.66666666666666" y2="560"/>
<line x1="40" y1="178.66666666666666" x2="560" y2="178.66666666666666"/>
<line x1="178.66666666666666" y1="40" x2="178.66666666666666" y2="560"/>
<line x1="40" y1="178.66666666666666" x2="560" y2="178.66666666666666"/>
<line x1="178.66666666666666" y1="40" x2="178.66666666666666" y2="560"/>
<line x1="40" y1="178.66666666666666" x2="560" y2="178.66666666666666"/>
<line x1="178.66666666666666" y1="40" x2="178.66666666666666" y2="560"/>
<line x1="40" y1="178.66666666666666" x2="560" y2="178.66666666666666"/>
<line x1="178.66666666666666" y1="40" x2="178.66666666666666" y2="560"/>
<line x1="40" y1="178.66666666666666" x2="560" y2="178.66666666666666"/>
<line x1="178.66666666666666" y1="40" x2="178.66666666666666" y2="560"/>
<line x1="40" y1="178.66666666666666" x2="560" y2="178.66666666666666"/>
<line x1="178.66666666666666" y1="40" x2="178.66666666666666" y2="560"/>
<line x1="40" y1="178.66666666666666" x2="560" y2="178.66666666666666"/>
<line x1="178.66666666666666" y1="40" x2="178.66666666666666" y2="560"/>
<line x1="40" y1="178.66666666666666" x2="560" y2="178.66666666666666"/>
<line x1="178.66666666666666" y1="40" x2="178.66666666666666" y2="560"/>
<line x1="40" y1="178.66666666666666" x2="560" y2="178.66666666666666"/>
<text x="196.0" y="580" text-anchor="middle" dominant-baseline="central">E</text>
<text x="20" y="404.0" text-anchor="middle" dominant-baseline="central">5</text>
<line x1="213.33333333333331" y1="40" x2="213.33333333333331" y2="560"/>
<line x1="40" y1="213.33333333333331" x2="560" y2="213.33333333333331"/>
<line x1="213.33333333333331" y1="40" x2="213.33333333333331" y2="560"/>
<line x1="40" y1="213.33333333333331" x2="560" y2="213.33333333333331"/>
<line x1="213.33333333333331" y1="40" x2="213.33333333333331" y2="560"/>
<line x1="40" y1="213.33333333333331" x2="560" y2="213.33333333333331"/>
<line x1="213.33333333333331" y1="40" x2="213.33333333333331" y2="560"/>
<line x1="40" y1="213.33333333333331" x2="560" y2="213.33333333333331"/>
<line x1="213.33333333333331" y1="40" x2="213.33333333333331" y2="560"/>
<line x1="40" y1="213.33333333333331" x2="560" y2="213.33333333333331"/>
<line x1="213.33333333333331" y1="40" x2="213.33333333333331" y2="560"/>
<line x1="40" y1="213.33333333333331" x2="560" y2="213.33333333333331"/>
<line x1="213.33333333333331" y1="40" x2="213.33333333333331" y2="560"/>
<line x1="40" y1="213.33333333333331" x2="560" y2="213.33333333333331"/>
<line x1="213.33333333333331" y1="40" x2="213.33333333333331" y2="560"/>
<line x1="40" y1="213.33333333333331" x2="560" y2="213.33333333333331"/>
<line x1="213.33333333333331" y1="40" x2="213.33333333333331" y2="560"/>
<line x1="40" y1="213.33333333333331" x2="560" y2="213.33333333333331"/>
<line x1="213.33333333333331" y1="40" x2="213.33333333333331" y2="560"/>
<line x1="40" y1="213.33333333333331" x2="560" y2="213.33333333333331"/>
<line x1="213.33333333333331" y1="40" x2="213.33333333333331" y2="560"/>
<line x1="40" y1="213.33333333333331" x2="560" y2="213.33333333333331"/>
<line x1="213.33333333333331" y1="40" x2="213.33333333333331" y2="560"/>
<line x1="40" y1="213.33333333333331" x2="560" y2="213.33333333333331"/>
<line x1="213.33333333333331" y1="40" x2="213.33333333333331" y2="560"/>
<line x1="40" y1="213.33333333333331" x2="560" y2="213.33333333333331"/>
<line x1="213.33333333333331" y1="40" x2="213.33333333333331" y2="560"/>
<line x1="40" y1="213.33333333333331" x2="560" y2="213.33333333333331"/>
<line x1="213.33333333333331" y1="40" x2="213.33333333333331" y2="560"/>
<line x1="40" y1="213.33333333333331" x2="560" y2="213.33333333333331"/>
<line x1="213.33333333333331" y1="40" x2="213.33333333333331" y2="560"/>
<line x1="40" y1="213.33333333333331" x2="560" y2="213.33333333333331"/>
<text x="230.66666666666666" y="580" text-anchor="middle" dominant-baseline="central">F</text>
<text x="20" y="369.33333333333337" text-anchor="middle" dominant-baseline="central">6</text>
<line x1="248.0" y1="40" x2="248.0" y2="560"/>
<line x1="40" y1="248.0" x2="560" y2="248.0"/>
<line x1="248.0" y1="40" x2="248.0" y2="560"/>
<line x1="40" y1="248.0" x2="560" y2="248.0"/>
<line x1="248.0" y1="40" x2="248.0" y2="560"/>
<line x1="40" y1="248.0" x2="560" y2="248.0"/>
<line x1="248.0" y1="40" x2="248.0" y2="560"/>
<line x1="40" y1="248.0" x2="560" y2="248.0"/>
<line x1="248.0" y1="40" x2="248.0" y2="560"/>
<line x1="40" y1="248.0" x2="560" y2="248.0"/>
<line x1="248.0" y1="40" x2="248.0" y2="560"/>
<line x1="40" y1="248.0" x2="560" y2="248.0"/>
<line x1="248.0" y1="40" x2="248.0" y2="560"/>
<line x1="40" y1="248.0" x2="560" y2="248.0"/>
<line x1="248.0" y1="40" x2="248.0" y2="560"/>
<line x1="40" y1="248.0" x2="560" y2="248.0"/>
<line x1="248.0" y1="40" x2="248.0" y2="560"/>
<line x1="40" y1="248.0" x2="560" y2="248.0"/>
<line x1="248.0" y1="40" x2="248.0" y2="560"/>
<line x1="40" y1="248.0" x2="560" y2="248.0"/>
<line x1="248.0" y1="40" x2="248.0" y2="560"/>
<line x1="40" y1="248.0" x2="560" y2="248.0"/>
<line x1="248.0" y1="40" x2="248.0" y2="560"/>
<line x1="40" y1="248.0" x2="560" y2="248.0"/>
<line x1="248.0" y1="40" x2="248.0" y2="560"/>
<line x1="40" y1="248.0" x2="560" y2="248.0"/>
<line x1="248.0" y1="40" x2="248.0" y2="560"/>
<line x1="40" y1="248.0" x2="560" y2="248.0"/>
<line x1="248.0" y1="40" x2="248.0" y2="560"/>
<line x1="40" y1="248.0" x2="560" y2="248.0"/>
<line x1="248.0" y1="40" x2="248.0" y2="560"/>
<line x1="40" y1="248.0" x2="560" y2="248.0"/>
<text x="265.3333333333333" y="580" text-anchor="middle" dominant-baseline="central">G</text>
<text x="20" y="334.6666666666667" text-anchor="middle" dominant-baseline="central">7</text>
<line x1="282.66666666666663" y1="40" x2="282.66666666666663" y2="560"/>
<line x1="40" y1="282.66666666666663" x2="560" y2="282.66666666666663"/>
<line x1="282.66666666666663" y1="40" x2="282.66666666666663" y2="560"/>
<line x1="40" y1="282.66666666666663" x2="560" y2="282.66666666666663"/>
<line x1="282.66666666666663" y1="40" x2="282.66666666666663" y2="560"/>
<line x1="40" y1="282.66666666666663" x2="560" y2="282.66666666666663"/>
<line x1="282.66666666666663" y1="40" x2="282.66666666666663" y2="560"/>
<line x1="40" y1="282.66666666666663" x2="560" y2="282.66666666666663"/>
<line x1="282.66666666666663" y1="40" x2="282.66666666666663" y2="560"/>
<line x1="40" y1="282.66666666666663" x2="560" y2="282.66666666666663"/>
<line x1="282.66666666666663" y1="40" x2="282.66666666666663" y2="560"/>
<line x1="40" y1="282.66666666666663" x2="560" y2="282.66666666666663"/>
<line x1="282.66666666666663" y1="40" x2="282.66666666666663" y2="560"/>
<line x1="40" y1="282.66666666666663" x2="560" y2="282.66666666666663"/>
<line x1="282.66666666666663" y1="40" x2="282.66666666666663" y2="560"/>
<line x1="40" y1="282.66666666666663" x2="560" y2="282.66666666666663"/>
<line x1="282.66666666666663" y1="40" x2="282.66666666666663" y2="560"/>
<line x1="40" y1="282.66666666666663" x2="560" y2="282.66666666666663"/>
<line x1="282.66666666666663" y1="40" x2="282.66666666666663" y2="560"/>
<line x1="40" y1="282.66666666666663" x2="560" y2="282.66666666666663"/>
<line x1="282.66666666666663" y1="40" x2="282.66666666666663" y2="560"/>
<line x1="40" y1="282.66666666666663" x2="560" y2="282.66666666666663"/>
<line x1="282.66666666666663" y1="40" x2="282.66666666666663" y2="560"/>
<line x1="40" y1="282.66666666666663" x2="560" y2="282.66666666666663"/>
<line x1="282.66666666666663" y1="40" x2="282.66666666666663" y2="560"/>
<line x1="40" y1="282.66666666666663" x2="560" y2="282.66666666666663"/>
<line x1="282.66666666666663" y1="40" x2="282.66666666666663" y2="560"/>
<line x1="40" y1="282.66666666666663" x2="560" y2="282.66666666666663"/>
<line x1="282.66666666666663" y1="40" x2="282.66666666666663" y2="560"/>
<line x1="40" y1="282.66666666666663" x2="560" y2="282.66666666666663"/>
<line x1="282.66666666666663" y1="40" x2="282.66666666666663" y2="560"/>
<line x1="40" y1="282.66666666666663" x2="560" y2="282.66666666666663"/>
<text x="300.0" y="580" text-anchor="middle" dominant-baseline="central">H</text>
<text x="20" y="300.0" text-anchor="middle" dominant-baseline="central">8</text>
<line x1="317.3333333333333" y1="40" x2="317.3333333333333" y2="560"/>
<line x1="40" y1="317.3333333333333" x2="560" y2="317.3333333333333"/>
<line x1="317.3333333333333" y1="40" x2="317.3333333333333" y2="560"/>
<line x1="40" y1="317.3333333333333" x2="560" y2="317.3333333333333"/>
<line x1="317.3333333333333" y1="40" x2="317.3333333333333" y2="560"/>
<line x1="40" y1="317.3333333333333" x2="560" y2="317.3333333333333"/>
<line x1="317.3333333333333" y1="40" x2="317.3333333333333" y2="560"/>
<line x1="40" y1="317.3333333333333" x2="560" y2="317.3333333333333"/>
<line x1="317.3333333333333" y1="40" x2="317.3333333333333" y2="560"/>
<line x1="40" y1="317.3333333333333" x2="560" y2="317.3333333333333"/>
<line x1="317.3333333333333" y1="40" x2="317.3333333333333" y2="560"/>
<line x1="40" y1="317.3333333333333" x2="560" y2="317.3333333333333"/>
<line x1="317.3333333333333" y1="40" x2="317.3333333333333" y2="560"/>
<line x1="40" y1="317.3333333333333" x2="560" y2="317.3333333333333"/>
<line x1="317.3333333333333" y1="40" x2="317.3333333333333" y2="560"/>
<line x1="40" y1="317.3333333333333" x2="560" y2="317.3333333333333"/>
<line x1="317.3333333333333" y1="40" x2="317.3333333333333" y2="560"/>
<line x1="40" y1="317.3333333333333" x2="560" y2="317.3333333333333"/>
<line x1="317.3333333333333" y1="40" x2="317.3333333333333" y2="560"/>
<line x1="40" y1="317.3333333333333" x2="560" y2="317.3333333333333"/>
<line x1="317.3333333333333" y1="40" x2="317.3333333333333" y2="560"/>
<line x1="40" y1="317.3333333333333" x2="560" y2="317.3333333333333"/>
<line x1="317.3333333333333" y1="40" x2="317.3333333333333" y2="560"/>
<line x1="40" y1="317.3333333333333" x2="560" y2="317.3333333333333"/>
<line x1="317.3333333333333" y1="40" x2="317.3333333333333" y2="560"/>
<line x1="40" y1="317.3333333333333" x2="560" y2="317.3333333333333"/>
<line x1="317.3333333333333" y1="40" x2="317.3333333333333" y2="560"/>
<line x1="40" y1="317.3333333333333" x2="560" y2="317.3333333333333"/>
<line x1="317.3333333333333" y1="40" x2="317.3333333333333" y2="560"/>
<line x1="40" y1="317.3333333333333" x2="560" y2="317.3333333333333"/>
<line x1="317.3333333333333" y1="40" x2="317.3333333333333" y2="560"/>
<line x1="40" y1="317.3333333333333" x2="560" y2="317.3333333333333"/>
<text x="334.66666666666663" y="580" text-anchor="middle" dominant-baseline="central">I</text>
<text x="20" y="265.33333333333337" text-anchor="middle" dominant-baseline="central">9</text>
<line x1="352.0" y1="40" x2="352.0" y2="560"/>
<line x1="40" y1="352.0" x2="560" y2="352.0"/>
<line x1="352.0" y1="40" x2="352.0" y2="560"/>
<line x1="40" y1="352.0" x2="560" y2="352.0"/>
<line x1="352.0" y1="40" x2="352.0" y2="560"/>
<line x1="40" y1="352.0" x2="560" y2="352.0"/>
<line x1="352.0" y1="40" x2="352.0" y2="560"/>
<line x1="40" y1="352.0" x2="560" y2="352.0"/>
<line x1="352.0" y1="40" x2="352.0" y2="560"/>
<line x1="40" y1="352.0" x2="560" y2="352.0"/>
<line x1="352.0" y1="40" x2="352.0" y2="560"/>
<line x1="40" y1="352.0" x2="560" y2="352.0"/>
<line x1="352.0" y1="40" x2="352.0" y2="560"/>
<line x1="40" y1="352.0" x2="560" y2="352.0"/>
<line x1="352.0" y1="40" x2="352.0" y2="560"/>
<line x1="40" y1="352.0" x2="560" y2="352.0"/>
<line x1="352.0" y1="40" x2="352.0" y2="560"/>
<line x1="40" y1="352.0" x2="560" y2="352.0"/>
<line x1="352.0" y1="40" x2="352.0" y2="560"/>
<line x1="40" y1="352.0" x2="560" y2="352.0"/>
<line x1="352.0" y1="40" x2="352.0" y2="560"/>
<line x1="40" y1="352.0" x2="560" y2="352.0"/>
<line x1="352.0" y1="40" x2="352.0" y2="560"/>
<line x1="40" y1="352.0" x2="560" y2="352.0"/>
<line x1="352.0" y1="40" x2="352.0" y2="560"/>
<line x1="40" y1="352.0" x2="560" y2="352.0"/>
<line x1="352.0" y1="40" x2="352.0" y2="560"/>
<line x1="40" y1="352.0" x2="560" y2="352.0"/>
<line x1="352.0" y1="40" x2="352.0" y2="560"/>
<line x1="40" y1="352.0" x2="560" y2="352.0"/>
<line x1="352.0" y1="40" x2="352.0" y2="560"/>
<line x1="40" y1="352.0" x2="560" y2="352.0"/>
<text x="369.3333333333333" y="580" text-anchor="middle" dominant-baseline="central">J</text>
<text x="20" y="230.66666666666669" text-anchor="middle" dominant-baseline="central">10</text>
<line x1="386.66666666666663" y1="40" x2="386.66666666666663" y2="560"/>
<line x1="40" y1="386.66666666666663" x2="560" y2="386.66666666666663"/>
<line x1="386.66666666666663" y1="40" x2="386.66666666666663" y2="560"/>
<line x1="40" y1="386.66666666666663" x2="560" y2="386.66666666666663"/>
<line x1="386.66666666666663" y1="40" x2="386.66666666666663" y2="560"/>
<line x1="40" y1="386.66666666666663" x2="560" y2="386.66666666666663"/>
<line x1="386.66666666666663" y1="40" x2="386.66666666666663" y2="560"/>
<line x1="40" y1="386.66666666666663" x2="560" y2="386.66666666666663"/>
<line x1="386.66666666666663" y1="40" x2="386.66666666666663" y2="560"/>
<line x1="40" y1="386.66666666666663" x2="560" y2="386.66666666666663"/>
<line x1="386.66666666666663" y1="40" x2="386.66666666666663" y2="560"/>
<line x1="40" y1="386.66666666666663" x2="560" y2="386.66666666666663"/>
<line x1="386.66666666666663" y1="40" x2="386.66666666666663" y2="560"/>
<line x1="40" y1="386.66666666666663" x2="560" y2="386.66666666666663"/>
<line x1="386.66666666666663" y1="40" x2="386.66666666666663" y2="560"/>
<line x1="40" y1="386.66666666666663" x2="560" y2="386.66666666666663"/>
<line x1="386.66666666666663" y1="40" x2="386.66666666666663" y2="560"/>
<line x1="40" y1="386.66666666666663" x2="560" y2="386.66666666666663"/>
<line x1="386.66666666666663" y1="40" x2="386.66666666666663" y2="560"/>
<line x1="40" y1="386.66666666666663" x2="560" y2="386.66666666666663"/>
<line x1="386.66666666666663" y1="40" x2="386.66666666666663" y2="560"/>
<line x1="40" y1="386.66666666666663" x2="560" y2="386.66666666666663"/>
<line x1="386.66666666666663" y1="40" x2="386.66666666666663" y2="560"/>
<line x1="40" y1="386.66666666666663" x2="560" y2="386.66666666666663"/>
<line x1="386.66666666666663" y1="40" x2="386.66666666666663" y2="560"/>
<line x1="40" y1="386.66666666666663" x2="560" y2="386.66666666666663"/>
<line x1="386.66666666666663" y1="40" x2="386.66666666666663" y2="560"/>
<line x1="40" y1="386.66666666666663" x2="560" y2="386.66666666666663"/>
<line x1="386.66666666666663" y1="40" x2="386.66666666666663" y2="560"/>
<line x1="40" y1="386.66666666666663" x2="560" y2="386.66666666666663"/>
<line x1="386.66666666666663" y1="40" x2="386.66666666666663" y2="560"/>
<line x1="40" y1="386.66666666666663" x2="560" y2="386.66666666666663"/>
<text x="404.0" y="580" text-anchor="middle" dominant-baseline="central">K</text>
<text x="20" y="196.0" text-anchor="middle" dominant-baseline="central">11</text>
<line x1="421.3333333333333" y1="40" x2="421.3333333333333" y2="560"/>
<line x1="40" y1="421.3333333333333" x2="560" y2="421.3333333333333"/>
<line x1="421.3333333333333" y1="40" x2="421.3333333333333" y2="560"/>
<line x1="40" y1="421.3333333333333" x2="560" y2="421.3333333333333"/>
<line x1="421.3333333333333" y1="40" x2="421.3333333333333" y2="560"/>
<line x1="40" y1="421.3333333333333" x2="560" y2="421.3333333333333"/>
<line x1="421.3333333333333" y1="40" x2="421.3333333333333" y2="560"/>
<line x1="40" y1="421.3333333333333" x2="560" y2="421.3333333333333"/>
<line x1="421.3333333333333" y1="40" x2="421.3333333333333" y2="560"/>
<line x1="40" y1="421.3333333333333" x2="560" y2="421.3333333333333"/>
<line x1="421.3333333333333" y1="40" x2="421.3333333333333" y2="560"/>
<line x1="40" y1="421.3333333333333" x2="560" y2="421.3333333333333"/>
<line x1="421.3333333333333" y1="40" x2="421.3333333333333" y2="560"/>
<line x1="40" y1="421.3333333333333" x2="560" y2="421.3333333333333"/>
<line x1="421.3333333333333" y1="40" x2="421.3333333333333" y2="560"/>
<line x1="40" y1="421.3333333333333" x2="560" y2="421.3333333333333"/>
<line x1="421.3333333333333" y1="40" x2="421.3333333333333" y2="560"/>
<line x1="40" y1="421.3333333333333" x2="560" y2="421.3333333333333"/>
<line x1="421.3333333333333" y1="40" x2="421.3333333333333" y2="560"/>
<line x1="40" y1="421.3333333333333" x2="560" y2="421.3333333333333"/>
<line x1="421.3333333333333" y1="40" x2="421.3333333333333" y2="560"/>
<line x1="40" y1="421.3333333333333" x2="560" y2="421.3333333333333"/>
<line x1="421.3333333333333" y1="40" x2="421.3333333333333" y2="560"/>
<line x1="40" y1="421.3333333333333" x2="560" y2="421.3333333333333"/>
<line x1="421.3333333333333" y1="40" x2="421.3333333333333" y2="560"/>
<line x1="40" y1="421.3333333333333" x2="560" y2="421.3333333333333"/>
<line x1="421.3333333333333" y1="40" x2="421.3333333333333" y2="560"/>
<line x1="40" y1="421.3333333333333" x2="560" y2="421.3333333333333"/>
<line x1="421.3333333333333" y1="40" x2="421.3333333333333" y2="560"/>
<line x1="40" y1="421.3333333333333" x2="560" y2="421.3333333333333"/>
<line x1="421.3333333333333" y1="40" x2="421.3333333333333" y2="560"/>
<line x1="40" y1="421.3333333333333" x2="560" y2="421.3333333333333"/>
<text x="438.66666666666663" y="580" text-anchor="middle" dominant-baseline="central">L</text>
<text x="20" y="161.33333333333337" text-anchor="middle" dominant-baseline="central">12</text>
<line x1="456.0" y1="40" x2="456.0" y2="560"/>
<line x1="40" y1="456.0" x2="560" y2="456.0"/>
<line x1="456.0" y1="40" x2="456.0" y2="560"/>
<line x1="40" y1="456.0" x2="560" y2="456.0"/>
<line x1="456.0" y1="40" x2="456.0" y2="560"/>
<line x1="40" y1="456.0" x2="560" y2="456.0"/>
<line x1="456.0" y1="40" x2="456.0" y2="560"/>
<line x1="40" y1="456.0" x2="560" y2="456.0"/>
<line x1="456.0" y1="40" x2="456.0" y2="560"/>
<line x1="40" y1="456.0" x2="560" y2="456.0"/>
<line x1="456.0" y1="40" x2="456.0" y2="560"/>
<line x1="40" y1="456.0" x2="560" y2="456.0"/>
<line x1="456.0" y1="40" x2="456.0" y2="560"/>
<line x1="40" y1="456.0" x2="560" y2="456.0"/>
<line x1="456.0" y1="40" x2="456.0" y2="560"/>
<line x1="40" y1="456.0" x2="560" y2="456.0"/>
<line x1="456.0" y1="40" x2="456.0" y2="560"/>
<line x1="40" y1="456.0" x2="560" y2="456.0"/>
<line x1="456.0" y1="40" x2="456.0" y2="560"/>
<line x1="40" y1="456.0" x2="560" y2="456.0"/>
<line x1="456.0" y1="40" x2="456.0" y2="560"/>
<line x1="40" y1="456.0" x2="560" y2="456.0"/>
<line x1="456.0" y1="40" x2="456.0" y2="560"/>
<line x1="40" y1="456.0" x2="560" y2="456.0"/>
<line x1="456.0" y1="40" x2="456.0" y2="560"/>
<line x1="40" y1="456.0" x2="560" y2="456.0"/>
<line x1="456.0" y1="40" x2="456.0" y2="560"/>
<line x1="40" y1="456.0" x2="560" y2="456.0"/>
<line x1="456.0" y1="40" x2="456.0" y2="560"/>
<line x1="40" y1="456.0" x2="560" y2="456.0"/>
<line x1="456.0" y1="40" x2="456.0" y2="560"/>
<line x1="40" y1="456.0" x2="560" y2="456.0"/>
<text x="473.3333333333333" y="580" text-anchor="middle" dominant-baseline="central">M</text>
<text x="20" y="126.66666666666669" text-anchor="middle" dominant-baseline="central">13</text>
<line x1="490.66666666666663" y1="40" x2="490.66666666666663" y2="560"/>
<line x1="40" y1="490.66666666666663" x2="560" y2="490.66666666666663"/>
<line x1="490.66666666666663" y1="40" x2="490.66666666666663" y2="560"/>
<line x1="40" y1="490.66666666666663" x2="560" y2="490.66666666666663"/>
<line x1="490.66666666666663" y1="40" x2="490.66666666666663" y2="560"/>
<line x1="40" y1="490.66666666666663" x2="560" y2="490.66666666666663"/>
<line x1="490.66666666666663" y1="40" x2="490.66666666666663" y2="560"/>
<line x1="40" y1="490.66666666666663" x2="560" y2="490.66666666666663"/>
<line x1="490.66666666666663" y1="40" x2="490.66666666666663" y2="560"/>
<line x1="40" y1="490.66666666666663" x2="560" y2="490.66666666666663"/>
<line x1="490.66666666666663" y1="40" x2="490.66666666666663" y2="560"/>
<line x1="40" y1="490.66666666666663" x2="560" y2="490.66666666666663"/>
<line x1="490.66666666666663" y1="40" x2="490.66666666666663" y2="560"/>
<line x1="40" y1="490.66666666666663" x2="560" y2="490.66666666666663"/>
<line x1="490.66666666666663" y1="40" x2="490.66666666666663" y2="560"/>
<line x1="40" y1="490.66666666666663" x2="560" y2="490.66666666666663"/>
<line x1="490.66666666666663" y1="40" x2="490.66666666666663" y2="560"/>
<line x1="40" y1="490.66666666666663" x2="560" y2="490.66666666666663"/>
<line x1="490.66666666666663" y1="40" x2="490.66666666666663" y2="560"/>
<line x1="40" y1="490.66666666666663" x2="560" y2="490.66666666666663"/>
<line x1="490.66666666666663" y1="40" x2="490.66666666666663" y2="560"/>
<line x1="40" y1="490.66666666666663" x2="560" y2="490.66666666666663"/>
<line x1="490.66666666666663" y1="40" x2="490.66666666666663" y2="560"/>
<line x1="40" y1="490.66666666666663" x2="560" y2="490.66666666666663"/>
<line x1="490.66666666666663" y1="40" x2="490.66666666666663" y2="560"/>
<line x1="40" y1="490.66666666666663" x2="560" y2="490.66666666666663"/>
<line x1="490.66666666666663" y1="40" x2="490.66666666666663" y2="560"/>
<line x1="40" y1="490.66666666666663" x2="560" y2="490.66666666666663"/>
<line x1="490.66666666666663" y1="40" x2="490.66666666666663" y2="560"/>
<line x1="40" y1="490.66666666666663" x2="560" y2="490.66666666666663"/>
<line x1="490.66666666666663" y1="40" x2="490.66666666666663" y2="560"/>
<line x1="40" y1="490.66666666666663" x2="560" y2="490.66666666666663"/>
<text x="507.99999999999994" y="580" text-anchor="middle" dominant-baseline="central">N</text>
<text x="20" y="92.00000000000006" text-anchor="middle" dominant-baseline="central">14</text>
<line x1="525.3333333333333" y1="40" x2="525.3333333333333" y2="560"/>
<line x1="40" y1="525.3333333333333" x2="560" y2="525.3333333333333"/>
<line x1="525.3333333333333" y1="40" x2="525.3333333333333" y2="560"/>
<line x1="40" y1="525.3333333333333" x2="560" y2="525.3333333333333"/>
<line x1="525.3333333333333" y1="40" x2="525.3333333333333" y2="560"/>
<line x1="40" y1="525.3333333333333" x2="560" y2="525.3333333333333"/>
<line x1="525.3333333333333" y1="40" x2="525.3333333333333" y2="560"/>
<line x1="40" y1="525.3333333333333" x2="560" y2="525.3333333333333"/>
<line x1="525.3333333333333" y1="40" x2="525.3333333333333" y2="560"/>
<line x1="40" y1="525.3333333333333" x2="560" y2="525.3333333333333"/>
<line x1="525.3333333333333" y1="40" x2="525.3333333333333" y2="560"/>
<line x1="40" y1="525.3333333333333" x2="560" y2="525.3333333333333"/>
<line x1="525.3333333333333" y1="40" x2="525.3333333333333" y2="560"/>
<line x1="40" y1="525.3333333333333" x2="560" y2="525.3333333333333"/>
<line x1="525.3333333333333" y1="40" x2="525.3333333333333" y2="560"/>
<line x1="40" y1="525.3333333333333" x2="560" y2="525.3333333333333"/>
<line x1="525.3333333333333" y1="40" x2="525.3333333333333" y2="560"/>
<line x1="40" y1="525.3333333333333" x2="560" y2="525.3333333333333"/>
<line x1="525.3333333333333" y1="40" x2="525.3333333333333" y2="560"/>
<line x1="40" y1="525.3333333333333" x2="560" y2="525.3333333333333"/>
<line x1="525.3333333333333" y1="40" x2="525.3333333333333" y2="560"/>
<line x1="40" y1="525.3333333333333" x2="560" y2="525.3333333333333"/>
<line x1="525.3333333333333" y1="40" x2="525.3333333333333" y2="560"/>
<line x1="40" y1="525.3333333333333" x2="560" y2="525.3333333333333"/>
<line x1="525.3333333333333" y1="40" x2="525.3333333333333" y2="560"/>
<line x1="40" y1="525.3333333333333" x2="560" y2="525.3333333333333"/>
<line x1="525.3333333333333" y1="40" x2="525.3333333333333" y2="560"/>
<line x1="40" y1="525.3333333333333" x2="560" y2="525.3333333333333"/>
<line x1="525.3333333333333" y1="40" x2="525.3333333333333" y2="560"/>
<line x1="40" y1="525.3333333333333" x2="560" y2="525.3333333333333"/>
<line x1="525.3333333333333" y1="40" x2="525.3333333333333" y2="560"/>
<line x1="40" y1="525.3333333333333" x2="560" y2="525.3333333333333"/>
<text x="542.6666666666666" y="580" text-anchor="middle" dominant-baseline="central">O</text>
<text x="20" y="57.33333333333337" text-anchor="middle" dominant-baseline="central">15</text>
<line x1="560.0" y1="40" x2="560.0" y2="560"/>
<line x1="40" y1="560.0" x2="560" y2="560.0"/>
<line x1="560.0" y1="40" x2="560.0" y2="560"/>
<line x1="40" y1="560.0" x2="560" y2="560.0"/>
<line x1="560.0" y1="40" x2="560.0" y2="560"/>
<line x1="40" y1="560.0" x2="560" y2="560.0"/>
<line x1="560.0" y1="40" x2="560.0" y2="560"/>
<line x1="40" y1="560.0" x2="560" y2="560.0"/>
<line x1="560.0" y1="40" x2="560.0" y2="560"/>
<line x1="40" y1="560.0" x2="560" y2="560.0"/>
<line x1="560.0" y1="40" x2="560.0" y2="560"/>
<line x1="40" y1="560.0" x2="560" y2="560.0"/>
<line x1="560.0" y1="40" x2="560.0" y2="560"/>
<line x1="40" y1="560.0" x2="560" y2="560.0"/>
<line x1="560.0" y1="40" x2="560.0" y2="560"/>
<line x1="40" y1="560.0" x2="560" y2="560.0"/>
<line x1="560.0" y1="40" x2="560.0" y2="560"/>
<line x1="40" y1="560.0" x2="560" y2="560.0"/>
<line x1="560.0" y1="40" x2="560.0" y2="560"/>
<line x1="40" y1="560.0" x2="560" y2="560.0"/>
<line x1="560.0" y1="40" x2="560.0" y2="560"/>
<line x1="40" y1="560.0" x2="560" y2="560.0"/>
<line x1="560.0" y1="40" x2="560.0" y2="560"/>
<line x1="40" y1="560.0" x2="560" y2="560.0"/>
<line x1="560.0" y1="40" x2="560.0" y2="560"/>
<line x1="40" y1="560.0" x2="560" y2="560.0"/>
<line x1="560.0" y1="40" x2="560.0" y2="560"/>
<line x1="40" y1="560.0" x2="560" y2="560.0"/>
<line x1="560.0" y1="40" x2="560.0" y2="560"/>
<line x1="40" y1="560.0" x2="560" y2="560.0"/>
<line x1="560.0" y1="40" x2="560.0" y2="560"/>
<line x1="40" y1="560.0" x2="560" y2="560.0"/>
</svg>
