<?xml version="1.0" encoding="utf-8"?>
<svg xmlns="http://www.w3.org/2000/svg"
     xmlns:xlink="http://www.w3.org/1999/xlink" width="600" height="600" >

    <defs>
    <style type="text/css"><![CDATA[

    line {
        stroke-width: 1px;
        stroke: #888;
    }

    ]]></style>
    </defs>
    
<line x1="40.0" y1="40" x2="40.0" y2="560"/>
<line x1="40" y1="40.0" x2="560" y2="40.0"/>
<line x1="40.0" y1="40" x2="40.0" y2="560"/>
<line x1="40" y1="40.0" x2="560" y2="40.0"/>
<line x1="40.0" y1="40" x2="40.0" y2="560"/>
<line x1="40" y1="40.0" x2="560" y2="40.0"/>
<line x1="40.0" y1="40" x2="40.0" y2="560"/>
<line x1="40" y1="40.0" x2="560" y2="40.0"/>
<line x1="40.0" y1="40" x2="40.0" y2="560"/>
<line x1="40" y1="40.0" x2="560" y2="40.0"/>
<line x1="40.0" y1="40" x2="40.0" y2="560"/>
<line x1="40" y1="40.0" x2="560" y2="40.0"/>
<line x1="40.0" y1="40" x2="40.0" y2="560"/>
<line x1="40" y1="40.0" x2="560" y2="40.0"/>
<line x1="40.0" y1="40" x2="40.0" y2="560"/>
<line x1="40" y1="40.0" x2="560" y2="40.0"/>
<line x1="40.0" y1="40" x2="40.0" y2="560"/>
<line x1="40" y1="40.0" x2="560" y2="40.0"/>
<line x1="40.0" y1="40" x2="40.0" y2="560"/>
<line x1="40" y1="40.0" x2="560" y2="40.0"/>
<line x1="40.0" y1="40" x2="40.0" y2="560"/>
<line x1="40" y1="40.0" x2="560" y2="40.0"/>
<line x1="40.0" y1="40" x2="40.0" y2="560"/>
<line x1="40" y1="40.0" x2="560" y2="40.0"/>
<line x1="40.0" y1="40" x2="40.0" y2="560"/>
<line x1="40" y1="40.0" x2="560" y2="40.0"/>
<line x1="40.0" y1="40" x2="40.0" y2="560"/>
<line x1="40" y1="40.0" x2="560" y2="40.0"/>
<line x1="40.0" y1="40" x2="40.0" y2="560"/>
<line x1="40" y1="40.0" x2="560" y2="40.0"/>
<line x1="40.0" y1="40" x2="40.0" y2="560"/>
<line x1="40" y1="40.0" x2="560" y2="40.0"/>
<line x1="40.0" y1="40" x2="40.0" y2="560"/>
<line x1="40" y1="40.0" x2="560" y2="40.0"/>
<line x1="40.0" y1="40" x2="40.0" y2="560"/>
<line x1="40" y1="40.0" x2="560" y2="40.0"/>
<line x1="40.0" y1="40" x2="40.0" y2="560"/>
<line x1="40" y1="40.0" x2="560" y2="40.0"/>
<line x1="40.0" y1="40" x2="40.0" y2="560"/>
<line x1="40" y1="40.0" x2="560" y2="40.0"/>
<text x="53.68421052631579" y="580" text-anchor="middle" dominant-baseline="central">A</text>
<text x="20" y="546.3157894736842" text-anchor="middle" dominant-baseline="central">1</text>
<line x1="67.36842105263158" y1="40" x2="67.36842105263158" y2="560"/>
<line x1="40" y1="67.36842105263158" x2="560" y2="67.36842105263158"/>
<line x1="67.36842105263158" y1="40" x2="67.36842105263158" y2="560"/>
<line x1="40" y1="67.36842105263158" x2="560" y2="67.36842105263158"/>
<line x1="67.36842105263158" y1="40" x2="67.36842105263158" y2="560"/>
<line x1="40" y1="67.36842105263158" x2="560" y2="67.36842105263158"/>
<line x1="67.36842105263158" y1="40" x2="67.36842105263158" y2="560"/>
<line x1="40" y1="67.36842105263158" x2="560" y2="67.36842105263158"/>
<line x1="67.36842105263158" y1="40" x2="67.36842105263158" y2="560"/>
<line x1="40" y1="67.36842105263158" x2="560" y2="67.36842105263158"/>
<line x1="67.36842105263158" y1="40" x2="67.36842105263158" y2="560"/>
<line x1="40" y1="67.36842105263158" x2="560" y2="67.36842105263158"/>
<line x1="67.36842105263158" y1="40" x2="67.36842105263158" y2="560"/>
<line x1="40" y1="67.36842105263158" x2="560" y2="67.36842105263158"/>
<line x1="67.36842105263158" y1="40" x2="67.36842105263158" y2="560"/>
<line x1="40" y1="67.36842105263158" x2="560" y2="67.36842105263158"/>
<line x1="67.36842105263158" y1="40" x2="67.36842105263158" y2="560"/>
<line x1="40" y1="67.36842105263158" x2="560" y2="67.36842105263158"/>
<line x1="67.36842105263158" y1="40" x2="67.36842105263158" y2="560"/>
<line x1="40" y1="67.36842105263158" x2="560" y2="67.36842105263158"/>
<line x1="67.36842105263158" y1="40" x2="67.36842105263158" y2="560"/>
<line x1="40" y1="67.36842105263158" x2="560" y2="67.36842105263158"/>
<line x1="67.36842105263158" y1="40" x2="67.36842105263158" y2="560"/>
<line x1="40" y1="67.36842105263158" x2="560" y2="67.36842105263158"/>
<line x1="67.36842105263158" y1="40" x2="67.36842105263158" y2="560"/>
<line x1="40" y1="67.36842105263158" x2="560" y2="67.36842105263158"/>
<line x1="67.36842105263158" y1="40" x2="67.36842105263158" y2="560"/>
<line x1="40" y1="67.36842105263158" x2="560" y2="67.36842105263158"/>
<line x1="67.36842105263158" y1="40" x2="67.36842105263158" y2="560"/>
<line x1="40" y1="67.36842105263158" x2="560" y2="67.36842105263158"/>
<line x1="67.36842105263158" y1="40" x2="67.36842105263158" y2="560"/>
<line x1="40" y1="67.36842105263158" x2="560" y2="67.36842105263158"/>
<line x1="67.36842105263158" y1="40" x2="67.36842105263158" y2="560"/>
<line x1="40" y1="67.36842105263158" x2="560" y2="67.36842105263158"/>
<line x1="67.36842105263158" y1="40" x2="67.36842105263158" y2="560"/>
<line x1="40" y1="67.36842105263158" x2="560" y2="67.36842105263158"/>
<line x1="67.36842105263158" y1="40" x2="67.36842105263158" y2="560"/>
<line x1="40" y1="67.36842105263158" x2="560" y2="67.36842105263158"/>
<line x1="67.36842105263158" y1="40" x2="67.36842105263158" y2="560"/>
<line x1="40" y1="67.36842105263158" x2="560" y2="67.36842105263158"/>
<text x="81.05263157894737" y="580" text-anchor="middle" dominant-baseline="central">B</text>
<text x="20" y="518.9473684210526" text-anchor="middle" dominant-baseline="central">2</text>
<line x1="94.73684210526315" y1="40" x2="94.73684210526315" y2="560"/>
<line x1="40" y1="94.73684210526315" x2="560" y2="94.73684210526315"/>
<line x1="94.73684210526315" y1="40" x2="94.73684210526315" y2="560"/>
<line x1="40" y1="94.73684210526315" x2="560" y2="94.73684210526315"/>
<line x1="94.73684210526315" y1="40" x2="94.73684210526315" y2="560"/>
<line x1="40" y1="94.73684210526315" x2="560" y2="94.73684210526315"/>
<line x1="94.73684210526315" y1="40" x2="94.73684210526315" y2="560"/>
<line x1="40" y1="94.73684210526315" x2="560" y2="94.73684210526315"/>
<line x1="94.73684210526315" y1="40" x2="94.73684210526315" y2="560"/>
<line x1="40" y1="94.73684210526315" x2="560" y2="94.73684210526315"/>
<line x1="94.73684210526315" y1="40" x2="94.73684210526315" y2="560"/>
<line x1="40" y1="94.73684210526315" x2="560" y2="94.73684210526315"/>
<line x1="94.73684210526315" y1="40" x2="94.73684210526315" y2="560"/>
<line x1="40" y1="94.73684210526315" x2="560" y2="94.73684210526315"/>
<line x1="94.73684210526315" y1="40" x2="94.73684210526315" y2="560"/>
<line x1="40" y1="94.73684210526315" x2="560" y2="94.73684210526315"/>
<line x1="94.73684210526315" y1="40" x2="94.73684210526315" y2="560"/>
<line x1="40" y1="94.73684210526315" x2="560" y2="94.73684210526315"/>
<line x1="94.73684210526315" y1="40" x2="94.73684210526315" y2="560"/>
<line x1="40" y1="94.73684210526315" x2="560" y2="94.73684210526315"/>
<line x1="94.73684210526315" y1="40" x2="94.73684210526315" y2="560"/>
<line x1="40" y1="94.73684210526315" x2="560" y2="94.73684210526315"/>
<line x1="94.73684210526315" y1="40" x2="94.73684210526315" y2="560"/>
<line x1="40" y1="94.73684210526315" x2="560" y2="94.73684210526315"/>
<line x1="94.73684210526315" y1="40" x2="94.73684210526315" y2="560"/>
<line x1="40" y1="94.73684210526315" x2="560" y2="94.73684210526315"/>
<line x1="94.73684210526315" y1="40" x2="94.73684210526315" y2="560"/>
<line x1="40" y1="94.73684210526315" x2="560" y2="94.73684210526315"/>
<line x1="94.73684210526315" y1="40" x2="94.73684210526315" y2="560"/>
<line x1="40" y1="94.73684210526315" x2="560" y2="94.73684210526315"/>
<line x1="94.73684210526315" y1="40" x2="94.73684210526315" y2="560"/>
<line x1="40" y1="94.73684210526315" x2="560" y2="94.73684210526315"/>
<line x1="94.73684210526315" y1="40" x2="94.73684210526315" y2="560"/>
<line x1="40" y1="94.73684210526315" x2="560" y2="94.73684210526315"/>
<line x1="94.73684210526315" y1="40" x2="94.73684210526315" y2="560"/>
<line x1="40" y1="94.73684210526315" x2="560" y2="94.73684210526315"/>
<line x1="94.73684210526315" y1="40" x2="94.73684210526315" y2="560"/>
<line x1="40" y1="94.73684210526315" x2="560" y2="94.73684210526315"/>
<line x1="94.73684210526315" y1="40" x2="94.73684210526315" y2="560"/>
<line x1="40" y1="94.73684210526315" x2="560" y2="94.73684210526315"/>
<text x="108.42105263157895" y="580" text-anchor="middle" dominant-baseline="central">C</text>
<text x="20" y="491.57894736842104" text-anchor="middle" dominant-baseline="central">3</text>
<line x1="122.10526315789474" y1="40" x2="122.10526315789474" y2="560"/>
<line x1="40" y1="122.10526315789474" x2="560" y2="122.10526315789474"/>
<line x1="122.10526315789474" y1="40" x2="122.10526315789474" y2="560"/>
<line x1="40" y1="122.10526315789474" x2="560" y2="122.10526315789474"/>
<line x1="122.10526315789474" y1="40" x2="122.10526315789474" y2="560"/>
<line x1="40" y1="122.10526315789474" x2="560" y2="122.10526315789474"/>
<line x1="122.10526315789474" y1="40" x2="122.10526315789474" y2="560"/>
<line x1="40" y1="122.10526315789474" x2="560" y2="122.10526315789474"/>
<line x1="122.10526315789474" y1="40" x2="122.10526315789474" y2="560"/>
<line x1="40" y1="122.10526315789474" x2="560" y2="122.10526315789474"/>
<line x1="122.10526315789474" y1="40" x2="122.10526315789474" y2="560"/>
<line x1="40" y1="122.10526315789474" x2="560" y2="122.10526315789474"/>
<line x1="122.10526315789474" y1="40" x2="122.10526315789474" y2="560"/>
<line x1="40" y1="122.10526315789474" x2="560" y2="122.10526315789474"/>
<line x1="122.10526315789474" y1="40" x2="122.10526315789474" y2="560"/>
<line x1="40" y1="122.10526315789474" x2="560" y2="122.10526315789474"/>
<line x1="122.10526315789474" y1="40" x2="122.10526315789474" y2="560"/>
<line x1="40" y1="122.10526315789474" x2="560" y2="122.10526315789474"/>
<line x1="122.10526315789474" y1="40" x2="122.10526315789474" y2="560"/>
<line x1="40" y1="122.10526315789474" x2="560" y2="122.10526315789474"/>
<line x1="122.10526315789474" y1="40" x2="122.10526315789474" y2="560"/>
<line x1="40" y1="122.10526315789474" x2="560" y2="122.10526315789474"/>
<line x1="122.10526315789474" y1="40" x2="122.10526315789474" y2="560"/>
<line x1="40" y1="122.10526315789474" x2="560" y2="122.10526315789474"/>
<line x1="122.10526315789474" y1="40" x2="122.10526315789474" y2="560"/>
<line x1="40" y1="122.10526315789474" x2="560" y2="122.10526315789474"/>
<line x1="122.10526315789474" y1="40" x2="122.10526315789474" y2="560"/>
<line x1="40" y1="122.10526315789474" x2="560" y2="122.10526315789474"/>
<line x1="122.10526315789474" y1="40" x2="122.10526315789474" y2="560"/>
<line x1="40" y1="122.10526315789474" x2="560" y2="122.10526315789474"/>
<line x1="122.10526315789474" y1="40" x2="122.10526315789474" y2="560"/>
<line x1="40" y1="122.10526315789474" x2="560" y2="122.10526315789474"/>
<line x1="122.10526315789474" y1="40" x2="122.10526315789474" y2="560"/>
<line x1="40" y1="122.10526315789474" x2="560" y2="122.10526315789474"/>
<line x1="122.10526315789474" y1="40" x2="122.10526315789474" y2="560"/>
<line x1="40" y1="122.10526315789474" x2="560" y2="122.10526315789474"/>
<line x1="122.10526315789474" y1="40" x2="122.10526315789474" y2="560"/>
<line x1="40" y1="122.10526315789474" x2="560" y2="122.10526315789474"/>
<line x1="122.10526315789474" y1="40" x2="122.10526315789474" y2="560"/>
<line x1="40" y1="122.10526315789474" x2="560" y2="122.10526315789474"/>
<text x="135.78947368421052" y="580" text-anchor="middle" dominant-baseline="central">D</text>
<text x="20" y="464.2105263157895" text-anchor="middle" dominant-baseline="central">4</text>
<line x1="149.4736842105263" y1="40" x2="149.4736842105263" y2="560"/>
<line x1="40" y1="149.4736842105263" x2="560" y2="149.4736842105263"/>
<line x1="149.4736842105263" y1="40" x2="149.4736842105263" y2="560"/>
<line x1="40" y1="149.4736842105263" x2="560" y2="149.4736842105263"/>
<line x1="149.4736842105263" y1="40" x2="149.4736842105263" y2="560"/>
<line x1="40" y1="149.4736842105263" x2="560" y2="149.4736842105263"/>
<line x1="149.4736842105263" y1="40" x2="149.4736842105263" y2="560"/>
<line x1="40" y1="149.4736842105263" x2="560" y2="149.4736842105263"/>
<line x1="149.4736842105263" y1="40" x2="149.4736842105263" y2="560"/>
<line x1="40" y1="149.4736842105263" x2="560" y2="149.4736842105263"/>
<line x1="149.4736842105263" y1="40" x2="149.4736842105263" y2="560"/>
<line x1="40" y1="149.4736842105263" x2="560" y2="149.4736842105263"/>
<line x1="149.4736842105263" y1="40" x2="149.4736842105263" y2="560"/>
<line x1="40" y1="149.4736842105263" x2="560" y2="149.4736842105263"/>
<line x1="149.4736842105263" y1="40" x2="149.4736842105263" y2="560"/>
<line x1="40" y1="149.4736842105263" x2="560" y2="149.4736842105263"/>
<line x1="149.4736842105263" y1="40" x2="149.4736842105263" y2="560"/>
<line x1="40" y1="149.4736842105263" x2="560" y2="149.4736842105263"/>
<line x1="149.4736842105263" y1="40" x2="149.4736842105263" y2="560"/>
<line x1="40" y1="149.4736842105263" x2="560" y2="149.4736842105263"/>
<line x1="149.4736842105263" y1="40" x2="149.4736842105263" y2="560"/>
<line x1="40" y1="149.4736842105263" x2="560" y2="149.4736842105263"/>
<line x1="149.4736842105263" y1="40" x2="149.4736842105263" y2="560"/>
<line x1="40" y1="149.4736842105263" x2="560" y2="149.4736842105263"/>
<line x1="149.4736842105263" y1="40" x2="149.4736842105263" y2="560"/>
<line x1="40" y1="149.4736842105263" x2="560" y2="149.4736842105263"/>
<line x1="149.4736842105263" y1="40" x2="149.4736842105263" y2="560"/>
<line x1="40" y1="149.4736842105263" x2="560" y2="149.4736842105263"/>
<line x1="149.4736842105263" y1="40" x2="149.4736842105263" y2="560"/>
<line x1="40" y1="149.4736842105263" x2="560" y2="149.4736842105263"/>
<line x1="149.4736842105263" y1="40" x2="149.4736842105263" y2="560"/>
<line x1="40" y1="149.4736842105263" x2="560" y2="149.4736842105263"/>
<line x1="149.4736842105263" y1="40" x2="149.4736842105263" y2="560"/>
<line x1="40" y1="149.4736842105263" x2="560" y2="149.4736842105263"/>
<line x1="149.4736842105263" y1="40" x2="149.4736842105263" y2="560"/>
<line x1="40" y1="149.4736842105263" x2="560" y2="149.4736842105263"/>
<line x1="149.4736842105263" y1="40" x2="149.4736842105263" y2="560"/>
<line x1="40" y1="149.4736842105263" x2="560" y2="149.4736842105263"/>
<line x1="149.4736842105263" y1="40" x2="149.4736842105263" y2="560"/>
<line x1="40" y1="149.4736842105263" x2="560" y2="149.4736842105263"/>
<text x="163.1578947368421" y="580" text-anchor="middle" dominant-baseline="central">E</text>
<text x="20" y="436.8421052631579" text-anchor="middle" dominant-baseline="central">5</text>
<line x1="176.8421052631579" y1="40" x2="176.8421052631579" y2="560"/>
<line x1="40" y1="176.8421052631579" x2="560" y2="176.8421052631579"/>
<line x1="176.8421052631579" y1="40" x2="176.8421052631579" y2="560"/>
<line x1="40" y1="176.8421052631579" x2="560" y2="176.8421052631579"/>
<line x1="176.8421052631579" y1="40" x2="176.8421052631579" y2="560"/>
<line x1="40" y1="176.8421052631579" x2="560" y2="176.8421052631579"/>
<line x1="176.8421052631579" y1="40" x2="176.8421052631579" y2="560"/>
<line x1="40" y1="176.8421052631579" x2="560" y2="176.8421052631579"/>
<line x1="176.8421052631579" y1="40" x2="176.8421052631579" y2="560"/>
<line x1="40" y1="176.8421052631579" x2="560" y2="176.8421052631579"/>
<line x1="176.8421052631579" y1="40" x2="176.8421052631579" y2="560"/>
<line x1="40" y1="176.8421052631579" x2="560" y2="176.8421052631579"/>
<line x1="176.8421052631579" y1="40" x2="176.8421052631579" y2="560"/>
<line x1="40" y1="176.8421052631579" x2="560" y2="176.8421052631579"/>
<line x1="176.8421052631579" y1="40" x2="176.8421052631579" y2="560"/>
<line x1="40" y1="176.8421052631579" x2="560" y2="176.8421052631579"/>
<line x1="176.8421052631579" y1="40" x2="176.8421052631579" y2="560"/>
<line x1="40" y1="176.8421052631579" x2="560" y2="176.8421052631579"/>
<line x1="176.8421052631579" y1="40" x2="176.8421052631579" y2="560"/>
<line x1="40" y1="176.8421052631579" x2="560" y2="176.8421052631579"/>
<line x1="176.8421052631579" y1="40" x2="176.8421052631579" y2="560"/>
<line x1="40" y1="176.8421052631579" x2="560" y2="176.8421052631579"/>
<line x1="176.8421052631579" y1="40" x2="176.8421052631579" y2="560"/>
<line x1="40" y1="176.8421052631579" x2="560" y2="176.8421052631579"/>
<line x1="176.8421052631579" y1="40" x2="176.8421052631579" y2="560"/>
<line x1="40" y1="176.8421052631579" x2="560" y2="176.8421052631579"/>
<line x1="176.8421052631579" y1="40" x2="176.8421052631579" y2="560"/>
<line x1="40" y1="176.8421052631579" x2="560" y2="176.8421052631579"/>
<line x1="176.8421052631579" y1="40" x2="176.8421052631579" y2="560"/>
<line x1="40" y1="176.8421052631579" x2="560" y2="176.8421052631579"/>
<line x1="176.8421052631579" y1="40" x2="176.8421052631579" y2="560"/>
<line x1="40" y1="176.8421052631579" x2="560" y2="176.8421052631579"/>
<line x1="176.8421052631579" y1="40" x2="176.8421052631579" y2="560"/>
<line x1="40" y1="176.8421052631579" x2="560" y2="176.8421052631579"/>
<line x1="176.8421052631579" y1="40" x2="176.8421052631579" y2="560"/>
<line x1="40" y1="176.8421052631579" x2="560" y2="176.8421052631579"/>
<line x1="176.8421052631579" y1="40" x2="176.8421052631579" y2="560"/>
<line x1="40" y1="176.8421052631579" x2="560" y2="176.8421052631579"/>
<line x1="176.8421052631579" y1="40" x2="176.8421052631579" y2="560"/>
<line x1="40" y1="176.8421052631579" x2="560" y2="176.8421052631579"/>
<text x="190.52631578947367" y="580" text-anchor="middle" dominant-baseline="central">F</text>
<text x="20" y="409.47368421052636" text-anchor="middle" dominant-baseline="central">6</text>
<line x1="204.21052631578948" y1="40" x2="204.21052631578948" y2="560"/>
<line x1="40" y1="204.21052631578948" x2="560" y2="204.21052631578948"/>
<line x1="204.21052631578948" y1="40" x2="204.21052631578948" y2="560"/>
<line x1="40" y1="204.21052631578948" x2="560" y2="204.21052631578948"/>
<line x1="204.21052631578948" y1="40" x2="204.21052631578948" y2="560"/>
<line x1="40" y1="204.21052631578948" x2="560" y2="204.21052631578948"/>
<line x1="204.21052631578948" y1="40" x2="204.21052631578948" y2="560"/>
<line x1="40" y1="204.21052631578948" x2="560" y2="204.21052631578948"/>
<line x1="204.21052631578948" y1="40" x2="204.21052631578948" y2="560"/>
<line x1="40" y1="204.21052631578948" x2="560" y2="204.21052631578948"/>
<line x1="204.21052631578948" y1="40" x2="204.21052631578948" y2="560"/>
<line x1="40" y1="204.21052631578948" x2="560" y2="204.21052631578948"/>
<line x1="204.21052631578948" y1="40" x2="204.21052631578948" y2="560"/>
<line x1="40" y1="204.21052631578948" x2="560" y2="204.21052631578948"/>
<line x1="204.21052631578948" y1="40" x2="204.21052631578948" y2="560"/>
<line x1="40" y1="204.21052631578948" x2="560" y2="204.21052631578948"/>
<line x1="204.21052631578948" y1="40" x2="204.21052631578948" y2="560"/>
<line x1="40" y1="204.21052631578948" x2="560" y2="204.21052631578948"/>
<line x1="204.21052631578948" y1="40" x2="204.21052631578948" y2="560"/>
<line x1="40" y1="204.21052631578948" x2="560" y2="204.21052631578948"/>
<line x1="204.21052631578948" y1="40" x2="204.21052631578948" y2="560"/>
<line x1="40" y1="204.21052631578948" x2="560" y2="204.21052631578948"/>
<line x1="204.21052631578948" y1="40" x2="204.21052631578948" y2="560"/>
<line x1="40" y1="204.21052631578948" x2="560" y2="204.21052631578948"/>
<line x1="204.21052631578948" y1="40" x2="204.21052631578948" y2="560"/>
<line x1="40" y1="204.21052631578948" x2="560" y2="204.21052631578948"/>
<line x1="204.21052631578948" y1="40" x2="204.21052631578948" y2="560"/>
<line x1="40" y1="204.21052631578948" x2="560" y2="204.21052631578948"/>
<line x1="204.21052631578948" y1="40" x2="204.21052631578948" y2="560"/>
<line x1="40" y1="204.21052631578948" x2="560" y2="204.21052631578948"/>
<line x1="204.21052631578948" y1="40" x2="204.21052631578948" y2="560"/>
<line x1="40" y1="204.21052631578948" x2="560" y2="204.21052631578948"/>
<line x1="204.21052631578948" y1="40" x2="204.21052631578948" y2="560"/>
<line x1="40" y1="204.21052631578948" x2="560" y2="204.21052631578948"/>
<line x1="204.21052631578948" y1="40" x2="204.21052631578948" y2="560"/>
<line x1="40" y1="204.21052631578948" x2="560" y2="204.21052631578948"/>
<line x1="204.21052631578948" y1="40" x2="204.21052631578948" y2="560"/>
<line x1="40" y1="204.21052631578948" x2="560" y2="204.21052631578948"/>
<line x1="204.21052631578948" y1="40" x2="204.21052631578948" y2="560"/>
<line x1="40" y1="204.21052631578948" x2="560" y2="204.21052631578948"/>
<text x="217.89473684210526" y="580" text-anchor="middle" dominant-baseline="central">G</text>
<text x="20" y="382.10526315789474" text-anchor="middle" dominant-baseline="central">7</text>
<line x1="231.57894736842104" y1="40" x2="231.57894736842104" y2="560"/>
<line x1="40" y1="231.57894736842104" x2="560" y2="231.57894736842104"/>
<line x1="231.57894736842104" y1="40" x2="231.57894736842104" y2="560"/>
<line x1="40" y1="231.57894736842104" x2="560" y2="231.57894736842104"/>
<line x1="231.57894736842104" y1="40" x2="231.57894736842104" y2="560"/>
<line x1="40" y1="231.57894736842104" x2="560" y2="231.57894736842104"/>
<line x1="231.57894736842104" y1="40" x2="231.57894736842104" y2="560"/>
<line x1="40" y1="231.57894736842104" x2="560" y2="231.57894736842104"/>
<line x1="231.57894736842104" y1="40" x2="231.57894736842104" y2="560"/>
<line x1="40" y1="231.57894736842104" x2="560" y2="231.57894736842104"/>
<line x1="231.57894736842104" y1="40" x2="231.57894736842104" y2="560"/>
<line x1="40" y1="231.57894736842104" x2="560" y2="231.57894736842104"/>
<line x1="231.57894736842104" y1="40" x2="231.57894736842104" y2="560"/>
<line x1="40" y1="231.57894736842104" x2="560" y2="231.57894736842104"/>
<line x1="231.57894736842104" y1="40" x2="231.57894736842104" y2="560"/>
<line x1="40" y1="231.57894736842104" x2="560" y2="231.57894736842104"/>
<line x1="231.57894736842104" y1="40" x2="231.57894736842104" y2="560"/>
<line x1="40" y1="231.57894736842104" x2="560" y2="231.57894736842104"/>
<line x1="231.57894736842104" y1="40" x2="231.57894736842104" y2="560"/>
<line x1="40" y1="231.57894736842104" x2="560" y2="231.57894736842104"/>
<line x1="231.57894736842104" y1="40" x2="231.57894736842104" y2="560"/>
<line x1="40" y1="231.57894736842104" x2="560" y2="231.57894736842104"/>
<line x1="231.57894736842104" y1="40" x2="231.57894736842104" y2="560"/>
<line x1="40" y1="231.57894736842104" x2="560" y2="231.57894736842104"/>
<line x1="231.57894736842104" y1="40" x2="231.57894736842104" y2="560"/>
<line x1="40" y1="231.57894736842104" x2="560" y2="231.57894736842104"/>
<line x1="231.57894736842104" y1="40" x2="231.57894736842104" y2="560"/>
<line x1="40" y1="231.57894736842104" x2="560" y2="231.57894736842104"/>
<line x1="231.57894736842104" y1="40" x2="231.57894736842104" y2="560"/>
<line x1="40" y1="231.57894736842104" x2="560" y2="231.57894736842104"/>
<line x1="231.57894736842104" y1="40" x2="231.57894736842104" y2="560"/>
<line x1="40" y1="231.57894736842104" x2="560" y2="231.57894736842104"/>
<line x1="231.57894736842104" y1="40" x2="231.57894736842104" y2="560"/>
<line x1="40" y1="231.57894736842104" x2="560" y2="231.57894736842104"/>
<line x1="231.57894736842104" y1="40" x2="231.57894736842104" y2="560"/>
<line x1="40" y1="231.57894736842104" x2="560" y2="231.57894736842104"/>
<line x1="231.57894736842104" y1="40" x2="231.57894736842104" y2="560"/>
<line x1="40" y1="231.57894736842104" x2="560" y2="231.57894736842104"/>
<line x1="231.57894736842104" y1="40" x2="231.57894736842104" y2="560"/>
<line x1="40" y1="231.57894736842104" x2="560" y2="231.57894736842104"/>
<text x="245.26315789473685" y="580" text-anchor="middle" dominant-baseline="central">H</text>
<text x="20" y="354.7368421052631" text-anchor="middle" dominant-baseline="central">8</text>
<line x1="258.9473684210526" y1="40" x2="258.9473684210526" y2="560"/>
<line x1="40" y1="258.9473684210526" x2="560" y2="258.9473684210526"/>
<line x1="258.9473684210526" y1="40" x2="258.9473684210526" y2="560"/>
<line x1="40" y1="258.9473684210526" x2="560" y2="258.9473684210526"/>
<line x1="258.9473684210526" y1="40" x2="258.9473684210526" y2="560"/>
<line x1="40" y1="258.9473684210526" x2="560" y2="258.9473684210526"/>
<line x1="258.9473684210526" y1="40" x2="258.9473684210526" y2="560"/>
<line x1="40" y1="258.9473684210526" x2="560" y2="258.9473684210526"/>
<line x1="258.9473684210526" y1="40" x2="258.9473684210526" y2="560"/>
<line x1="40" y1="258.9473684210526" x2="560" y2="258.9473684210526"/>
<line x1="258.9473684210526" y1="40" x2="258.9473684210526" y2="560"/>
<line x1="40" y1="258.9473684210526" x2="560" y2="258.9473684210526"/>
<line x1="258.9473684210526" y1="40" x2="258.9473684210526" y2="560"/>
<line x1="40" y1="258.9473684210526" x2="560" y2="258.9473684210526"/>
<line x1="258.9473684210526" y1="40" x2="258.9473684210526" y2="560"/>
<line x1="40" y1="258.9473684210526" x2="560" y2="258.9473684210526"/>
<line x1="258.9473684210526" y1="40" x2="258.9473684210526" y2="560"/>
<line x1="40" y1="258.9473684210526" x2="560" y2="258.9473684210526"/>
<line x1="258.9473684210526" y1="40" x2="258.9473684210526" y2="560"/>
<line x1="40" y1="258.9473684210526" x2="560" y2="258.9473684210526"/>
<line x1="258.9473684210526" y1="40" x2="258.9473684210526" y2="560"/>
<line x1="40" y1="258.9473684210526" x2="560" y2="258.9473684210526"/>
<line x1="258.9473684210526" y1="40" x2="258.9473684210526" y2="560"/>
<line x1="40" y1="258.9473684210526" x2="560" y2="258.9473684210526"/>
<line x1="258.9473684210526" y1="40" x2="258.9473684210526" y2="560"/>
<line x1="40" y1="258.9473684210526" x2="560" y2="258.9473684210526"/>
<line x1="258.9473684210526" y1="40" x2="258.9473684210526" y2="560"/>
<line x1="40" y1="258.9473684210526" x2="560" y2="258.9473684210526"/>
<line x1="258.9473684210526" y1="40" x2="258.9473684210526" y2="560"/>
<line x1="40" y1="258.9473684210526" x2="560" y2="258.9473684210526"/>
<line x1="258.9473684210526" y1="40" x2="258.9473684210526" y2="560"/>
<line x1="40" y1="258.9473684210526" x2="560" y2="258.9473684210526"/>
<line x1="258.9473684210526" y1="40" x2="258.9473684210526" y2="560"/>
<line x1="40" y1="258.9473684210526" x2="560" y2="258.9473684210526"/>
<line x1="258.9473684210526" y1="40" x2="258.9473684210526" y2="560"/>
<line x1="40" y1="258.9473684210526" x2="560" y2="258.9473684210526"/>
<line x1="258.9473684210526" y1="40" x2="258.9473684210526" y2="560"/>
<line x1="40" y1="258.9473684210526" x2="560" y2="258.9473684210526"/>
<line x1="258.9473684210526" y1="40" x2="258.9473684210526" y2="560"/>
<line x1="40" y1="258.9473684210526" x2="560" y2="258.9473684210526"/>
<text x="272.63157894736844" y="580" text-anchor="middle" dominant-baseline="central">I</text>
<text x="20" y="327.36842105263156" text-anchor="middle" dominant-baseline="central">9</text>
<line x1="286.3157894736842" y1="40" x2="286.3157894736842" y2="560"/>
<line x1="40" y1="286.3157894736842" x2="560" y2="286.3157894736842"/>
<line x1="286.3157894736842" y1="40" x2="286.3157894736842" y2="560"/>
<line x1="40" y1="286.3157894736842" x2="560" y2="286.3157894736842"/>
<line x1="286.3157894736842" y1="40" x2="286.3157894736842" y2="560"/>
<line x1="40" y1="286.3157894736842" x2="560" y2="286.3157894736842"/>
<line x1="286.3157894736842" y1="40" x2="286.3157894736842" y2="560"/>
<line x1="40" y1="286.3157894736842" x2="560" y2="286.3157894736842"/>
<line x1="286.3157894736842" y1="40" x2="286.3157894736842" y2="560"/>
<line x1="40" y1="286.3157894736842" x2="560" y2="286.3157894736842"/>
<line x1="286.3157894736842" y1="40" x2="286.3157894736842" y2="560"/>
<line x1="40" y1="286.3157894736842" x2="560" y2="286.3157894736842"/>
<line x1="286.3157894736842" y1="40" x2="286.3157894736842" y2="560"/>
<line x1="40" y1="286.3157894736842" x2="560" y2="286.3157894736842"/>
<line x1="286.3157894736842" y1="40" x2="286.3157894736842" y2="560"/>
<line x1="40" y1="286.3157894736842" x2="560" y2="286.3157894736842"/>
<line x1="286.3157894736842" y1="40" x2="286.3157894736842" y2="560"/>
<line x1="40" y1="286.3157894736842" x2="560" y2="286.3157894736842"/>
<line x1="286.3157894736842" y1="40" x2="286.3157894736842" y2="560"/>
<line x1="40" y1="286.3157894736842" x2="560" y2="286.3157894736842"/>
<line x1="286.3157894736842" y1="40" x2="286.3157894736842" y2="560"/>
<line x1="40" y1="286.3157894736842" x2="560" y2="286.3157894736842"/>
<line x1="286.3157894736842" y1="40" x2="286.3157894736842" y2="560"/>
<line x1="40" y1="286.3157894736842" x2="560" y2="286.3157894736842"/>
<line x1="286.3157894736842" y1="40" x2="286.3157894736842" y2="560"/>
<line x1="40" y1="286.3157894736842" x2="560" y2="286.3157894736842"/>
<line x1="286.3157894736842" y1="40" x2="286.3157894736842" y2="560"/>
<line x1="40" y1="286.3157894736842" x2="560" y2="286.3157894736842"/>
<line x1="286.3157894736842" y1="40" x2="286.3157894736842" y2="560"/>
<line x1="40" y1="286.3157894736842" x2="560" y2="286.3157894736842"/>
<line x1="286.3157894736842" y1="40" x2="286.3157894736842" y2="560"/>
<line x1="40" y1="286.3157894736842" x2="560" y2="286.3157894736842"/>
<line x1="286.3157894736842" y1="40" x2="286.3157894736842" y2="560"/>
<line x1="40" y1="286.3157894736842" x2="560" y2="286.3157894736842"/>
<line x1="286.3157894736842" y1="40" x2="286.3157894736842" y2="560"/>
<line x1="40" y1="286.3157894736842" x2="560" y2="286.3157894736842"/>
<line x1="286.3157894736842" y1="40" x2="286.3157894736842" y2="560"/>
<line x1="40" y1="286.3157894736842" x2="560" y2="286.3157894736842"/>
<line x1="286.3157894736842" y1="40" x2="286.3157894736842" y2="560"/>
<line x1="40" y1="286.3157894736842" x2="560" y2="286.3157894736842"/>
<text x="300.0" y="580" text-anchor="middle" dominant-baseline="central">J</text>
<text x="20" y="300.0" text-anchor="middle" dominant-baseline="central">10</text>
<line x1="313.6842105263158" y1="40" x2="313.6842105263158" y2="560"/>
<line x1="40" y1="313.6842105263158" x2="560" y2="313.6842105263158"/>
<line x1="313.6842105263158" y1="40" x2="313.6842105263158" y2="560"/>
<line x1="40" y1="313.6842105263158" x2="560" y2="313.6842105263158"/>
<line x1="313.6842105263158" y1="40" x2="313.6842105263158" y2="560"/>
<line x1="40" y1="313.6842105263158" x2="560" y2="313.6842105263158"/>
<line x1="313.6842105263158" y1="40" x2="313.6842105263158" y2="560"/>
<line x1="40" y1="313.6842105263158" x2="560" y2="313.6842105263158"/>
<line x1="313.6842105263158" y1="40" x2="313.6842105263158" y2="560"/>
<line x1="40" y1="313.6842105263158" x2="560" y2="313.6842105263158"/>
<line x1="313.6842105263158" y1="40" x2="313.6842105263158" y2="560"/>
<line x1="40" y1="313.6842105263158" x2="560" y2="313.6842105263158"/>
<line x1="313.6842105263158" y1="40" x2="313.6842105263158" y2="560"/>
<line x1="40" y1="313.6842105263158" x2="560" y2="313.6842105263158"/>
<line x1="313.6842105263158" y1="40" x2="313.6842105263158" y2="560"/>
<line x1="40" y1="313.6842105263158" x2="560" y2="313.6842105263158"/>
<line x1="313.6842105263158" y1="40" x2="313.6842105263158" y2="560"/>
<line x1="40" y1="313.6842105263158" x2="560" y2="313.6842105263158"/>
<line x1="313.6842105263158" y1="40" x2="313.6842105263158" y2="560"/>
<line x1="40" y1="313.6842105263158" x2="560" y2="313.6842105263158"/>
<line x1="313.6842105263158" y1="40" x2="313.6842105263158" y2="560"/>
<line x1="40" y1="313.6842105263158" x2="560" y2="313.6842105263158"/>
<line x1="313.6842105263158" y1="40" x2="313.6842105263158" y2="560"/>
<line x1="40" y1="313.6842105263158" x2="560" y2="313.6842105263158"/>
<line x1="313.6842105263158" y1="40" x2="313.6842105263158" y2="560"/>
<line x1="40" y1="313.6842105263158" x2="560" y2="313.6842105263158"/>
<line x1="313.6842105263158" y1="40" x2="313.6842105263158" y2="560"/>
<line x1="40" y1="313.6842105263158" x2="560" y2="313.6842105263158"/>
<line x1="313.6842105263158" y1="40" x2="313.6842105263158" y2="560"/>
<line x1="40" y1="313.6842105263158" x2="560" y2="313.6842105263158"/>
<line x1="313.6842105263158" y1="40" x2="313.6842105263158" y2="560"/>
<line x1="40" y1="313.6842105263158" x2="560" y2="313.6842105263158"/>
<line x1="313.6842105263158" y1="40" x2="313.6842105263158" y2="560"/>
<line x1="40" y1="313.6842105263158" x2="560" y2="313.6842105263158"/>
<line x1="313.6842105263158" y1="40" x2="313.6842105263158" y2="560"/>
<line x1="40" y1="313.6842105263158" x2="560" y2="313.6842105263158"/>
<line x1="313.6842105263158" y1="40" x2="313.6842105263158" y2="560"/>
<line x1="40" y1="313.6842105263158" x2="560" y2="313.6842105263158"/>
<line x1="313.6842105263158" y1="40" x2="313.6842105263158" y2="560"/>
<line x1="40" y1="313.6842105263158" x2="560" y2="313.6842105263158"/>
<text x="327.36842105263156" y="580" text-anchor="middle" dominant-baseline="central">K</text>
<text x="20" y="272.63157894736844" text-anchor="middle" dominant-baseline="central">11</text>
<line x1="341.05263157894734" y1="40" x2="341.05263157894734" y2="560"/>
<line x1="40" y1="341.05263157894734" x2="560" y2="341.05263157894734"/>
<line x1="341.05263157894734" y1="40" x2="341.05263157894734" y2="560"/>
<line x1="40" y1="341.05263157894734" x2="560" y2="341.05263157894734"/>
<line x1="341.05263157894734" y1="40" x2="341.05263157894734" y2="560"/>
<line x1="40" y1="341.05263157894734" x2="560" y2="341.05263157894734"/>
<line x1="341.05263157894734" y1="40" x2="341.05263157894734" y2="560"/>
<line x1="40" y1="341.05263157894734" x2="560" y2="341.05263157894734"/>
<line x1="341.05263157894734" y1="40" x2="341.05263157894734" y2="560"/>
<line x1="40" y1="341.05263157894734" x2="560" y2="341.05263157894734"/>
<line x1="341.05263157894734" y1="40" x2="341.05263157894734" y2="560"/>
<line x1="40" y1="341.05263157894734" x2="560" y2="341.05263157894734"/>
<line x1="341.05263157894734" y1="40" x2="341.05263157894734" y2="560"/>
<line x1="40" y1="341.05263157894734" x2="560" y2="341.05263157894734"/>
<line x1="341.05263157894734" y1="40" x2="341.05263157894734" y2="560"/>
<line x1="40" y1="341.05263157894734" x2="560" y2="341.05263157894734"/>
<line x1="341.05263157894734" y1="40" x2="341.05263157894734" y2="560"/>
<line x1="40" y1="341.05263157894734" x2="560" y2="341.05263157894734"/>
<line x1="341.05263157894734" y1="40" x2="341.05263157894734" y2="560"/>
<line x1="40" y1="341.05263157894734" x2="560" y2="341.05263157894734"/>
<line x1="341.05263157894734" y1="40" x2="341.05263157894734" y2="560"/>
<line x1="40" y1="341.05263157894734" x2="560" y2="341.05263157894734"/>
<line x1="341.05263157894734" y1="40" x2="341.05263157894734" y2="560"/>
<line x1="40" y1="341.05263157894734" x2="560" y2="341.05263157894734"/>
<line x1="341.05263157894734" y1="40" x2="341.05263157894734" y2="560"/>
<line x1="40" y1="341.05263157894734" x2="560" y2="341.05263157894734"/>
<line x1="341.05263157894734" y1="40" x2="341.05263157894734" y2="560"/>
<line x1="40" y1="341.05263157894734" x2="560" y2="341.05263157894734"/>
<line x1="341.05263157894734" y1="40" x2="341.05263157894734" y2="560"/>
<line x1="40" y1="341.05263157894734" x2="560" y2="341.05263157894734"/>
<line x1="341.05263157894734" y1="40" x2="341.05263157894734" y2="560"/>
<line x1="40" y1="341.05263157894734" x2="560" y2="341.05263157894734"/>
<line x1="341.05263157894734" y1="40" x2="341.05263157894734" y2="560"/>
<line x1="40" y1="341.05263157894734" x2="560" y2="341.05263157894734"/>
<line x1="341.05263157894734" y1="40" x2="341.05263157894734" y2="560"/>
<line x1="40" y1="341.05263157894734" x2="560" y2="341.05263157894734"/>
<line x1="341.05263157894734" y1="40" x2="341.05263157894734" y2="560"/>
<line x1="40" y1="341.05263157894734" x2="560" y2="341.05263157894734"/>
<line x1="341.05263157894734" y1="40" x2="341.05263157894734" y2="560"/>
<line x1="40" y1="341.05263157894734" x2="560" y2="341.05263157894734"/>
<text x="354.7368421052632" y="580" text-anchor="middle" dominant-baseline="central">L</text>
<text x="20" y="245.26315789473682" text-anchor="middle" dominant-baseline="central">12</text>
<line x1="368.42105263157896" y1="40" x2="368.42105263157896" y2="560"/>
<line x1="40" y1="368.42105263157896" x2="560" y2="368.42105263157896"/>
<line x1="368.42105263157896" y1="40" x2="368.42105263157896" y2="560"/>
<line x1="40" y1="368.42105263157896" x2="560" y2="368.42105263157896"/>
<line x1="368.42105263157896" y1="40" x2="368.42105263157896" y2="560"/>
<line x1="40" y1="368.42105263157896" x2="560" y2="368.42105263157896"/>
<line x1="368.42105263157896" y1="40" x2="368.42105263157896" y2="560"/>
<line x1="40" y1="368.42105263157896" x2="560" y2="368.42105263157896"/>
<line x1="368.42105263157896" y1="40" x2="368.42105263157896" y2="560"/>
<line x1="40" y1="368.42105263157896" x2="560" y2="368.42105263157896"/>
<line x1="368.42105263157896" y1="40" x2="368.42105263157896" y2="560"/>
<line x1="40" y1="368.42105263157896" x2="560" y2="368.42105263157896"/>
<line x1="368.42105263157896" y1="40" x2="368.42105263157896" y2="560"/>
<line x1="40" y1="368.42105263157896" x2="560" y2="368.42105263157896"/>
<line x1="368.42105263157896" y1="40" x2="368.42105263157896" y2="560"/>
<line x1="40" y1="368.42105263157896" x2="560" y2="368.42105263157896"/>
<line x1="368.42105263157896" y1="40" x2="368.42105263157896" y2="560"/>
<line x1="40" y1="368.42105263157896" x2="560" y2="368.42105263157896"/>
<line x1="368.42105263157896" y1="40" x2="368.42105263157896" y2="560"/>
<line x1="40" y1="368.42105263157896" x2="560" y2="368.42105263157896"/>
<line x1="368.42105263157896" y1="40" x2="368.42105263157896" y2="560"/>
<line x1="40" y1="368.42105263157896" x2="560" y2="368.42105263157896"/>
<line x1="368.42105263157896" y1="40" x2="368.42105263157896" y2="560"/>
<line x1="40" y1="368.42105263157896" x2="560" y2="368.42105263157896"/>
<line x1="368.42105263157896" y1="40" x2="368.42105263157896" y2="560"/>
<line x1="40" y1="368.42105263157896" x2="560" y2="368.42105263157896"/>
<line x1="368.42105263157896" y1="40" x2="368.42105263157896" y2="560"/>
<line x1="40" y1="368.42105263157896" x2="560" y2="368.42105263157896"/>
<line x1="368.42105263157896" y1="40" x2="368.42105263157896" y2="560"/>
<line x1="40" y1="368.42105263157896" x2="560" y2="368.42105263157896"/>
<line x1="368.42105263157896" y1="40" x2="368.42105263157896" y2="560"/>
<line x1="40" y1="368.42105263157896" x2="560" y2="368.42105263157896"/>
<line x1="368.42105263157896" y1="40" x2="368.42105263157896" y2="560"/>
<line x1="40" y1="368.42105263157896" x2="560" y2="368.42105263157896"/>
<line x1="368.42105263157896" y1="40" x2="368.42105263157896" y2="560"/>
<line x1="40" y1="368.42105263157896" x2="560" y2="368.42105263157896"/>
<line x1="368.42105263157896" y1="40" x2="368.42105263157896" y2="560"/>
<line x1="40" y1="368.42105263157896" x2="560" y2="368.42105263157896"/>
<line x1="368.42105263157896" y1="40" x2="368.42105263157896" y2="560"/>
<line x1="40" y1="368.42105263157896" x2="560" y2="368.42105263157896"/>
<text x="382.10526315789474" y="580" text-anchor="middle" dominant-baseline="central">M</text>
<text x="20" y="217.89473684210526" text-anchor="middle" dominant-baseline="central">13</text>
<line x1="395.7894736842105" y1="40" x2="395.7894736842105" y2="560"/>
<line x1="40" y1="395.7894736842105" x2="560" y2="395.7894736842105"/>
<line x1="395.7894736842105" y1="40" x2="395.7894736842105" y2="560"/>
<line x1="40" y1="395.7894736842105" x2="560" y2="395.7894736842105"/>
<line x1="395.7894736842105" y1="40" x2="395.7894736842105" y2="560"/>
<line x1="40" y1="395.7894736842105" x2="560" y2="395.7894736842105"/>
<line x1="395.7894736842105" y1="40" x2="395.7894736842105" y2="560"/>
<line x1="40" y1="395.7894736842105" x2="560" y2="395.7894736842105"/>
<line x1="395.7894736842105" y1="40" x2="395.7894736842105" y2="560"/>
<line x1="40" y1="395.7894736842105" x2="560" y2="395.7894736842105"/>
<line x1="395.7894736842105" y1="40" x2="395.7894736842105" y2="560"/>
<line x1="40" y1="395.7894736842105" x2="560" y2="395.7894736842105"/>
<line x1="395.7894736842105" y1="40" x2="395.7894736842105" y2="560"/>
<line x1="40" y1="395.7894736842105" x2="560" y2="395.7894736842105"/>
<line x1="395.7894736842105" y1="40" x2="395.7894736842105" y2="560"/>
<line x1="40" y1="395.7894736842105" x2="560" y2="395.7894736842105"/>
<line x1="395.7894736842105" y1="40" x2="395.7894736842105" y2="560"/>
<line x1="40" y1="395.7894736842105" x2="560" y2="395.7894736842105"/>
<line x1="395.7894736842105" y1="40" x2="395.7894736842105" y2="560"/>
<line x1="40" y1="395.7894736842105" x2="560" y2="395.7894736842105"/>
<line x1="395.7894736842105" y1="40" x2="395.7894736842105" y2="560"/>
<line x1="40" y1="395.7894736842105" x2="560" y2="395.7894736842105"/>
<line x1="395.7894736842105" y1="40" x2="395.7894736842105" y2="560"/>
<line x1="40" y1="395.7894736842105" x2="560" y2="395.7894736842105"/>
<line x1="395.7894736842105" y1="40" x2="395.7894736842105" y2="560"/>
<line x1="40" y1="395.7894736842105" x2="560" y2="395.7894736842105"/>
<line x1="395.7894736842105" y1="40" x2="395.7894736842105" y2="560"/>
<line x1="40" y1="395.7894736842105" x2="560" y2="395.7894736842105"/>
<line x1="395.7894736842105" y1="40" x2="395.7894736842105" y2="560"/>
<line x1="40" y1="395.7894736842105" x2="560" y2="395.7894736842105"/>
<line x1="395.7894736842105" y1="40" x2="395.7894736842105" y2="560"/>
<line x1="40" y1="395.7894736842105" x2="560" y2="395.7894736842105"/>
<line x1="395.7894736842105" y1="40" x2="395.7894736842105" y2="560"/>
<line x1="40" y1="395.7894736842105" x2="560" y2="395.7894736842105"/>
<line x1="395.7894736842105" y1="40" x2="395.7894736842105" y2="560"/>
<line x1="40" y1="395.7894736842105" x2="560" y2="395.7894736842105"/>
<line x1="395.7894736842105" y1="40" x2="395.7894736842105" y2="560"/>
<line x1="40" y1="395.7894736842105" x2="560" y2="395.7894736842105"/>
<line x1="395.7894736842105" y1="40" x2="395.7894736842105" y2="560"/>
<line x1="40" y1="395.7894736842105" x2="560" y2="395.7894736842105"/>
<text x="409.4736842105263" y="580" text-anchor="middle" dominant-baseline="central">N</text>
<text x="20" y="190.5263157894737" text-anchor="middle" dominant-baseline="central">14</text>
<line x1="423.1578947368421" y1="40" x2="423.1578947368421" y2="560"/>
<line x1="40" y1="423.1578947368421" x2="560" y2="423.1578947368421"/>
<line x1="423.1578947368421" y1="40" x2="423.1578947368421" y2="560"/>
<line x1="40" y1="423.1578947368421" x2="560" y2="423.1578947368421"/>
<line x1="423.1578947368421" y1="40" x2="423.1578947368421" y2="560"/>
<line x1="40" y1="423.1578947368421" x2="560" y2="423.1578947368421"/>
<line x1="423.1578947368421" y1="40" x2="423.1578947368421" y2="560"/>
<line x1="40" y1="423.1578947368421" x2="560" y2="423.1578947368421"/>
<line x1="423.1578947368421" y1="40" x2="423.1578947368421" y2="560"/>
<line x1="40" y1="423.1578947368421" x2="560" y2="423.1578947368421"/>
<line x1="423.1578947368421" y1="40" x2="423.1578947368421" y2="560"/>
<line x1="40" y1="423.1578947368421" x2="560" y2="423.1578947368421"/>
<line x1="423.1578947368421" y1="40" x2="423.1578947368421" y2="560"/>
<line x1="40" y1="423.1578947368421" x2="560" y2="423.1578947368421"/>
<line x1="423.1578947368421" y1="40" x2="423.1578947368421" y2="560"/>
<line x1="40" y1="423.1578947368421" x2="560" y2="423.1578947368421"/>
<line x1="423.1578947368421" y1="40" x2="423.1578947368421" y2="560"/>
<line x1="40" y1="423.1578947368421" x2="560" y2="423.1578947368421"/>
<line x1="423.1578947368421" y1="40" x2="423.1578947368421" y2="560"/>
<line x1="40" y1="423.1578947368421" x2="560" y2="423.1578947368421"/>
<line x1="423.1578947368421" y1="40" x2="423.1578947368421" y2="560"/>
<line x1="40" y1="423.1578947368421" x2="560" y2="423.1578947368421"/>
<line x1="423.1578947368421" y1="40" x2="423.1578947368421" y2="560"/>
<line x1="40" y1="423.1578947368421" x2="560" y2="423.1578947368421"/>
<line x1="423.1578947368421" y1="40" x2="423.1578947368421" y2="560"/>
<line x1="40" y1="423.1578947368421" x2="560" y2="423.1578947368421"/>
<line x1="423.1578947368421" y1="40" x2="423.1578947368421" y2="560"/>
<line x1="40" y1="423.1578947368421" x2="560" y2="423.1578947368421"/>
<line x1="423.1578947368421" y1="40" x2="423.1578947368421" y2="560"/>
<line x1="40" y1="423.1578947368421" x2="560" y2="423.1578947368421"/>
<line x1="423.1578947368421" y1="40" x2="423.1578947368421" y2="560"/>
<line x1="40" y1="423.1578947368421" x2="560" y2="423.1578947368421"/>
<line x1="423.1578947368421" y1="40" x2="423.1578947368421" y2="560"/>
<line x1="40" y1="423.1578947368421" x2="560" y2="423.1578947368421"/>
<line x1="423.1578947368421" y1="40" x2="423.1578947368421" y2="560"/>
<line x1="40" y1="423.1578947368421" x2="560" y2="423.1578947368421"/>
<line x1="423.1578947368421" y1="40" x2="423.1578947368421" y2="560"/>
<line x1="40" y1="423.1578947368421" x2="560" y2="423.1578947368421"/>
<line x1="423.1578947368421" y1="40" x2="423.1578947368421" y2="560"/>
<line x1="40" y1="423.1578947368421" x2="560" y2="423.1578947368421"/>
<text x="436.8421052631579" y="580" text-anchor="middle" dominant-baseline="central">O</text>
<text x="20" y="163.15789473684208" text-anchor="middle" dominant-baseline="central">15</text>
<line x1="450.5263157894737" y1="40" x2="450.5263157894737" y2="560"/>
<line x1="40" y1="450.5263157894737" x2="560" y2="450.5263157894737"/>
<line x1="450.5263157894737" y1="40" x2="450.5263157894737" y2="560"/>
<line x1="40" y1="450.5263157894737" x2="560" y2="450.5263157894737"/>
<line x1="450.5263157894737" y1="40" x2="450.5263157894737" y2="560"/>
<line x1="40" y1="450.5263157894737" x2="560" y2="450.5263157894737"/>
<line x1="450.5263157894737" y1="40" x2="450.5263157894737" y2="560"/>
<line x1="40" y1="450.5263157894737" x2="560" y2="450.5263157894737"/>
<line x1="450.5263157894737" y1="40" x2="450.5263157894737" y2="560"/>
<line x1="40" y1="450.5263157894737" x2="560" y2="450.5263157894737"/>
<line x1="450.5263157894737" y1="40" x2="450.5263157894737" y2="560"/>
<line x1="40" y1="450.5263157894737" x2="560" y2="450.5263157894737"/>
<line x1="450.5263157894737" y1="40" x2="450.5263157894737" y2="560"/>
<line x1="40" y1="450.5263157894737" x2="560" y2="450.5263157894737"/>
<line x1="450.5263157894737" y1="40" x2="450.5263157894737" y2="560"/>
<line x1="40" y1="450.5263157894737" x2="560" y2="450.5263157894737"/>
<line x1="450.5263157894737" y1="40" x2="450.5263157894737" y2="560"/>
<line x1="40" y1="450.5263157894737" x2="560" y2="450.5263157894737"/>
<line x1="450.5263157894737" y1="40" x2="450.5263157894737" y2="560"/>
<line x1="40" y1="450.5263157894737" x2="560" y2="450.5263157894737"/>
<line x1="450.5263157894737" y1="40" x2="450.5263157894737" y2="560"/>
<line x1="40" y1="450.5263157894737" x2="560" y2="450.5263157894737"/>
<line x1="450.5263157894737" y1="40" x2="450.5263157894737" y2="560"/>
<line x1="40" y1="450.5263157894737" x2="560" y2="450.5263157894737"/>
<line x1="450.5263157894737" y1="40" x2="450.5263157894737" y2="560"/>
<line x1="40" y1="450.5263157894737" x2="560" y2="450.5263157894737"/>
<line x1="450.5263157894737" y1="40" x2="450.5263157894737" y2="560"/>
<line x1="40" y1="450.5263157894737" x2="560" y2="450.5263157894737"/>
<line x1="450.5263157894737" y1="40" x2="450.5263157894737" y2="560"/>
<line x1="40" y1="450.5263157894737" x2="560" y2="450.5263157894737"/>
<line x1="450.5263157894737" y1="40" x2="450.5263157894737" y2="560"/>
<line x1="40" y1="450.5263157894737" x2="560" y2="450.5263157894737"/>
<line x1="450.5263157894737" y1="40" x2="450.5263157894737" y2="560"/>
<line x1="40" y1="450.5263157894737" x2="560" y2="450.5263157894737"/>
<line x1="450.5263157894737" y1="40" x2="450.5263157894737" y2="560"/>
<line x1="40" y1="450.5263157894737" x2="560" y2="450.5263157894737"/>
<line x1="450.5263157894737" y1="40" x2="450.5263157894737" y2="560"/>
<line x1="40" y1="450.5263157894737" x2="560" y2="450.5263157894737"/>
<line x1="450.5263157894737" y1="40" x2="450.5263157894737" y2="560"/>
<line x1="40" y1="450.5263157894737" x2="560" y2="450.5263157894737"/>
<text x="464.2105263157895" y="580" text-anchor="middle" dominant-baseline="central">P</text>
<text x="20" y="135.78947368421052" text-anchor="middle" dominant-baseline="central">16</text>
<line x1="477.89473684210526" y1="40" x2="477.89473684210526" y2="560"/>
<line x1="40" y1="477.89473684210526" x2="560" y2="477.89473684210526"/>
<line x1="477.89473684210526" y1="40" x2="477.89473684210526" y2="560"/>
<line x1="40" y1="477.89473684210526" x2="560" y2="477.89473684210526"/>
<line x1="477.89473684210526" y1="40" x2="477.89473684210526" y2="560"/>
<line x1="40" y1="477.89473684210526" x2="560" y2="477.89473684210526"/>
<line x1="477.89473684210526" y1="40" x2="477.89473684210526" y2="560"/>
<line x1="40" y1="477.89473684210526" x2="560" y2="477.89473684210526"/>
<line x1="477.89473684210526" y1="40" x2="477.89473684210526" y2="560"/>
<line x1="40" y1="477.89473684210526" x2="560" y2="477.89473684210526"/>
<line x1="477.89473684210526" y1="40" x2="477.89473684210526" y2="560"/>
<line x1="40" y1="477.89473684210526" x2="560" y2="477.89473684210526"/>
<line x1="477.89473684210526" y1="40" x2="477.89473684210526" y2="560"/>
<line x1="40" y1="477.89473684210526" x2="560" y2="477.89473684210526"/>
<line x1="477.89473684210526" y1="40" x2="477.89473684210526" y2="560"/>
<line x1="40" y1="477.89473684210526" x2="560" y2="477.89473684210526"/>
<line x1="477.89473684210526" y1="40" x2="477.89473684210526" y2="560"/>
<line x1="40" y1="477.89473684210526" x2="560" y2="477.89473684210526"/>
<line x1="477.89473684210526" y1="40" x2="477.89473684210526" y2="560"/>
<line x1="40" y1="477.89473684210526" x2="560" y2="477.89473684210526"/>
<line x1="477.89473684210526" y1="40" x2="477.89473684210526" y2="560"/>
<line x1="40" y1="477.89473684210526" x2="560" y2="477.89473684210526"/>
<line x1="477.89473684210526" y1="40" x2="477.89473684210526" y2="560"/>
<line x1="40" y1="477.89473684210526" x2="560" y2="477.89473684210526"/>
<line x1="477.89473684210526" y1="40" x2="477.89473684210526" y2="560"/>
<line x1="40" y1="477.89473684210526" x2="560" y2="477.89473684210526"/>
<line x1="477.89473684210526" y1="40" x2="477.89473684210526" y2="560"/>
<line x1="40" y1="477.89473684210526" x2="560" y2="477.89473684210526"/>
<line x1="477.89473684210526" y1="40" x2="477.89473684210526" y2="560"/>
<line x1="40" y1="477.89473684210526" x2="560" y2="477.89473684210526"/>
<line x1="477.89473684210526" y1="40" x2="477.89473684210526" y2="560"/>
<line x1="40" y1="477.89473684210526" x2="560" y2="477.89473684210526"/>
<line x1="477.89473684210526" y1="40" x2="477.89473684210526" y2="560"/>
<line x1="40" y1="477.89473684210526" x2="560" y2="477.89473684210526"/>
<line x1="477.89473684210526" y1="40" x2="477.89473684210526" y2="560"/>
<line x1="40" y1="477.89473684210526" x2="560" y2="477.89473684210526"/>
<line x1="477.89473684210526" y1="40" x2="477.89473684210526" y2="560"/>
<line x1="40" y1="477.89473684210526" x2="560" y2="477.89473684210526"/>
<line x1="477.89473684210526" y1="40" x2="477.89473684210526" y2="560"/>
<line x1="40" y1="477.89473684210526" x2="560" y2="477.89473684210526"/>
<text x="491.57894736842104" y="580" text-anchor="middle" dominant-baseline="central">Q</text>
<text x="20" y="108.42105263157896" text-anchor="middle" dominant-baseline="central">17</text>
<line x1="505.2631578947368" y1="40" x2="505.2631578947368" y2="560"/>
<line x1="40" y1="505.2631578947368" x2="560" y2="505.2631578947368"/>
<line x1="505.2631578947368" y1="40" x2="505.2631578947368" y2="560"/>
<line x1="40" y1="505.2631578947368" x2="560" y2="505.2631578947368"/>
<line x1="505.2631578947368" y1="40" x2="505.2631578947368" y2="560"/>
<line x1="40" y1="505.2631578947368" x2="560" y2="505.2631578947368"/>
<line x1="505.2631578947368" y1="40" x2="505.2631578947368" y2="560"/>
<line x1="40" y1="505.2631578947368" x2="560" y2="505.2631578947368"/>
<line x1="505.2631578947368" y1="40" x2="505.2631578947368" y2="560"/>
<line x1="40" y1="505.2631578947368" x2="560" y2="505.2631578947368"/>
<line x1="505.2631578947368" y1="40" x2="505.2631578947368" y2="560"/>
<line x1="40" y1="505.2631578947368" x2="560" y2="505.2631578947368"/>
<line x1="505.2631578947368" y1="40" x2="505.2631578947368" y2="560"/>
<line x1="40" y1="505.2631578947368" x2="560" y2="505.2631578947368"/>
<line x1="505.2631578947368" y1="40" x2="505.2631578947368" y2="560"/>
<line x1="40" y1="505.2631578947368" x2="560" y2="505.2631578947368"/>
<line x1="505.2631578947368" y1="40" x2="505.2631578947368" y2="560"/>
<line x1="40" y1="505.2631578947368" x2="560" y2="505.2631578947368"/>
<line x1="505.2631578947368" y1="40" x2="505.2631578947368" y2="560"/>
<line x1="40" y1="505.2631578947368" x2="560" y2="505.2631578947368"/>
<line x1="505.2631578947368" y1="40" x2="505.2631578947368" y2="560"/>
<line x1="40" y1="505.2631578947368" x2="560" y2="505.2631578947368"/>
<line x1="505.2631578947368" y1="40" x2="505.2631578947368" y2="560"/>
<line x1="40" y1="505.2631578947368" x2="560" y2="505.2631578947368"/>
<line x1="505.2631578947368" y1="40" x2="505.2631578947368" y2="560"/>
<line x1="40" y1="505.2631578947368" x2="560" y2="505.2631578947368"/>
<line x1="505.2631578947368" y1="40" x2="505.2631578947368" y2="560"/>
<line x1="40" y1="505.2631578947368" x2="560" y2="505.2631578947368"/>
<line x1="505.2631578947368" y1="40" x2="505.2631578947368" y2="560"/>
<line x1="40" y1="505.2631578947368" x2="560" y2="505.2631578947368"/>
<line x1="505.2631578947368" y1="40" x2="505.2631578947368" y2="560"/>
<line x1="40" y1="505.2631578947368" x2="560" y2="505.2631578947368"/>
<line x1="505.2631578947368" y1="40" x2="505.2631578947368" y2="560"/>
<line x1="40" y1="505.2631578947368" x2="560" y2="505.2631578947368"/>
<line x1="505.2631578947368" y1="40" x2="505.2631578947368" y2="560"/>
<line x1="40" y1="505.2631578947368" x2="560" y2="505.2631578947368"/>
<line x1="505.2631578947368" y1="40" x2="505.2631578947368" y2="560"/>
<line x1="40" y1="505.2631578947368" x2="560" y2="505.2631578947368"/>
<line x1="505.2631578947368" y1="40" x2="505.2631578947368" y2="560"/>
<line x1="40" y1="505.2631578947368" x2="560" y2="505.2631578947368"/>
<text x="518.9473684210526" y="580" text-anchor="middle" dominant-baseline="central">R</text>
<text x="20" y="81.0526315789474" text-anchor="middle" dominant-baseline="central">18</text>
<line x1="532.6315789473684" y1="40" x2="532.6315789473684" y2="560"/>
<line x1="40" y1="532.6315789473684" x2="560" y2="532.6315789473684"/>
<line x1="532.6315789473684" y1="40" x2="532.6315789473684" y2="560"/>
<line x1="40" y1="532.6315789473684" x2="560" y2="532.6315789473684"/>
<line x1="532.6315789473684" y1="40" x2="532.6315789473684" y2="560"/>
<line x1="40" y1="532.6315789473684" x2="560" y2="532.6315789473684"/>
<line x1="532.6315789473684" y1="40" x2="532.6315789473684" y2="560"/>
<line x1="40" y1="532.6315789473684" x2="560" y2="532.6315789473684"/>
<line x1="532.6315789473684" y1="40" x2="532.6315789473684" y2="560"/>
<line x1="40" y1="532.6315789473684" x2="560" y2="532.6315789473684"/>
<line x1="532.6315789473684" y1="40" x2="532.6315789473684" y2="560"/>
<line x1="40" y1="532.6315789473684" x2="560" y2="532.6315789473684"/>
<line x1="532.6315789473684" y1="40" x2="532.6315789473684" y2="560"/>
<line x1="40" y1="532.6315789473684" x2="560" y2="532.6315789473684"/>
<line x1="532.6315789473684" y1="40" x2="532.6315789473684" y2="560"/>
<line x1="40" y1="532.6315789473684" x2="560" y2="532.6315789473684"/>
<line x1="532.6315789473684" y1="40" x2="532.6315789473684" y2="560"/>
<line x1="40" y1="532.6315789473684" x2="560" y2="532.6315789473684"/>
<line x1="532.6315789473684" y1="40" x2="532.6315789473684" y2="560"/>
<line x1="40" y1="532.6315789473684" x2="560" y2="532.6315789473684"/>
<line x1="532.6315789473684" y1="40" x2="532.6315789473684" y2="560"/>
<line x1="40" y1="532.6315789473684" x2="560" y2="532.6315789473684"/>
<line x1="532.6315789473684" y1="40" x2="532.6315789473684" y2="560"/>
<line x1="40" y1="532.6315789473684" x2="560" y2="532.6315789473684"/>
<line x1="532.6315789473684" y1="40" x2="532.6315789473684" y2="560"/>
<line x1="40" y1="532.6315789473684" x2="560" y2="532.6315789473684"/>
<line x1="532.6315789473684" y1="40" x2="532.6315789473684" y2="560"/>
<line x1="40" y1="532.6315789473684" x2="560" y2="532.6315789473684"/>
<line x1="532.6315789473684" y1="40" x2="532.6315789473684" y2="560"/>
<line x1="40" y1="532.6315789473684" x2="560" y2="532.6315789473684"/>
<line x1="532.6315789473684" y1="40" x2="532.6315789473684" y2="560"/>
<line x1="40" y1="532.6315789473684" x2="560" y2="532.6315789473684"/>
<line x1="532.6315789473684" y1="40" x2="532.6315789473684" y2="560"/>
<line x1="40" y1="532.6315789473684" x2="560" y2="532.6315789473684"/>
<line x1="532.6315789473684" y1="40" x2="532.6315789473684" y2="560"/>
<line x1="40" y1="532.6315789473684" x2="560" y2="532.6315789473684"/>
<line x1="532.6315789473684" y1="40" x2="532.6315789473684" y2="560"/>
<line x1="40" y1="532.6315789473684" x2="560" y2="532.6315789473684"/>
<line x1="532.6315789473684" y1="40" x2="532.6315789473684" y2="560"/>
<line x1="40" y1="532.6315789473684" x2="560" y2="532.6315789473684"/>
<text x="546.3157894736842" y="580" text-anchor="middle" dominant-baseline="central">S</text>
<text x="20" y="53.68421052631584" text-anchor="middle" dominant-baseline="central">19</text>
<line x1="560.0" y1="40" x2="560.0" y2="560"/>
<line x1="40" y1="560.0" x2="560" y2="560.0"/>
<line x1="560.0" y1="40" x2="560.0" y2="560"/>
<line x1="40" y1="560.0" x2="560" y2="560.0"/>
<line x1="560.0" y1="40" x2="560.0" y2="560"/>
<line x1="40" y1="560.0" x2="560" y2="560.0"/>
<line x1="560.0" y1="40" x2="560.0" y2="560"/>
<line x1="40" y1="560.0" x2="560" y2="560.0"/>
<line x1="560.0" y1="40" x2="560.0" y2="560"/>
<line x1="40" y1="560.0" x2="560" y2="560.0"/>
<line x1="560.0" y1="40" x2="560.0" y2="560"/>
<line x1="40" y1="560.0" x2="560" y2="560.0"/>
<line x1="560.0" y1="40" x2="560.0" y2="560"/>
<line x1="40" y1="560.0" x2="560" y2="560.0"/>
<line x1="560.0" y1="40" x2="560.0" y2="560"/>
<line x1="40" y1="560.0" x2="560" y2="560.0"/>
<line x1="560.0" y1="40" x2="560.0" y2="560"/>
<line x1="40" y1="560.0" x2="560" y2="560.0"/>
<line x1="560.0" y1="40" x2="560.0" y2="560"/>
<line x1="40" y1="560.0" x2="560" y2="560.0"/>
<line x1="560.0" y1="40" x2="560.0" y2="560"/>
<line x1="40" y1="560.0" x2="560" y2="560.0"/>
<line x1="560.0" y1="40" x2="560.0" y2="560"/>
<line x1="40" y1="560.0" x2="560" y2="560.0"/>
<line x1="560.0" y1="40" x2="560.0" y2="560"/>
<line x1="40" y1="560.0" x2="560" y2="560.0"/>
<line x1="560.0" y1="40" x2="560.0" y2="560"/>
<line x1="40" y1="560.0" x2="560" y2="560.0"/>
<line x1="560.0" y1="40" x2="560.0" y2="560"/>
<line x1="40" y1="560.0" x2="560" y2="560.0"/>
<line x1="560.0" y1="40" x2="560.0" y2="560"/>
<line x1="40" y1="560.0" x2="560" y2="560.0"/>
<line x1="560.0" y1="40" x2="560.0" y2="560"/>
<line x1="40" y1="560.0" x2="560" y2="560.0"/>
<line x1="560.0" y1="40" x2="560.0" y2="560"/>
<line x1="40" y1="560.0" x2="560" y2="560.0"/>
<line x1="560.0" y1="40" x2="560.0" y2="560"/>
<line x1="40" y1="560.0" x2="560" y2="560.0"/>
<line x1="560.0" y1="40" x2="560.0" y2="560"/>
<line x1="40" y1="560.0" x2="560" y2="560.0"/>
</svg>
