<?xml version="1.0" encoding="utf-8"?>
<svg xmlns="http://www.w3.org/2000/svg"
     xmlns:xlink="http://www.w3.org/1999/xlink" width="600" height="600" >

    <defs>
    <style type="text/css"><![CDATA[

    line {
        stroke-width: 1px;
        stroke: #888;
    }

    ]]></style>
    </defs>
    
<line x1="40.0" y1="40" x2="40.0" y2="560"/>
<line x1="40" y1="40.0" x2="560" y2="40.0"/>
<line x1="40.0" y1="40" x2="40.0" y2="560"/>
<line x1="40" y1="40.0" x2="560" y2="40.0"/>
<line x1="40.0" y1="40" x2="40.0" y2="560"/>
<line x1="40" y1="40.0" x2="560" y2="40.0"/>
<line x1="40.0" y1="40" x2="40.0" y2="560"/>
<line x1="40" y1="40.0" x2="560" y2="40.0"/>
<line x1="40.0" y1="40" x2="40.0" y2="560"/>
<line x1="40" y1="40.0" x2="560" y2="40.0"/>
<line x1="40.0" y1="40" x2="40.0" y2="560"/>
<line x1="40" y1="40.0" x2="560" y2="40.0"/>
<text x="92.0" y="580" text-anchor="middle" dominant-baseline="central">A</text>
<text x="20" y="508.0" text-anchor="middle" dominant-baseline="central">1</text>
<line x1="144.0" y1="40" x2="144.0" y2="560"/>
<line x1="40" y1="144.0" x2="560" y2="144.0"/>
<line x1="144.0" y1="40" x2="144.0" y2="560"/>
<line x1="40" y1="144.0" x2="560" y2="144.0"/>
<line x1="144.0" y1="40" x2="144.0" y2="560"/>
<line x1="40" y1="144.0" x2="560" y2="144.0"/>
<line x1="144.0" y1="40" x2="144.0" y2="560"/>
<line x1="40" y1="144.0" x2="560" y2="144.0"/>
<line x1="144.0" y1="40" x2="144.0" y2="560"/>
<line x1="40" y1="144.0" x2="560" y2="144.0"/>
<line x1="144.0" y1="40" x2="144.0" y2="560"/>
<line x1="40" y1="144.0" x2="560" y2="144.0"/>
<text x="196.0" y="580" text-anchor="middle" dominant-baseline="central">B</text>
<text x="20" y="404.0" text-anchor="middle" dominant-baseline="central">2</text>
<line x1="248.0" y1="40" x2="248.0" y2="560"/>
<line x1="40" y1="248.0" x2="560" y2="248.0"/>
<line x1="248.0" y1="40" x2="248.0" y2="560"/>
<line x1="40" y1="248.0" x2="560" y2="248.0"/>
<line x1="248.0" y1="40" x2="248.0" y2="560"/>
<line x1="40" y1="248.0" x2="560" y2="248.0"/>
<line x1="248.0" y1="40" x2="248.0" y2="560"/>
<line x1="40" y1="248.0" x2="560" y2="248.0"/>
<line x1="248.0" y1="40" x2="248.0" y2="560"/>
<line x1="40" y1="248.0" x2="560" y2="248.0"/>
<line x1="248.0" y1="40" x2="248.0" y2="560"/>
<line x1="40" y1="248.0" x2="560" y2="248.0"/>
<text x="300.0" y="580" text-anchor="middle" dominant-baseline="central">C</text>
<text x="20" y="300.0" text-anchor="middle" dominant-baseline="central">3</text>
<line x1="352.0" y1="40" x2="352.0" y2="560"/>
<line x1="40" y1="352.0" x2="560" y2="352.0"/>
<line x1="352.0" y1="40" x2="352.0" y2="560"/>
<line x1="40" y1="352.0" x2="560" y2="352.0"/>
<line x1="352.0" y1="40" x2="352.0" y2="560"/>
<line x1="40" y1="352.0" x2="560" y2="352.0"/>
<line x1="352.0" y1="40" x2="352.0" y2="560"/>
<line x1="40" y1="352.0" x2="560" y2="352.0"/>
<line x1="352.0" y1="40" x2="352.0" y2="560"/>
<line x1="40" y1="352.0" x2="560" y2="352.0"/>
<line x1="352.0" y1="40" x2="352.0" y2="560"/>
<line x1="40" y1="352.0" x2="560" y2="352.0"/>
<text x="404.0" y="580" text-anchor="middle" dominant-baseline="central">D</text>
<text x="20" y="196.0" text-anchor="middle" dominant-baseline="central">4</text>
<line x1="456.0" y1="40" x2="456.0" y2="560"/>
<line x1="40" y1="456.0" x2="560" y2="456.0"/>
<line x1="456.0" y1="40" x2="456.0" y2="560"/>
<line x1="40" y1="456.0" x2="560" y2="456.0"/>
<line x1="456.0" y1="40" x2="456.0" y2="560"/>
<line x1="40" y1="456.0" x2="560" y2="456.0"/>
<line x1="456.0" y1="40" x2="456.0" y2="560"/>
<line x1="40" y1="456.0" x2="560" y2="456.0"/>
<line x1="456.0" y1="40" x2="456.0" y2="560"/>
<line x1="40" y1="456.0" x2="560" y2="456.0"/>
<line x1="456.0" y1="40" x2="456.0" y2="560"/>
<line x1="40" y1="456.0" x2="560" y2="456.0"/>
<text x="508.0" y="580" text-anchor="middle" dominant-baseline="central">E</text>
<text x="20" y="92.0" text-anchor="middle" dominant-baseline="central">5</text>
<line x1="560.0" y1="40" x2="560.0" y2="560"/>
<line x1="40" y1="560.0" x2="560" y2="560.0"/>
<line x1="560.0" y1="40" x2="560.0" y2="560"/>
<line x1="40" y1="560.0" x2="560" y2="560.0"/>
<line x1="560.0" y1="40" x2="560.0" y2="560"/>
<line x1="40" y1="560.0" x2="560" y2="560.0"/>
<line x1="560.0" y1="40" x2="560.0" y2="560"/>
<line x1="40" y1="560.0" x2="560" y2="560.0"/>
<line x1="560.0" y1="40" x2="560.0" y2="560"/>
<line x1="40" y1="560.0" x2="560" y2="560.0"/>
<line x1="560.0" y1="40" x2="560.0" y2="560"/>
<line x1="40" y1="560.0" x2="560" y2="560.0"/>
</svg>
